# Blender 3.6.20
# www.blender.org
mtllib MoonstoneOre.mtl
o MoonstoneOre
v -0.033503 0.004560 0.173153
v -0.189656 0.003504 -0.018050
v 0.175524 0.002314 -0.085354
v -0.181144 0.133979 0.094792
v -0.139071 0.177619 -0.108432
v 0.186389 0.145478 -0.036193
v -0.133191 0.209907 0.014536
v 0.137751 0.002809 0.102979
v 0.064405 0.003986 0.173068
v 0.081028 0.005210 -0.141818
v -0.140947 0.001845 0.111541
v -0.004810 0.000064 -0.057417
v -0.121871 0.004613 -0.120877
v 0.199843 0.069809 0.067344
v 0.197706 0.074317 -0.062969
v 0.066271 0.111969 -0.140981
v -0.119704 0.070399 0.170676
v -0.111361 0.081674 -0.145935
v 0.036309 0.137031 -0.151080
v 0.087925 0.152513 0.142052
v -0.074648 0.147018 0.167798
v -0.186288 0.164619 0.006485
v 0.135242 0.151550 0.025722
v 0.049808 0.164292 0.096149
v 0.050439 0.171983 -0.003154
v 0.070151 0.126661 -0.136798
v 0.070335 0.138946 -0.125033
v 0.092621 0.117930 -0.124530
v 0.068163 0.124654 -0.133690
v 0.064283 0.109961 -0.137873
v 0.081444 0.093354 -0.129771
v 0.099503 0.094453 -0.118878
v 0.059588 0.092061 -0.143093
v 0.063822 0.147997 -0.097001
v -0.168777 0.075371 -0.055356
v 0.102169 0.114220 -0.119318
v -0.178625 0.107691 -0.024227
v -0.157402 0.058103 -0.072139
v -0.144929 0.113110 -0.095181
v -0.148504 0.100202 0.135106
v 0.072322 0.140954 -0.128141
v 0.080362 0.141406 -0.121986
v -0.160117 0.064859 0.103553
v -0.149447 0.115863 0.126967
v -0.134560 0.052880 0.140375
v -0.170724 0.070267 0.078813
v 0.040955 0.081492 0.198394
v 0.039813 0.059970 0.201584
v 0.036298 0.054768 0.204469
v 0.044329 0.065839 0.199253
v 0.022517 0.057994 0.206431
v 0.010963 0.080548 0.203094
v 0.010310 0.066140 0.205692
v 0.030893 0.050843 0.202021
v -0.016767 0.081525 0.195613
v 0.054465 0.083436 0.186557
v 0.091655 0.142042 -0.113342
v -0.095351 0.169257 0.113601
v -0.109583 0.158477 0.118438
v -0.047320 0.158892 0.136033
v -0.077343 0.175738 0.096035
v 0.196019 0.059195 0.043332
v 0.198771 0.072070 0.001968
v 0.191296 0.047358 -0.000545
v 0.017893 0.173867 0.061366
v -0.087146 0.160443 0.135081
v -0.071136 0.157291 0.141800
v -0.158739 0.110793 0.122465
v -0.170035 0.097463 0.099420
v -0.154903 0.123123 -0.080143
v -0.165331 0.119982 -0.054820
v 0.089667 0.140034 -0.110234
v 0.100181 0.112212 -0.116211
v 0.096992 0.127021 -0.111254
v 0.039813 0.059970 0.201584
v 0.136119 0.155645 0.026045
v 0.010310 0.066140 0.205692
v 0.010963 0.080548 0.203094
v 0.135242 0.151550 0.025722
v 0.049808 0.164292 0.096149
v 0.050439 0.171983 -0.003154
v 0.089667 0.140034 -0.110234
v -0.162351 0.110433 -0.075428
v 0.070335 0.138946 -0.125033
v 0.100181 0.112212 -0.116211
v -0.172512 0.075460 -0.057274
v 0.068163 0.124654 -0.133690
v 0.064283 0.109961 -0.137873
v 0.081444 0.093354 -0.129771
v 0.099503 0.094453 -0.118878
v 0.059588 0.092061 -0.143093
v 0.063822 0.147997 -0.097001
v -0.168777 0.075371 -0.055356
v -0.151947 0.100103 0.137509
v -0.178625 0.107691 -0.024227
v -0.157402 0.058103 -0.072139
v -0.144929 0.113110 -0.095181
v -0.148504 0.100202 0.135106
v -0.089719 0.165970 0.132416
v -0.170035 0.097463 0.099420
v -0.088000 0.164123 0.136917
v -0.160117 0.064859 0.103553
v -0.149447 0.115863 0.126967
v -0.134560 0.052880 0.140375
v -0.170724 0.070267 0.078813
v 0.040955 0.081492 0.198394
v 0.036298 0.054768 0.204469
v 0.044329 0.065839 0.199253
v 0.022517 0.057994 0.206431
v 0.030893 0.050843 0.202021
v -0.016767 0.081525 0.195613
v 0.054465 0.083436 0.186557
v -0.087146 0.160443 0.135081
v -0.095351 0.169257 0.113601
v -0.109583 0.158477 0.118438
v -0.047320 0.158892 0.136033
v -0.077343 0.175738 0.096035
v 0.191296 0.047358 -0.000545
v 0.198771 0.072070 0.001968
v 0.196019 0.059195 0.043332
v 0.017893 0.173867 0.061366
v -0.071136 0.157291 0.141800
v -0.158739 0.110793 0.122465
v -0.154903 0.123123 -0.080143
v -0.165331 0.119982 -0.054820
v 0.096992 0.127021 -0.111254
v 0.083432 0.095362 -0.132878
v 0.101491 0.096460 -0.121985
v 0.061576 0.094069 -0.146201
v 0.065810 0.150005 -0.100109
v 0.098980 0.129029 -0.114361
v -0.182361 0.107780 -0.026145
v -0.161137 0.058192 -0.074057
v -0.148664 0.113199 -0.097100
v -0.158639 0.123212 -0.082062
v -0.169066 0.120071 -0.056738
v -0.159962 0.108397 0.127609
v -0.173478 0.097364 0.101823
v -0.170016 0.085982 0.103266
v -0.163560 0.064760 0.105956
v -0.152891 0.115764 0.129370
v -0.138003 0.052781 0.142778
v -0.174167 0.070168 0.081216
v -0.162182 0.110694 0.124867
v -0.096204 0.172937 0.115437
v -0.110437 0.162156 0.120274
v -0.048174 0.162571 0.137869
v -0.078197 0.179418 0.097871
v -0.071990 0.160970 0.143636
v 0.040912 0.059860 0.205637
v 0.031467 0.065373 0.215146
v 0.011409 0.066030 0.209744
v 0.012062 0.080439 0.207146
v 0.042054 0.081382 0.202446
v 0.037397 0.054658 0.208521
v 0.045428 0.065730 0.203305
v 0.023616 0.057885 0.210483
v 0.031992 0.050734 0.206073
v -0.015668 0.081415 0.199665
v 0.055564 0.083327 0.190609
v 0.050684 0.168387 0.096472
v 0.051316 0.176078 -0.002832
v 0.018769 0.177962 0.061689
v 0.195318 0.046153 -0.000653
v 0.202793 0.070865 0.001860
v 0.200041 0.057989 0.043224
vn -0.0024 -0.9998 0.0192
vn -0.0463 -0.9988 0.0137
vn 0.7643 -0.6259 0.1549
vn -0.0024 -0.5269 0.8499
vn -0.9110 -0.2341 0.3394
vn 0.5122 0.1139 -0.8513
vn 0.6374 -0.1941 0.7457
vn -0.2571 -0.3021 0.9179
vn 0.0866 -0.3187 -0.9439
vn 0.5086 0.1089 -0.8541
vn -0.4217 0.7709 0.4774
vn -0.6244 0.7623 -0.1703
vn 0.1540 0.9502 -0.2710
vn 0.1515 0.9543 -0.2578
vn -0.6469 0.7080 0.2833
vn 0.2088 0.9749 0.0768
vn 0.5517 0.3692 -0.7479
vn -0.1529 0.3211 -0.9346
vn -0.9253 0.0759 -0.3716
vn -0.9980 0.0114 0.0621
vn -0.5576 0.3561 0.7498
vn -0.2501 0.1828 0.9508
vn 0.6339 0.1779 0.7527
vn 0.6980 0.6183 0.3612
vn -0.1018 -0.1040 -0.9893
vn -0.8431 -0.0337 -0.5367
vn -0.8328 -0.0652 -0.5497
vn -0.8345 -0.1882 0.5179
vn -0.4161 -0.5166 0.7483
vn 0.6889 -0.0652 0.7220
vn 0.9869 0.1609 -0.0106
vn 0.9576 -0.2870 -0.0256
vn -0.0037 -0.9979 -0.0646
vn -0.0019 -0.9999 -0.0121
vn 0.0306 -0.9995 -0.0094
vn -0.0288 -0.9996 -0.0031
vn 0.0409 -0.9990 -0.0193
vn -0.0059 -0.9999 0.0107
vn 0.0273 0.9284 0.3705
vn 0.1094 0.5724 0.8127
vn 0.2087 0.9749 0.0768
vn -0.0000 1.0000 -0.0000
vn -0.7193 0.0998 0.6875
vn -0.8774 0.3307 -0.3476
vn 0.8674 -0.1061 0.4862
vn -0.8765 0.3398 -0.3411
vn 0.5097 0.5365 0.6726
vn -0.0327 0.9934 0.1098
vn -0.3376 -0.7043 0.6245
vn 0.5492 0.2506 0.7973
vn -0.2847 0.8837 -0.3716
vn -0.1290 -0.9659 -0.2247
vn -0.5988 -0.7884 0.1411
vn -0.5237 -0.8435 0.1193
vn 0.7475 -0.6269 -0.2197
vn 0.6320 -0.7509 -0.1917
vn 0.0301 0.9994 0.0188
vn 0.7658 -0.6028 -0.2240
vn 0.7306 -0.6478 -0.2156
vn -0.4962 -0.4771 0.7254
vn -0.4984 0.2917 -0.8164
vn -0.2690 -0.9222 0.2777
vn 0.3235 0.0053 -0.9462
vn 0.2414 -0.3878 0.8895
vn -0.7188 0.1696 -0.6742
vn -0.2925 0.8762 -0.3830
vn -0.0934 -0.9803 -0.1742
vn -0.4945 0.5329 -0.6867
vn -0.1400 0.9383 0.3161
vn 0.2385 0.8739 -0.4237
vn 0.6820 0.3328 0.6513
vn 0.2861 -0.8778 -0.3841
vn 0.2854 -0.8779 -0.3846
vn -0.8730 0.3670 -0.3213
vn -0.8773 0.3313 -0.3471
vn 0.8421 0.0009 0.5392
vn -0.3113 -0.7598 0.5708
vn 0.4044 -0.4299 -0.8073
vn 0.5111 0.4204 0.7497
vn 0.8052 0.4036 -0.4344
vn -0.4181 -0.4814 0.7703
vn -0.0261 0.9991 0.0340
vn -0.0966 0.9939 0.0530
vn -0.5558 -0.8213 0.1286
vn 0.6073 -0.1908 0.7712
vn -0.8682 0.2209 -0.4444
vn 0.2811 0.9108 0.3022
vn 0.0034 0.1002 -0.9950
vt 0.353670 0.940699
vt 0.357120 0.946675
vt 0.350464 0.946251
vt 0.382840 0.940699
vt 0.386045 0.946251
vt 0.381017 0.943857
vt 0.363260 0.947015
vt 0.359787 0.949676
vt 0.359139 0.950173
vt 0.353670 0.947015
vt 0.352851 0.949622
vt 0.352666 0.949359
vt 0.352406 0.949691
vt 0.378854 0.947604
vt 0.382840 0.947015
vt 0.382623 0.949651
vt 0.381865 0.949974
vt 0.382511 0.951015
vt 0.382385 0.952542
vt 0.367926 0.946445
vt 0.369010 0.951708
vt 0.367855 0.950765
vt 0.368242 0.949971
vt 0.367146 0.950186
vt 0.353210 0.950173
vt 0.353069 0.949865
vt 0.352080 0.950173
vt 0.348200 0.950173
vt 0.374506 0.946986
vt 0.373724 0.950173
vt 0.366488 0.950354
vt 0.366547 0.951100
vt 0.362786 0.950173
vt 0.350023 0.953330
vt 0.355849 0.954005
vt 0.362773 0.953879
vt 0.359674 0.954447
vt 0.377314 0.956488
vt 0.374641 0.953330
vt 0.379194 0.953330
vt 0.370078 0.956488
vt 0.369390 0.953407
vt 0.370490 0.953930
vt 0.369252 0.952792
vt 0.373598 0.956708
vt 0.356714 0.958604
vt 0.355605 0.953330
vt 0.356320 0.954601
vt 0.356840 0.955610
vt 0.358503 0.956095
vt 0.358516 0.954376
vt 0.360264 0.954539
vt 0.366495 0.951754
vt 0.366646 0.952291
vt 0.362360 0.953347
vt 0.375960 0.951538
vt 0.376964 0.951528
vt 0.378210 0.951220
vt 0.377115 0.949967
vt 0.346377 0.953330
vt 0.347042 0.952179
vt 0.347376 0.952353
vt 0.347346 0.951653
vt 0.351361 0.950759
vt 0.352188 0.950756
vt 0.353216 0.950753
vt 0.353745 0.950813
vt 0.376578 0.949399
vt 0.375451 0.951208
vt 0.383216 0.951678
vt 0.384663 0.950173
vt 0.360968 0.950173
vt 0.369585 0.943003
vt 0.357512 0.946675
vt 0.362786 0.943857
vt 0.360962 0.940699
vt 0.362945 0.954733
vt 0.355908 0.953864
vt 0.354730 0.953825
vt 0.367782 0.951405
vt 0.360987 0.949097
vt 0.367503 0.952079
vt 0.383595 0.951283
vt 0.383736 0.949301
vt 0.123235 0.785361
vt 0.122940 0.784788
vt 0.129483 0.782612
vt 0.129442 0.782975
vt 0.128741 0.782802
vt 0.128708 0.782378
vt 0.129283 0.783358
vt 0.130978 0.784407
vt 0.130354 0.784111
vt 0.053653 0.786145
vt 0.053083 0.786151
vt 0.053739 0.785260
vt 0.054360 0.785970
vt 0.138492 0.781781
vt 0.138413 0.782906
vt 0.138197 0.783130
vt 0.137797 0.782754
vt 0.137861 0.781980
vt 0.120719 0.782002
vt 0.120867 0.781814
vt 0.120126 0.782608
vt 0.120534 0.782276
vt 0.120972 0.781964
vt 0.121095 0.782101
vt 0.120595 0.782607
vt 0.121176 0.782276
vt 0.121479 0.782639
vt 0.045603 0.787479
vt 0.041675 0.787550
vt 0.043845 0.787801
vt 0.043909 0.785094
vt 0.044589 0.784766
vt 0.124186 0.784660
vt 0.124178 0.785635
vt 0.041040 0.787448
vt 0.041708 0.787470
vt 0.045700 0.787963
vt 0.117866 0.783513
vt 0.117676 0.783414
vt 0.137431 0.782163
vt 0.052795 0.785964
vt 0.128797 0.783477
vt 0.128712 0.783173
vt 0.129081 0.782284
vt 0.129703 0.782162
vt 0.136586 0.785979
vt 0.136229 0.785279
vt 0.136778 0.785140
vt 0.137370 0.785623
vt 0.137309 0.786157
vt 0.136779 0.786794
vt 0.137076 0.786721
vt 0.137694 0.784960
vt 0.138537 0.787315
vt 0.139571 0.788266
vt 0.138585 0.787529
vt 0.135233 0.777044
vt 0.135174 0.776297
vt 0.135601 0.777134
vt 0.135332 0.778234
vt 0.135181 0.777697
vt 0.135833 0.778110
vt 0.139176 0.779873
vt 0.138076 0.779351
vt 0.137996 0.778991
vt 0.130276 0.783762
vt 0.064106 0.788057
vt 0.065020 0.789103
vt 0.063399 0.789018
vt 0.062717 0.789093
vt 0.063657 0.787582
vt 0.065899 0.780263
vt 0.064653 0.780572
vt 0.063648 0.780582
vt 0.063958 0.780161
vt 0.063140 0.780252
vt 0.053434 0.784937
vt 0.120243 0.786364
vt 0.120268 0.786949
vt 0.120045 0.786708
vt 0.150267 0.786314
vt 0.149642 0.785434
vt 0.149703 0.784692
vt 0.150633 0.784400
vt 0.150515 0.786056
vt 0.149070 0.784962
vt 0.116062 0.778297
vt 0.115728 0.778122
vt 0.115794 0.778008
vt 0.151902 0.777621
vt 0.151197 0.776958
vt 0.151237 0.776482
vt 0.151985 0.777536
vt 0.150551 0.775917
vt 0.117849 0.783116
vt 0.049541 0.791798
vt 0.052129 0.791323
vt 0.047016 0.791506
vt 0.046396 0.791311
vt 0.052272 0.792037
vt 0.050462 0.782922
vt 0.043538 0.783048
vt 0.044339 0.783141
vt 0.042419 0.782868
vt 0.043596 0.782907
vt 0.125146 0.785613
vt 0.124287 0.785615
vt 0.124696 0.785128
vt 0.125023 0.784871
vt 0.125141 0.785128
vt 0.124469 0.784726
vt 0.124686 0.784449
vt 0.124841 0.784669
vt 0.124197 0.785128
vt 0.123596 0.785618
vt 0.125588 0.785663
vt 0.121179 0.782605
vt 0.129572 0.788638
vt 0.129561 0.790074
vt 0.127738 0.788827
vt 0.127189 0.782038
vt 0.125526 0.781554
vt 0.125007 0.780545
vt 0.050637 0.787330
vt 0.050622 0.788229
vt 0.049635 0.787814
vt 0.044579 0.785376
s 0
usemtl MoonstoneRock
f 12/1/1 8/2/1 1/3/1
f 12/4/2 1/5/2 13/6/2
f 8/2/3 3/7/3 62/8/3 14/9/3
f 1/3/4 9/10/4 49/11/4 54/12/4 51/13/4
f 2/14/5 11/15/5 43/16/5 46/17/5 69/18/5 4/19/5
f 3/7/6 10/20/6 19/21/6 30/22/6 33/23/6 31/24/6
f 8/2/7 14/9/7 50/25/7 48/26/7
f 1/3/8 51/13/8 53/27/8 17/28/8
f 13/29/9 18/30/9 19/21/9
f 3/7/10 31/24/10 32/31/10 73/32/10 15/33/10
f 4/19/11 21/34/11 66/35/11 59/36/11 58/37/11 7/38/11
f 5/39/12 22/40/12 7/38/12
f 19/21/13 5/39/13 6/41/13 72/42/13 34/43/13 27/44/13
f 6/41/14 5/39/14 7/45/14
f 22/40/15 4/19/15 7/38/15
f 7/46/16 20/47/16 24/48/16 65/49/16 25/50/16 23/51/16 6/52/16
f 15/33/17 73/32/17 74/53/17 72/54/17 6/55/17
f 19/21/18 18/30/18 5/39/18
f 2/14/19 22/40/19 5/39/19 70/56/19 71/57/19 37/58/19 35/59/19
f 2/14/20 4/19/20 22/40/20
f 17/28/21 21/34/21 4/60/21 68/61/21 44/62/21 40/63/21
f 17/28/22 53/27/22 55/64/22 52/65/22 21/34/22
f 14/9/23 20/47/23 47/66/23 56/67/23 50/25/23
f 14/9/24 6/55/24 20/47/24
f 10/20/25 13/29/25 19/21/25
f 18/30/26 2/14/26 35/59/26 38/68/26 39/69/26 70/56/26 5/39/26
f 18/30/27 13/29/27 2/14/27
f 11/15/29 1/5/29 17/71/29
f 9/10/30 8/2/30 48/26/30 49/11/30
f 14/9/31 63/72/31 15/33/31 6/55/31
f 14/9/32 62/8/32 63/72/32
f 12/73/33 13/29/33 10/20/33
f 13/6/34 11/15/34 2/14/34
f 13/6/35 1/5/35 11/15/35
f 3/7/36 8/74/36 10/75/36
f 8/74/37 12/76/37 10/75/37
f 1/3/38 8/2/38 9/10/38
f 7/38/39 58/37/39 61/77/39 60/78/39 67/79/39 66/35/39 21/34/39 20/47/39
f 21/34/40 52/65/40 47/66/40 20/47/40
f 6/52/41 23/51/41 24/48/41 20/47/41
f 29/80/10 30/22/10 19/21/10
f 27/82/17 29/80/17 19/21/17
f 40/83/28 45/84/28 43/16/28 11/15/28 17/71/28
f 63/72/32 64/81/32 62/8/32 3/7/32 15/33/32
usemtl MoonstoneMineral
f 4/19/28 69/18/28 68/70/28
f 55/64/42 53/27/42 77/27/42 111/64/42
f 39/69/42 38/68/42 96/68/42 97/69/42
f 64/81/42 63/72/42 119/72/42 118/81/42
f 46/17/42 43/16/42 102/16/42 105/17/42
f 69/18/42 46/17/42 105/17/42 100/18/42
f 52/65/42 55/64/42 111/64/42 78/65/42
f 35/59/42 37/58/42 95/58/42 93/59/42
f 68/70/42 69/18/42 100/18/42 123/70/42
f 53/27/42 51/13/42 109/13/42 77/27/42
f 43/16/42 45/84/42 104/84/42 102/16/42
f 44/62/42 68/61/42 123/61/42 103/62/42
f 51/13/42 54/12/42 110/12/42 109/13/42
f 60/78/42 61/77/42 117/77/42 116/78/42
f 45/84/42 40/83/42 98/83/42 104/84/42
f 54/12/42 49/11/42 107/11/42 110/12/42
f 34/43/42 72/42/42 82/42/42 92/43/42
f 61/77/42 58/37/42 114/37/42 117/77/42
f 48/26/42 50/25/42 108/25/42 75/26/42
f 27/44/42 34/43/42 92/43/42 84/44/42
f 72/54/42 74/53/42 126/53/42 82/54/42
f 40/63/42 44/62/42 103/62/42 98/63/42
f 67/79/42 60/78/42 116/78/42 122/79/42
f 47/66/42 52/65/42 78/65/42 106/66/42
f 74/53/42 73/32/42 85/32/42 126/53/42
f 58/37/42 59/36/42 115/36/42 114/37/42
f 66/35/42 67/79/42 122/79/42 113/35/42
f 31/24/42 33/23/42 91/23/42 89/24/42
f 73/32/42 32/31/42 90/31/42 85/32/42
f 59/36/42 66/35/42 113/35/42 115/36/42
f 33/23/42 30/22/42 88/22/42 91/23/42
f 23/51/42 25/50/42 81/50/42 79/51/42
f 121/85/43 80/86/43 161/86/43 163/85/43
f 88/87/44 87/88/44 26/88/44 16/87/44
f 85/89/45 90/90/45 128/90/45 36/89/45
f 87/88/46 84/91/46 41/91/46 26/88/46
f 92/92/47 82/93/47 57/93/47 130/92/47
f 125/94/48 124/95/48 135/95/48 136/94/48
f 93/96/49 95/97/49 132/97/49 86/96/49
f 104/98/50 98/99/50 94/99/50 142/98/50
f 123/100/51 100/101/51 138/101/51 144/100/51
f 102/102/52 104/98/52 142/98/52 140/102/52
f 109/103/53 110/104/53 158/104/53 157/103/53
f 111/105/54 77/106/54 152/106/54 159/105/54
f 107/107/55 75/108/55 150/108/55 155/107/55
f 110/104/56 107/107/56 155/107/56 158/104/56
f 78/109/57 111/105/57 159/105/57 153/109/57
f 108/110/58 112/111/58 160/111/58 156/110/58
f 75/108/59 108/110/59 156/110/59 150/108/59
f 115/112/60 113/113/60 101/113/60 146/112/60
f 114/114/61 115/112/61 146/112/61 145/114/61
f 120/115/62 118/116/62 164/116/62 166/115/62
f 79/117/63 81/118/63 162/118/63 76/117/63
f 122/119/64 116/120/64 147/120/64 149/119/64
f 117/121/65 114/114/65 145/114/65 148/121/65
f 103/122/66 123/123/66 144/123/66 141/122/66
f 105/124/67 102/102/67 140/102/67 143/124/67
f 100/101/68 105/124/68 143/124/68 138/101/68
f 95/97/69 125/94/69 136/94/69 132/97/69
f 124/95/70 97/125/70 134/125/70 135/95/70
f 82/126/71 126/127/71 131/127/71 57/126/71
f 89/128/72 91/129/72 129/129/72 127/128/72
f 90/90/73 89/128/73 127/128/73 128/90/73
f 63/72/42 62/8/42 120/8/42 119/72/42
f 56/67/42 47/66/42 106/66/42 112/67/42
f 37/58/42 71/57/42 125/57/42 95/58/42
f 30/22/42 29/80/42 87/80/42 88/22/42
f 62/8/42 64/81/42 118/81/42 120/8/42
f 38/68/42 35/59/42 93/59/42 96/68/42
f 50/25/42 56/67/42 112/67/42 108/25/42
f 71/57/42 70/56/42 124/56/42 125/57/42
f 32/31/42 31/24/42 89/24/42 90/31/42
f 65/49/42 24/48/42 80/48/42 121/49/42
f 24/48/42 23/51/42 79/51/42 80/48/42
f 49/11/42 48/26/42 75/26/42 107/11/42
f 70/56/42 39/69/42 97/69/42 124/56/42
f 25/50/42 65/49/42 121/49/42 81/50/42
f 29/80/42 27/82/42 84/82/42 87/80/42
f 28/130/10 128/131/10 127/132/10 16/133/10 26/134/10
f 42/135/17 28/130/17 26/134/17 41/136/17
f 127/132/6 129/137/6 16/133/6
f 41/138/13 130/139/13 42/140/13
f 36/141/10 128/142/10 28/143/10
f 57/144/17 131/145/17 36/141/17 28/143/17 42/146/17
f 130/147/13 57/148/13 42/149/13
f 84/150/74 92/92/74 130/92/74 41/150/74
f 91/129/75 88/87/75 16/87/75 129/129/75
f 126/127/76 85/89/76 36/89/76 131/127/76
f 86/151/19 132/152/19 83/153/19
f 83/153/26 134/154/26 133/155/26 86/151/26
f 132/156/19 136/157/19 135/158/19 83/159/19
f 135/158/26 134/160/26 83/159/26
f 96/161/77 93/96/77 86/96/77 133/161/77
f 97/125/78 96/161/78 133/161/78 134/125/78
f 94/162/21 141/163/21 137/164/21
f 137/165/28 139/166/28 140/167/28 142/168/28 94/169/28
f 139/166/5 143/170/5 140/167/5
f 141/171/21 144/172/21 137/173/21
f 144/174/28 138/175/28 139/176/28 137/177/28
f 138/175/5 143/178/5 139/176/5
f 98/179/79 103/122/79 141/122/79 94/179/79
f 145/180/11 146/181/11 99/182/11
f 99/182/39 147/183/39 148/184/39 145/180/39
f 146/185/11 101/186/11 99/187/11
f 101/186/39 149/188/39 147/189/39 99/187/39
f 116/120/80 117/121/80 148/121/80 147/120/80
f 113/113/81 122/119/81 149/119/81 101/113/81
f 154/190/40 153/191/40 151/192/40
f 150/193/7 156/194/7 151/192/7
f 157/195/4 158/196/4 155/197/4 151/192/4
f 152/198/8 157/195/8 151/192/8
f 153/191/22 159/199/22 152/198/22 151/192/22
f 156/194/23 160/200/23 154/190/23 151/192/23
f 155/197/30 150/193/30 151/192/30
f 106/201/82 78/109/82 153/109/82 154/201/82
f 112/111/83 106/201/83 154/201/83 160/111/83
f 77/106/84 109/103/84 157/103/84 152/106/84
f 76/202/16 162/203/16 161/204/16
f 162/205/41 163/206/41 161/207/41
f 80/86/85 79/117/85 76/117/85 161/86/85
f 81/118/86 121/85/86 163/85/86 162/118/86
f 164/208/32 165/209/32 166/210/32
f 119/211/87 120/115/87 166/115/87 165/211/87
f 118/116/88 119/211/88 165/211/88 164/116/88
