# Blender 3.1.0
# www.blender.org
mtllib CarrotSeed.mtl
o Icosphere
v 0.461843 -0.189648 0.423627
v 0.158708 -0.249060 0.468327
v 0.280233 -0.351500 -0.137979
v 0.579821 -0.237125 0.057233
v -0.101325 -0.187771 0.627940
v -0.346293 -0.246876 0.384238
v -0.372593 -0.319952 -0.008317
v -0.573421 -0.242094 -0.033551
v -0.413174 -0.262155 -0.419812
v 0.013020 -0.346870 -0.369513
v -0.103136 -0.159083 -1.239649
v 0.720031 -0.082505 -0.577130
v 0.770992 -0.108415 -0.055930
v 0.743810 -0.080381 0.171268
v 0.811142 0.034589 -0.249556
v 0.398121 -0.098283 0.648052
v 0.101553 -0.119577 0.736925
v 0.243334 -0.050306 0.754078
v -0.122381 -0.047630 0.810349
v -0.527222 -0.163990 0.399277
v -0.507223 -0.002748 0.597559
v -0.581534 -0.183896 -0.426372
v 0.188163 -0.128806 -1.386642
v -0.047002 -0.087761 -1.507682
v 0.270905 -0.059000 -1.482692
v 0.163900 0.028513 -1.582628
v 0.770719 0.057274 0.209038
v 0.183883 0.069799 0.797131
v -0.061099 0.223816 0.682877
v -0.150089 0.090482 0.806400
v -0.748678 0.005878 0.137180
v -0.664582 0.132224 0.223813
v -0.278958 0.075609 -1.338261
v -0.246518 -0.006563 -1.450400
v 0.348004 0.175077 -1.166459
v 0.557518 0.100774 -0.979028
v 0.743291 0.061874 -0.533209
v 0.549741 0.196027 0.378611
v 0.661421 0.220160 0.024784
v 0.406360 0.312576 0.162879
v 0.304757 0.209741 0.591860
v -0.255934 0.274628 0.514745
v 0.036305 0.336057 0.419101
v -0.500465 0.278145 0.001562
v -0.047748 0.169668 -1.343146
v -0.106133 0.316882 -0.681827
v 0.663579 0.199459 -0.315990
v 0.221105 0.259313 -0.986063
v 0.537261 0.205010 -0.701894
v -0.057498 0.391128 -0.293107
v -0.355340 0.292096 -0.439406
v -0.282315 0.359980 -0.099446
v -0.483494 0.228347 0.395760
v -0.186778 0.370632 0.213949
v 0.090299 0.401229 -0.159934
v 0.316965 0.364040 -0.019399
v 0.150228 0.157552 0.727712
v 0.211251 0.107881 -1.468202
v -0.022852 0.080414 -1.566830
v -0.011585 -0.010288 -1.608562
v 0.432995 0.025980 -1.322453
v -0.570888 0.174540 -0.440625
v -0.695826 -0.021625 -0.469749
v -0.765997 0.033985 -0.079265
v -0.235536 -0.065146 -1.390113
v -0.390659 0.161942 0.632026
v -0.360633 0.020479 0.732658
v -0.678425 -0.112398 0.240461
v -0.641631 0.059463 0.425320
v 0.508828 0.060348 0.604043
v 0.679857 -0.034841 0.377265
v 0.761353 0.123928 0.030512
v -0.104968 -0.358958 0.122530
v 0.566327 -0.178767 -0.657702
v 0.297103 -0.295411 -0.555921
v 0.609365 -0.225973 -0.321985
v 0.209116 -0.353938 0.066384
v -0.716925 -0.149267 -0.117700
vn 0.2669 -0.7366 0.3250
vn 0.0747 -0.7685 0.3136
vn 0.2722 -0.6714 0.4920
vn -0.0314 -0.7489 0.3850
vn 0.2316 -0.6609 0.5326
vn 0.0726 -0.6907 0.5206
vn 0.6235 -0.5810 0.3150
vn 0.3551 -0.7295 0.2578
vn 0.3619 -0.7513 0.1124
vn 0.6907 -0.5668 0.1887
vn 0.3567 -0.7501 -0.1383
vn 0.4253 -0.7348 0.0004
vn 0.6461 -0.6194 0.0227
vn 0.3990 -0.7254 -0.2059
vn -0.1089 -0.7446 0.3834
vn -0.3980 -0.5592 0.6059
vn -0.3549 -0.5824 0.5996
vn -0.2808 -0.7561 0.2323
vn -0.4620 -0.6934 0.2391
vn -0.4427 -0.7040 0.2285
vn -0.5223 -0.6797 0.1623
vn -0.6848 -0.5622 0.2270
vn -0.5671 -0.6595 -0.1365
vn -0.4162 -0.7323 -0.1150
vn -0.2191 -0.7833 -0.1453
vn -0.1456 -0.8015 -0.0648
vn -0.4871 -0.6989 -0.1470
vn -0.2065 -0.7730 -0.2255
vn 0.0432 -0.7827 -0.2620
vn 0.0040 -0.8115 -0.0293
vn 0.0182 -0.8117 -0.0084
vn 0.0031 -0.7881 -0.2402
vn 0.1155 -0.7963 -0.1575
vn 0.3726 -0.7212 -0.2683
vn 0.6637 -0.5830 -0.2094
vn 0.7601 -0.5195 -0.1135
vn 0.9351 -0.2730 -0.1120
vn 0.9718 -0.1514 0.1446
vn 0.9881 -0.0985 0.0945
vn 0.9126 -0.1797 0.3436
vn 0.9631 0.2111 0.0691
vn -0.0647 -0.5915 0.6819
vn 0.6324 -0.4916 0.4832
vn 0.2766 -0.4945 0.7433
vn 0.5320 -0.0912 0.8393
vn 0.1354 -0.3301 0.9035
vn 0.5091 -0.0370 0.8595
vn 0.4442 0.4384 0.7150
vn 0.3879 0.4713 0.7159
vn 0.1463 -0.1800 0.9641
vn -0.4492 -0.4938 0.6545
vn -0.4327 -0.5389 0.6100
vn -0.8040 -0.3066 0.4594
vn -0.7432 -0.2940 0.5626
vn -0.6759 0.2546 0.6670
vn -0.6894 0.2188 0.6724
vn -0.6722 0.4684 0.4639
vn -0.9101 -0.1391 0.3774
vn -0.4663 -0.6774 -0.2940
vn -0.4196 -0.6979 -0.2918
vn -0.8055 -0.4235 -0.2812
vn -0.7752 -0.4229 -0.3574
vn -0.9720 -0.1520 -0.1418
vn -0.8125 -0.3586 -0.3806
vn -0.8216 0.3772 -0.3303
vn -0.8979 0.1336 -0.4083
vn -0.3506 -0.7029 -0.3572
vn -0.0396 -0.7689 -0.3187
vn 0.1351 -0.6440 -0.5937
vn 0.4802 -0.6637 -0.3181
vn 0.6807 -0.5189 -0.3580
vn 0.1343 -0.6032 -0.6557
vn 0.2593 -0.4104 -0.8229
vn 0.6950 0.0193 -0.7186
vn 0.6244 0.3631 -0.6404
vn 0.1848 0.5749 -0.6815
vn 0.7379 -0.4508 -0.3837
vn 0.7339 0.5122 0.2516
vn 0.7122 0.5230 0.2789
vn 0.8249 0.1203 0.5455
vn 0.7061 -0.2037 0.6622
vn 0.7367 0.3835 0.4839
vn 0.5342 0.5113 0.5639
vn 0.0653 0.4494 0.8303
vn 0.0299 0.0228 0.9992
vn -0.3194 -0.0244 0.9471
vn 0.0526 0.4724 0.8115
vn -0.2619 0.5413 0.6978
vn -0.4426 0.3167 0.8075
vn -0.7217 0.4856 0.3482
vn -0.9274 -0.2805 0.1435
vn -0.9443 0.2005 0.2174
vn -0.7902 0.4807 0.1579
vn -0.9747 -0.1780 0.0429
vn -0.6344 0.6164 0.1454
vn -0.7475 0.5391 -0.0150
vn -0.7372 0.5451 -0.0764
vn -0.8515 0.3805 -0.2352
vn -0.4843 -0.4897 -0.6337
vn -0.4371 0.6993 -0.2591
vn -0.4100 0.6493 -0.4387
vn -0.5768 0.4193 -0.6329
vn -0.5378 0.2004 -0.8061
vn 0.0537 0.7295 -0.4356
vn -0.4735 -0.4472 -0.6873
vn 0.0419 0.2869 -0.9346
vn 0.5983 0.5369 -0.4525
vn 0.6463 0.5238 -0.4074
vn 0.9199 0.1076 -0.3691
vn 0.9308 -0.0258 -0.3642
vn 0.5952 0.6048 -0.3016
vn 0.7369 0.5134 -0.2391
vn 0.7343 0.5188 -0.2290
vn 0.8462 0.4253 -0.0981
vn 0.9685 -0.0548 -0.2397
vn 0.7703 0.5100 -0.1098
vn 0.4968 0.6800 0.2272
vn 0.3570 0.7059 0.3413
vn 0.3017 0.7247 0.3350
vn 0.4464 0.7228 0.0907
vn 0.2260 0.7706 0.2192
vn 0.1824 0.6432 0.5823
vn -0.2672 0.6170 0.5925
vn -0.4283 0.6402 0.4413
vn 0.1658 0.6876 0.5051
vn -0.0890 0.7269 0.4364
vn -0.1313 0.7571 0.3364
vn -0.3633 0.7246 0.2673
vn 0.1080 0.7983 0.1464
vn 0.0577 0.8022 0.1424
vn -0.5508 0.6667 -0.1493
vn -0.4292 0.7221 0.1569
vn -0.3875 0.7457 0.0797
vn -0.4608 0.7142 -0.1174
vn -0.1616 0.8012 0.0079
vn -0.1043 0.8072 0.0229
vn 0.0983 0.7530 -0.3608
vn -0.5286 0.6410 -0.3117
vn -0.3766 0.7180 -0.2757
vn -0.0401 0.7816 -0.2675
vn -0.0018 0.7903 -0.2288
vn -0.2824 0.7663 -0.1715
vn -0.3141 0.7568 -0.1800
vn 0.2353 0.7346 -0.3548
vn 0.3964 0.7212 -0.2320
vn 0.4212 0.7296 -0.1220
vn 0.4630 0.7178 -0.0632
vn 0.3282 0.7577 -0.1455
vn 0.2973 0.7623 -0.1735
vn 0.0910 0.7933 -0.1923
vn 0.7649 0.5218 -0.0433
vn 0.6533 -0.5312 0.3810
vt 0.239694 0.135370
vt 0.291630 0.127040
vt 0.178937 0.105444
vt 0.384131 0.053245
vt 0.532220 0.039725
vt 0.345893 0.116775
vt 0.972462 0.110933
vt 0.126247 0.123466
vt 0.922464 0.105863
vt 0.872377 0.078731
vt 0.764096 0.076869
vt 0.850083 0.117540
vt 0.785268 0.117913
vt 0.729960 0.103674
vt 0.702022 0.053286
vt 0.565956 0.048511
vt 0.650412 0.134782
vt 0.611141 0.135323
vt 0.421636 0.195035
vt 0.366670 0.181254
vt 0.323022 0.193859
vt 0.384116 0.245161
vt 0.214702 0.184791
vt 0.153271 0.172145
vt 0.175712 0.209510
vt 0.992593 0.158285
vt 0.107017 0.198696
vt 0.902526 0.151452
vt 0.926199 0.219850
vt 0.753868 0.148851
vt 0.553850 0.169427
vt 0.603235 0.187931
vt 0.541876 0.206992
vt 0.562283 0.246504
vt 0.311801 0.253856
vt 0.162244 0.261045
vt 0.098076 0.315903
vt 0.093221 0.259681
vt 0.834720 0.233074
vt 0.849792 0.286180
vt 0.657123 0.264241
vt 0.645947 0.227390
vt 0.509680 0.312067
vt 0.468603 0.274310
vt 0.418477 0.261948
vt 0.265282 0.312152
vt 0.328231 0.332098
vt 0.391336 0.362897
vt 0.272652 0.367453
vt 0.204523 0.328242
vt 0.183615 0.327124
vt 0.055035 0.344080
vt 0.222695 0.385721
vt 0.110222 0.374678
vt 0.818069 0.350447
vt 0.611650 0.310733
vt 0.643679 0.384832
vt 0.403527 0.329420
vt 0.580604 0.364533
vt 0.509900 0.354289
vt 0.449878 0.314992
vt 0.803684 0.437596
vt 0.640316 0.436359
vt 0.471721 0.442634
vt 0.774026 0.379447
vt 0.684934 0.386648
vt 0.815460 0.404076
vt 0.670455 0.413334
vt 0.015995 0.336986
vt 0.880735 0.332232
vt 0.062333 0.400532
vt 0.855770 0.406296
vt 0.092873 0.450447
vt 0.823715 0.462798
vt 0.453656 0.450908
vt 0.282529 0.408044
vt 0.122853 0.417054
vt 0.423274 0.404852
vt 0.150529 0.302463
vt 0.548461 0.285994
vt 0.602380 0.265223
vt 0.597033 0.227605
vt 0.507057 0.244933
vt 0.759947 0.300209
vt 0.762758 0.234570
vt 0.804401 0.251185
vt 0.646139 0.189239
vt 0.926919 0.284042
vt 0.036870 0.288770
vt 0.956000 0.233672
vt 0.056125 0.233845
vt 0.861012 0.182932
vt 0.886714 0.254113
vt 0.232710 0.254867
vt 0.280073 0.213078
vt 0.342689 0.285605
vt 0.147419 0.062579
vt 0.913148 0.042079
vt 0.738308 0.028314
vt 0.556819 0.019683
vt 0.427430 0.136718
vt 0.479824 0.126406
vt 0.403080 0.068318
vt 0.520603 0.081023
vt 0.396568 0.120660
vt 0.195391 0.034835
vt 0.354972 0.037201
vt 0.540389 0.008775
vt 0.796753 0.171865
s 0
usemtl Seed
f 77/106/1 1/1/1 2/3/1
f 77/106/2 2/3/2 73/97/2
f 2/3/3 1/1/3 16/23/3
f 73/97/4 2/3/4 5/8/4
f 2/3/5 16/23/5 17/24/5
f 5/8/6 2/3/6 17/24/6
f 14/21/7 1/2/7 4/6/7
f 1/2/8 77/107/8 4/6/8
f 4/6/9 77/107/9 3/4/9
f 14/21/10 4/6/10 13/20/10
f 76/105/11 3/4/11 75/103/11
f 4/6/12 3/4/12 76/105/12
f 13/20/13 4/6/13 76/105/13
f 76/105/14 75/103/14 74/101/14
f 6/9/15 73/98/15 5/7/15
f 6/9/16 5/7/16 19/26/16
f 6/9/17 19/26/17 20/28/17
f 73/98/18 6/9/18 7/10/18
f 8/12/19 6/9/19 20/28/19
f 7/10/20 6/9/20 8/12/20
f 78/109/21 20/28/21 68/92/21
f 8/12/22 20/28/22 78/109/22
f 8/13/23 78/109/23 22/30/23
f 7/11/24 8/13/24 9/14/24
f 10/15/25 7/11/25 9/14/25
f 73/99/26 7/11/26 10/15/26
f 9/14/27 8/13/27 22/30/27
f 10/15/28 9/14/28 11/17/28
f 10/16/29 11/18/29 75/104/29
f 73/100/30 10/16/30 3/5/30
f 77/108/31 73/100/31 3/5/31
f 75/104/32 11/18/32 23/31/32
f 3/5/33 10/16/33 75/104/33
f 75/104/34 23/31/34 74/102/34
f 76/105/35 74/101/35 12/19/35
f 13/20/36 76/105/36 12/19/36
f 13/20/37 12/19/37 15/22/37
f 14/21/38 13/20/38 27/35/38
f 27/35/39 13/20/39 15/22/39
f 71/95/40 14/21/40 27/35/40
f 27/35/41 15/22/41 72/96/41
f 19/27/42 5/8/42 17/24/42
f 16/23/43 1/2/43 71/95/43
f 17/24/44 16/23/44 18/25/44
f 18/25/45 16/23/45 70/94/45
f 19/27/46 17/24/46 18/25/46
f 18/25/47 70/94/47 28/36/47
f 28/36/48 70/94/48 41/50/48
f 57/79/49 28/36/49 41/50/49
f 19/27/50 18/25/50 28/36/50
f 20/28/51 19/26/51 21/29/51
f 21/29/52 19/26/52 67/90/52
f 69/93/53 20/28/53 21/29/53
f 68/92/54 20/28/54 69/93/54
f 69/93/55 21/29/55 67/90/55
f 69/93/56 67/90/56 66/88/56
f 53/70/57 69/93/57 66/88/57
f 68/92/58 69/93/58 31/39/58
f 9/14/59 22/30/59 65/87/59
f 11/18/60 9/14/60 65/87/60
f 22/30/61 78/109/61 63/85/61
f 65/87/62 22/30/62 63/85/62
f 63/85/63 78/109/63 64/86/63
f 65/87/64 63/85/64 34/42/64
f 33/41/65 63/85/65 62/84/65
f 34/42/66 63/85/66 33/41/66
f 24/32/67 11/18/67 65/87/67
f 23/31/68 11/18/68 24/32/68
f 25/33/69 23/31/69 24/32/69
f 74/102/70 23/31/70 25/33/70
f 12/19/71 74/102/71 25/33/71
f 25/33/72 24/32/72 60/82/72
f 25/33/73 60/82/73 26/34/73
f 61/83/74 25/33/74 26/34/74
f 61/83/75 26/34/75 58/80/75
f 58/80/76 26/34/76 59/81/76
f 12/19/77 25/33/77 61/83/77
f 27/35/78 72/96/78 39/47/78
f 27/35/79 39/47/79 38/46/79
f 71/95/80 27/35/80 70/94/80
f 16/23/81 71/95/81 70/94/81
f 70/94/82 27/35/82 38/46/82
f 70/94/83 38/46/83 41/50/83
f 30/38/84 28/36/84 57/79/84
f 19/27/85 28/36/85 30/38/85
f 67/91/86 19/27/86 30/38/86
f 30/38/87 57/79/87 29/37/87
f 30/38/88 29/37/88 66/89/88
f 67/91/89 30/38/89 66/89/89
f 69/93/90 53/70/90 32/40/90
f 78/109/91 68/92/91 31/39/91
f 64/86/92 69/93/92 32/40/92
f 31/39/93 69/93/93 64/86/93
f 78/109/94 31/39/94 64/86/94
f 32/40/95 53/70/95 44/55/95
f 64/86/96 32/40/96 44/55/96
f 64/86/97 44/55/97 62/84/97
f 63/85/98 64/86/98 62/84/98
f 24/32/99 65/87/99 34/42/99
f 33/41/100 62/84/100 45/56/100
f 59/81/101 33/41/101 45/56/101
f 34/42/102 33/41/102 59/81/102
f 60/82/103 34/42/103 59/81/103
f 59/81/104 45/56/104 58/80/104
f 24/32/105 34/42/105 60/82/105
f 60/82/106 59/81/106 26/34/106
f 61/83/107 58/80/107 35/43/107
f 36/44/108 61/83/108 35/43/108
f 37/45/109 61/83/109 36/44/109
f 12/19/110 61/83/110 37/45/110
f 36/44/111 35/43/111 49/61/111
f 37/45/112 36/44/112 49/61/112
f 37/45/113 49/61/113 47/58/113
f 72/96/114 37/45/114 47/58/114
f 12/19/115 37/45/115 15/22/115
f 15/22/116 37/45/116 72/96/116
f 38/46/117 39/47/117 40/49/117
f 41/50/118 38/46/118 40/49/118
f 43/53/119 41/50/119 40/49/119
f 40/49/120 39/47/120 56/76/120
f 43/53/121 40/49/121 56/76/121
f 29/37/122 57/79/122 41/51/122
f 42/52/123 66/89/123 29/37/123
f 53/69/124 66/89/124 42/52/124
f 43/54/125 29/37/125 41/51/125
f 42/52/126 29/37/126 43/54/126
f 54/71/127 42/52/127 43/54/127
f 53/69/128 42/52/128 54/71/128
f 55/73/129 43/54/129 56/77/129
f 54/71/130 43/54/130 55/73/130
f 51/65/131 62/84/131 44/55/131
f 44/55/132 53/70/132 54/72/132
f 52/67/133 44/55/133 54/72/133
f 51/65/134 44/55/134 52/67/134
f 50/62/135 52/67/135 54/72/135
f 50/62/136 54/72/136 55/74/136
f 58/80/137 45/56/137 48/59/137
f 45/56/138 62/84/138 51/66/138
f 46/57/139 45/56/139 51/66/139
f 48/59/140 45/56/140 46/57/140
f 48/59/141 46/57/141 50/63/141
f 46/57/142 51/66/142 52/68/142
f 50/63/143 46/57/143 52/68/143
f 35/43/144 58/80/144 48/60/144
f 49/61/145 35/43/145 48/60/145
f 47/58/146 49/61/146 56/78/146
f 39/48/147 47/58/147 56/78/147
f 49/61/148 48/60/148 55/75/148
f 56/78/149 49/61/149 55/75/149
f 55/75/150 48/60/150 50/64/150
f 72/96/151 47/58/151 39/48/151
f 1/2/152 14/21/152 71/95/152
