# Blender 3.1.0
# www.blender.org
mtllib Shovel.mtl
o Cylinder
v -0.519694 -0.002251 -0.054076
v 0.408933 -0.002251 -0.054076
v -0.519694 -0.006759 -0.053007
v 0.408933 -0.006759 -0.053007
v -0.519694 -0.011094 -0.049843
v 0.408933 -0.011094 -0.049843
v -0.519694 -0.015089 -0.044704
v 0.408933 -0.015089 -0.044704
v -0.519694 -0.018591 -0.037788
v 0.408933 -0.018591 -0.037788
v -0.519694 -0.021464 -0.029362
v 0.408933 -0.021464 -0.029362
v -0.519694 -0.023600 -0.019748
v 0.408933 -0.023600 -0.019748
v -0.519694 -0.024915 -0.009316
v 0.408933 -0.024914 -0.009316
v -0.519694 -0.025359 0.001532
v 0.408933 -0.025358 0.001532
v -0.519694 -0.024915 0.012381
v 0.408933 -0.024914 0.012381
v -0.519694 -0.023600 0.022813
v 0.408933 -0.023600 0.022813
v -0.519694 -0.021464 0.032427
v 0.408933 -0.021464 0.032427
v -0.519694 -0.018591 0.040853
v 0.408933 -0.018591 0.040853
v -0.519694 -0.015089 0.047769
v 0.408933 -0.015089 0.047769
v -0.519694 -0.011094 0.052908
v 0.408933 -0.011094 0.052908
v -0.519694 -0.006759 0.056072
v 0.408933 -0.006759 0.056072
v -0.519694 -0.002251 0.057141
v 0.408933 -0.002251 0.057141
v -0.519694 0.002257 0.056072
v 0.408933 0.002257 0.056072
v -0.519694 0.006591 0.052908
v 0.408933 0.006591 0.052908
v -0.519694 0.010586 0.047769
v 0.408933 0.010586 0.047769
v -0.519694 0.014088 0.040853
v 0.408933 0.014088 0.040853
v -0.519694 0.016962 0.032427
v 0.408933 0.016962 0.032427
v -0.519694 0.019097 0.022813
v 0.408933 0.019097 0.022813
v -0.519694 0.020412 0.012381
v 0.408933 0.020412 0.012381
v -0.519694 0.020856 0.001532
v 0.408933 0.020856 0.001532
v -0.519694 0.020412 -0.009316
v 0.408933 0.020412 -0.009316
v -0.519694 0.019097 -0.019748
v 0.408933 0.019097 -0.019748
v -0.519694 0.016962 -0.029362
v 0.408933 0.016962 -0.029362
v -0.519694 0.014088 -0.037788
v 0.408933 0.014088 -0.037788
v -0.519694 0.010586 -0.044704
v 0.408933 0.010586 -0.044704
v -0.519694 0.006591 -0.049843
v 0.408933 0.006591 -0.049843
v -0.519694 0.002257 -0.053007
v 0.408933 0.002257 -0.053007
vn -0.0000 -0.0023 -0.0553
vn -0.0000 -0.0067 -0.0532
vn -0.0000 -0.0109 -0.0490
vn -0.0000 -0.0147 -0.0430
vn -0.0000 -0.0179 -0.0353
vn -0.0000 -0.0204 -0.0262
vn -0.0000 -0.0221 -0.0161
vn -0.0000 -0.0230 -0.0055
vn -0.0000 -0.0230 0.0055
vn -0.0000 -0.0221 0.0161
vn -0.0000 -0.0204 0.0262
vn -0.0000 -0.0179 0.0353
vn -0.0000 -0.0147 0.0430
vn -0.0000 -0.0109 0.0490
vn -0.0000 -0.0067 0.0532
vn -0.0000 -0.0023 0.0553
vn -0.0000 0.0023 0.0553
vn -0.0000 0.0067 0.0532
vn -0.0000 0.0109 0.0490
vn -0.0000 0.0147 0.0430
vn -0.0000 0.0179 0.0353
vn -0.0000 0.0204 0.0262
vn -0.0000 0.0221 0.0161
vn -0.0000 0.0230 0.0055
vn -0.0000 0.0230 -0.0055
vn -0.0000 0.0221 -0.0161
vn -0.0000 0.0204 -0.0262
vn -0.0000 0.0179 -0.0353
vn -0.0000 0.0147 -0.0430
vn -0.0000 0.0109 -0.0490
vn 0.4643 -0.0000 -0.0000
vn -0.0000 0.0067 -0.0532
vn -0.0000 0.0023 -0.0553
vn -0.4643 -0.0000 -0.0000
vt 1.000000 0.500000
vt 0.000000 0.500000
vt 0.750000 0.490000
vt 1.000000 1.000000
vt 0.250000 0.490000
vt 0.000000 1.000000
vt 0.968750 0.500000
vt 0.796822 0.485388
vt 0.968750 1.000000
vt 0.296822 0.485388
vt 0.937500 0.500000
vt 0.841844 0.471731
vt 0.937500 1.000000
vt 0.341844 0.471731
vt 0.906250 0.500000
vt 0.883337 0.449553
vt 0.906250 1.000000
vt 0.383337 0.449553
vt 0.875000 0.500000
vt 0.919706 0.419706
vt 0.875000 1.000000
vt 0.419706 0.419706
vt 0.843750 0.500000
vt 0.949553 0.383337
vt 0.843750 1.000000
vt 0.449553 0.383337
vt 0.812500 0.500000
vt 0.971731 0.341844
vt 0.812500 1.000000
vt 0.471731 0.341844
vt 0.781250 0.500000
vt 0.985388 0.296822
vt 0.781250 1.000000
vt 0.485388 0.296822
vt 0.750000 0.500000
vt 0.990000 0.250000
vt 0.750000 1.000000
vt 0.490000 0.250000
vt 0.718750 0.500000
vt 0.985388 0.203178
vt 0.718750 1.000000
vt 0.485388 0.203178
vt 0.687500 0.500000
vt 0.971731 0.158156
vt 0.687500 1.000000
vt 0.471731 0.158156
vt 0.656250 0.500000
vt 0.949553 0.116663
vt 0.656250 1.000000
vt 0.449553 0.116663
vt 0.625000 0.500000
vt 0.919706 0.080294
vt 0.625000 1.000000
vt 0.419706 0.080294
vt 0.593750 0.500000
vt 0.883337 0.050447
vt 0.593750 1.000000
vt 0.383337 0.050447
vt 0.562500 0.500000
vt 0.841844 0.028269
vt 0.562500 1.000000
vt 0.341844 0.028269
vt 0.531250 0.500000
vt 0.796822 0.014612
vt 0.531250 1.000000
vt 0.296822 0.014612
vt 0.500000 0.500000
vt 0.750000 0.010000
vt 0.500000 1.000000
vt 0.250000 0.010000
vt 0.468750 0.500000
vt 0.703178 0.014612
vt 0.468750 1.000000
vt 0.203178 0.014612
vt 0.437500 0.500000
vt 0.658156 0.028269
vt 0.437500 1.000000
vt 0.158156 0.028269
vt 0.406250 0.500000
vt 0.616663 0.050447
vt 0.406250 1.000000
vt 0.116663 0.050447
vt 0.375000 0.500000
vt 0.580294 0.080294
vt 0.375000 1.000000
vt 0.080294 0.080294
vt 0.343750 0.500000
vt 0.550447 0.116663
vt 0.343750 1.000000
vt 0.050447 0.116663
vt 0.312500 0.500000
vt 0.528269 0.158156
vt 0.312500 1.000000
vt 0.028269 0.158156
vt 0.281250 0.500000
vt 0.514612 0.203178
vt 0.281250 1.000000
vt 0.014612 0.203178
vt 0.250000 0.500000
vt 0.510000 0.250000
vt 0.250000 1.000000
vt 0.010000 0.250000
vt 0.218750 0.500000
vt 0.514612 0.296822
vt 0.218750 1.000000
vt 0.014612 0.296822
vt 0.187500 0.500000
vt 0.528269 0.341844
vt 0.187500 1.000000
vt 0.028269 0.341844
vt 0.156250 0.500000
vt 0.550447 0.383337
vt 0.156250 1.000000
vt 0.050447 0.383337
vt 0.125000 0.500000
vt 0.580294 0.419706
vt 0.125000 1.000000
vt 0.080294 0.419706
vt 0.093750 0.500000
vt 0.616663 0.449553
vt 0.093750 1.000000
vt 0.116663 0.449553
vt 0.062500 0.500000
vt 0.658156 0.471731
vt 0.158156 0.471731
vt 0.062500 1.000000
vt 0.031250 0.500000
vt 0.703178 0.485388
vt 0.203178 0.485388
vt 0.031250 1.000000
s 0
usemtl Shaft
f 1/1/1 2/4/1 4/9/1 3/7/1
f 3/7/2 4/9/2 6/13/2 5/11/2
f 5/11/3 6/13/3 8/17/3 7/15/3
f 7/15/4 8/17/4 10/21/4 9/19/4
f 9/19/5 10/21/5 12/25/5 11/23/5
f 11/23/6 12/25/6 14/29/6 13/27/6
f 13/27/7 14/29/7 16/33/7 15/31/7
f 15/31/8 16/33/8 18/37/8 17/35/8
f 17/35/9 18/37/9 20/41/9 19/39/9
f 19/39/10 20/41/10 22/45/10 21/43/10
f 21/43/11 22/45/11 24/49/11 23/47/11
f 23/47/12 24/49/12 26/53/12 25/51/12
f 25/51/13 26/53/13 28/57/13 27/55/13
f 27/55/14 28/57/14 30/61/14 29/59/14
f 29/59/15 30/61/15 32/65/15 31/63/15
f 31/63/16 32/65/16 34/69/16 33/67/16
f 33/67/17 34/69/17 36/73/17 35/71/17
f 35/71/18 36/73/18 38/77/18 37/75/18
f 37/75/19 38/77/19 40/81/19 39/79/19
f 39/79/20 40/81/20 42/85/20 41/83/20
f 41/83/21 42/85/21 44/89/21 43/87/21
f 43/87/22 44/89/22 46/93/22 45/91/22
f 45/91/23 46/93/23 48/97/23 47/95/23
f 47/95/24 48/97/24 50/101/24 49/99/24
f 49/99/25 50/101/25 52/105/25 51/103/25
f 51/103/26 52/105/26 54/109/26 53/107/26
f 53/107/27 54/109/27 56/113/27 55/111/27
f 55/111/28 56/113/28 58/117/28 57/115/28
f 57/115/29 58/117/29 60/121/29 59/119/29
f 59/119/30 60/121/30 62/126/30 61/123/30
f 4/10/31 2/5/31 64/129/31 62/125/31 60/122/31 58/118/31 56/114/31 54/110/31 52/106/31 50/102/31 48/98/31 46/94/31 44/90/31 42/86/31 40/82/31 38/78/31 36/74/31 34/70/31 32/66/31 30/62/31 28/58/31 26/54/31 24/50/31 22/46/31 20/42/31 18/38/31 16/34/31 14/30/31 12/26/31 10/22/31 8/18/31 6/14/31
f 61/123/32 62/126/32 64/130/32 63/127/32
f 63/127/33 64/130/33 2/6/33 1/2/33
f 1/3/34 3/8/34 5/12/34 7/16/34 9/20/34 11/24/34 13/28/34 15/32/34 17/36/34 19/40/34 21/44/34 23/48/34 25/52/34 27/56/34 29/60/34 31/64/34 33/68/34 35/72/34 37/76/34 39/80/34 41/84/34 43/88/34 45/92/34 47/96/34 49/100/34 51/104/34 53/108/34 55/112/34 57/116/34 59/120/34 61/124/34 63/128/34
o Cube
v 0.228032 -0.034433 0.121067
v 0.228032 0.027036 0.121067
v 0.228032 -0.034433 -0.116032
v 0.228032 0.027036 -0.116032
v 0.589839 -0.034433 0.121067
v 0.589839 0.027036 0.121067
v 0.589839 -0.034433 -0.116032
v 0.589839 0.027036 -0.116032
vn -0.1809 -0.0000 -0.0000
vn -0.0000 -0.0000 -0.1185
vn 0.1809 -0.0000 -0.0000
vn -0.0000 -0.0000 0.1185
vn -0.0000 -0.0307 -0.0000
vn -0.0000 0.0307 -0.0000
vt 0.375000 0.000000
vt 0.375000 1.000000
vt 0.125000 0.750000
vt 0.625000 0.000000
vt 0.625000 1.000000
vt 0.875000 0.750000
vt 0.375000 0.250000
vt 0.125000 0.500000
vt 0.625000 0.250000
vt 0.875000 0.500000
vt 0.375000 0.750000
vt 0.625000 0.750000
vt 0.375000 0.500000
vt 0.625000 0.500000
s 0
usemtl Head
f 65/131/35 66/134/35 68/139/35 67/137/35
f 67/137/36 68/139/36 72/144/36 71/143/36
f 71/143/37 72/144/37 70/142/37 69/141/37
f 69/141/38 70/142/38 66/135/38 65/132/38
f 67/138/39 71/143/39 69/141/39 65/133/39
f 72/144/40 68/140/40 66/136/40 70/142/40
o Cube.001
v -0.663271 -0.034433 0.121067
v -0.663271 0.027036 0.121067
v -0.663271 -0.034433 -0.116032
v -0.663271 0.027036 -0.116032
v -0.518530 -0.034433 0.121067
v -0.518530 0.027036 0.121067
v -0.518530 -0.034433 -0.116032
v -0.518530 0.027036 -0.116032
vn -0.0724 -0.0000 -0.0000
vn -0.0000 -0.0000 -0.1185
vn 0.0724 -0.0000 -0.0000
vn -0.0000 -0.0000 0.1185
vn -0.0000 -0.0307 -0.0000
vn -0.0000 0.0307 -0.0000
vt 0.375000 0.000000
vt 0.375000 1.000000
vt 0.125000 0.750000
vt 0.625000 0.000000
vt 0.625000 1.000000
vt 0.875000 0.750000
vt 0.375000 0.250000
vt 0.125000 0.500000
vt 0.625000 0.250000
vt 0.875000 0.500000
vt 0.375000 0.750000
vt 0.625000 0.750000
vt 0.375000 0.500000
vt 0.625000 0.500000
s 0
usemtl Handle
f 73/145/41 74/148/41 76/153/41 75/151/41
f 75/151/42 76/153/42 80/158/42 79/157/42
f 79/157/43 80/158/43 78/156/43 77/155/43
f 77/155/44 78/156/44 74/149/44 73/146/44
f 75/152/45 79/157/45 77/155/45 73/147/45
f 80/158/46 76/154/46 74/150/46 78/156/46
