# Blender 3.1.0
# www.blender.org
mtllib Aquamarine.mtl
o Aquamarine
v 0.117454 0.088522 -0.012742
v -0.043602 -0.100109 0.009770
v -0.018204 -0.092500 0.045732
v -0.064448 0.034377 0.096553
v -0.082338 0.103429 0.053439
v -0.102008 0.098289 -0.001657
v 0.001122 0.162318 -0.043354
v 0.051713 0.163663 -0.034173
v 0.085288 0.146729 -0.016142
v 0.067350 0.079952 -0.099687
v 0.052686 -0.093976 -0.033648
v 0.107722 0.009982 0.027467
v 0.058395 -0.099325 0.022972
v 0.028437 -0.108979 0.036127
v 0.069024 0.076391 0.083797
v 0.055059 -0.065856 0.060278
v -0.083376 -0.046339 0.009636
v -0.105475 0.017021 0.019975
v -0.092272 0.036268 0.067104
v -0.074103 -0.012350 -0.047780
v -0.083696 0.069997 -0.049608
v -0.033167 0.065672 -0.108819
v -0.043526 0.111863 -0.097612
v -0.055682 0.121477 -0.050169
v 0.037568 -0.066034 -0.079999
v 0.024820 0.123787 -0.109371
v 0.019663 0.070311 -0.119874
v 0.099616 0.020864 -0.047988
v 0.077555 -0.045832 0.010646
v -0.004754 -0.021146 0.105480
v 0.005543 -0.073843 0.073070
v -0.025182 -0.087663 -0.052725
v 0.035976 -0.100353 -0.042080
v -0.034063 -0.103486 -0.025654
v 0.038247 -0.112857 -0.006709
v -0.014614 0.161950 0.030452
v -0.080517 0.143236 -0.004960
v 0.055970 0.136782 0.068196
v -0.029120 0.116917 0.088689
v 0.011727 0.095607 0.102306
vn -0.1525 -0.1129 -0.0303
vn -0.1761 -0.0127 -0.0760
vn -0.1824 -0.0225 -0.0564
vn -0.1784 0.0386 0.0601
vn -0.1421 -0.0859 -0.0968
vn -0.0524 -0.0659 -0.1728
vn -0.0451 0.1539 -0.1060
vn -0.1381 0.0739 -0.1114
vn 0.1140 0.1080 -0.1108
vn -0.0071 -0.1422 -0.1290
vn 0.1776 -0.0692 -0.0244
vn 0.1871 -0.0361 -0.0253
vn 0.1661 0.0064 -0.0964
vn -0.1264 -0.0913 0.1123
vn 0.0556 -0.1148 0.1437
vn -0.0815 -0.1025 0.1407
vn 0.0909 -0.1219 0.1175
vn -0.0163 -0.1629 -0.1006
vn -0.0068 -0.1812 -0.0636
vn -0.0468 -0.1729 0.0696
vn 0.0912 -0.1576 -0.0616
vn 0.0403 0.1822 0.0462
vn -0.0077 0.1528 0.1163
vn -0.0960 0.1390 0.0917
vn 0.0739 0.0592 0.1673
vn 0.0097 0.1162 0.1528
vn -0.0427 0.0358 0.1839
vn -0.0210 0.0081 0.1909
vn -0.1634 -0.0691 0.0740
vn -0.1860 0.0197 0.0441
vn -0.1541 -0.0861 -0.0759
vn -0.1755 -0.0516 -0.0589
vn -0.1271 -0.0937 0.1096
vn -0.0399 0.0380 -0.1841
vn -0.1341 0.0462 0.1297
vn -0.1069 -0.0597 -0.1481
vn -0.1463 -0.0026 -0.1246
vn -0.1610 0.0870 -0.0589
vn -0.1026 0.1522 -0.0571
vn -0.0328 -0.0571 -0.1806
vn -0.0274 -0.1899 0.0108
vn 0.0125 0.1675 -0.0933
vn 0.0800 -0.0393 -0.1703
vn 0.0693 0.0281 -0.1771
vn 0.1282 0.1023 -0.1001
vn -0.1461 -0.0198 -0.1233
vn -0.0831 0.1339 -0.1101
vn 0.1492 0.0770 -0.0936
vn 0.1313 -0.0447 -0.1330
vn 0.1012 -0.1232 -0.1073
vn 0.1763 -0.0743 -0.0182
vn 0.1706 -0.0831 -0.0303
vn 0.1759 -0.0492 0.0599
vn 0.1619 -0.0978 0.0340
vn 0.1510 -0.0734 -0.0935
vn 0.0559 -0.0883 0.1613
vn -0.0263 -0.1458 0.1224
vn -0.1048 -0.0913 0.1327
vn 0.1338 -0.0352 0.1334
vn 0.1661 0.0394 0.0883
vn 0.1313 -0.1379 -0.0263
vn 0.0707 -0.1758 0.0321
vn -0.0051 0.1921 -0.0001
vn -0.0478 0.1859 -0.0093
vn 0.0652 0.1755 0.0434
vn -0.0893 0.1447 0.0896
vn -0.1111 0.0613 0.1443
vn 0.0581 -0.0032 0.1832
vn -0.1524 0.0657 -0.0970
vn -0.1656 0.0829 0.0514
vn 0.0958 -0.0363 0.1626
vn 0.1566 0.0904 0.0651
vt 0.609942 0.585592
vt 0.380226 0.084707
vt 0.132719 0.671048
vt 0.200711 0.747524
vt 0.500000 0.000000
vt 0.404074 0.925531
vt 0.596235 0.011168
vt 0.595151 0.988250
vt 0.867997 0.729403
vt 0.625000 0.109760
vt 0.859893 0.640240
vt 0.608446 0.159790
vt 0.875000 0.580723
vt 0.617634 0.393392
vt 0.743296 0.512963
vt 0.610171 0.437500
vt 0.692788 0.538787
vt 0.625000 0.468750
vt 0.660208 0.570087
vt 0.551392 0.469932
vt 0.393844 0.543542
vt 0.586613 0.667169
vt 0.589460 0.677070
vt 0.404488 0.689855
vt 0.392186 0.794805
vt 0.324020 0.725603
vt 0.625000 0.812500
vt 0.708397 0.677992
vt 0.534103 0.762726
vt 0.718750 0.750000
vt 0.489772 0.106925
vt 0.549279 0.107254
vt 0.570756 0.045310
vt 0.507683 0.241348
vt 0.572695 0.277741
vt 0.875000 0.518105
vt 0.498277 0.370922
vt 0.539541 0.369131
vt 0.589202 0.330473
vt 0.426332 0.443529
vt 0.550536 0.428974
vt 0.499205 0.425658
vt 0.552628 0.534983
vt 0.506022 0.626414
vt 0.571197 0.897316
vt 0.773376 0.748415
vt 0.475948 0.861884
vt 0.194610 0.515804
vt 0.395155 0.310924
vt 0.314058 0.528653
vt 0.375000 0.448962
vt 0.377704 0.207667
vt 0.151144 0.569957
vt 0.317419 0.629452
vt 0.763673 0.575056
vt 0.625000 0.304554
vt 0.829570 0.557214
vt 0.713874 0.620454
vt 0.798889 0.645230
vt 0.762830 0.669080
s 0
usemtl Aquamarine
f 2/2/1 17/31/1 34/52/1
f 18/32/2 6/12/2 20/34/2
f 20/34/3 6/12/3 21/35/3
f 19/33/4 5/10/4 6/12/4
f 20/34/5 32/49/5 34/52/5
f 22/37/6 25/40/6 32/49/6
f 7/14/7 26/41/7 23/38/7
f 37/56/8 24/39/8 21/35/8
f 8/16/9 9/18/9 10/20/9
f 32/49/10 25/40/10 33/51/10
f 11/21/11 29/44/11 13/24/11
f 28/43/12 1/1/12 12/22/12
f 10/20/13 1/1/13 28/43/13
f 19/33/14 17/31/14 3/5/14 4/7/14
f 16/29/15 31/47/15 14/25/15
f 30/45/16 3/6/16 31/47/16
f 16/29/17 14/25/17 13/24/17
f 32/48/18 33/50/18 34/53/18
f 33/50/19 35/54/19 34/53/19
f 14/26/20 3/4/20 2/3/20
f 11/21/21 35/54/21 33/50/21
f 36/55/22 38/58/22 8/17/22
f 36/55/23 39/59/23 38/58/23
f 37/57/24 5/11/24 39/59/24
f 38/58/25 40/60/25 15/28/25
f 38/58/26 39/59/26 40/60/26
f 39/59/27 4/9/27 40/60/27
f 40/60/28 4/9/28 30/46/28
f 17/31/29 19/33/29 18/32/29
f 18/32/30 19/33/30 6/12/30
f 34/52/31 17/31/31 20/34/31
f 17/31/32 18/32/32 20/34/32
f 3/5/33 17/31/33 2/2/33
f 26/41/34 27/42/34 22/37/34 23/38/34
f 19/33/35 4/7/35 5/10/35
f 20/34/36 22/37/36 32/49/36
f 21/35/37 23/38/37 22/37/37
f 21/35/38 24/39/38 23/38/38
f 24/39/39 7/14/39 23/38/39
f 25/40/40 22/37/40 27/42/40
f 14/26/41 2/3/41 34/53/41 35/54/41
f 26/41/42 7/14/42 8/16/42
f 25/40/43 27/42/43 10/20/43
f 27/42/44 26/41/44 10/20/44
f 26/41/45 8/16/45 10/20/45
f 20/34/46 21/35/46 22/37/46
f 37/56/47 7/14/47 24/39/47
f 10/20/48 9/18/48 1/1/48
f 25/40/49 10/20/49 28/43/49
f 33/51/50 25/40/50 11/21/50
f 11/21/51 28/43/51 29/44/51
f 29/44/52 28/43/52 12/22/52
f 29/44/53 16/29/53 13/24/53
f 29/44/54 12/22/54 16/29/54
f 25/40/55 28/43/55 11/21/55
f 16/29/56 30/45/56 31/47/56
f 14/25/57 31/47/57 3/6/57
f 30/45/58 4/8/58 3/6/58
f 16/29/59 12/22/59 15/27/59
f 15/28/60 12/23/60 1/1/60 38/58/60
f 11/21/61 13/24/61 35/54/61
f 35/54/62 13/24/62 14/26/62
f 7/15/63 36/55/63 8/17/63
f 7/15/64 37/57/64 36/55/64
f 8/17/65 38/58/65 9/19/65
f 36/55/66 37/57/66 39/59/66
f 39/59/67 5/11/67 4/9/67
f 15/28/68 40/60/68 30/46/68
f 37/57/69 21/36/69 6/13/69
f 37/57/70 6/13/70 5/11/70
f 15/28/71 30/46/71 16/30/71
f 1/1/72 9/19/72 38/58/72
