# Blender 3.6.20
# www.blender.org
mtllib FallenBranch2.mtl
o Cube.001
v -0.049051 -0.048231 0.777432
v -0.143038 -0.052441 -0.662076
v -0.119764 -0.084211 -1.008781
v -0.118906 -0.068096 -1.009069
v -0.134944 -0.067272 -1.009709
v 0.010063 -0.047824 0.796261
v 0.138693 0.040677 0.341250
v 0.139378 0.048209 0.344210
v 0.132529 0.052724 0.334852
v 0.010814 0.086352 -0.389619
v 0.014598 0.099371 -0.375269
v -0.002112 0.100457 -0.367844
v 0.018740 0.006039 0.356604
v 0.065191 0.046885 0.370510
v 0.018086 -0.029267 -0.135845
v 0.050961 -0.029758 -0.132093
v 0.050680 0.004587 -0.152790
v 0.017653 0.003770 -0.149465
v -0.000218 -0.042787 -0.267986
v 0.032670 -0.000620 -0.294716
v 0.000501 -0.000297 -0.267612
v 0.037274 -0.038862 -0.263326
v 0.018583 -0.012488 -0.319550
v -0.009670 -0.011788 -0.296263
v 0.007611 0.000767 0.508316
v 0.045139 0.000330 0.521992
v 0.042263 0.037997 0.540639
v 0.010978 0.043057 0.491300
v -0.135851 -0.083285 -1.009425
v 0.077905 0.024526 0.381006
v 0.094069 0.026219 0.406523
v 0.088208 0.049952 0.369421
v 0.077913 0.050164 0.425783
v 0.015082 0.019583 -0.212929
v 0.032724 0.016816 -0.300538
v 0.010938 0.038890 -0.270664
v -0.006043 0.087979 -0.382756
v 0.044002 -0.002061 -0.272735
v 0.063702 0.045588 0.474844
v 0.027902 0.034611 -0.258066
v 0.036952 0.022232 -0.215251
v 0.044327 0.019703 -0.249384
v 0.056070 -0.013457 -0.158697
v 0.028763 -0.043809 -0.235535
v -0.004893 -0.025302 -0.262912
v 0.001261 0.021341 0.498770
v 0.037438 0.051152 0.489934
v 0.032908 0.010522 -0.154289
v 0.006296 0.011104 -0.221917
v 0.012470 -0.012909 -0.139067
v 0.034378 -0.035380 -0.131075
v 0.015986 -0.038776 -0.183438
v -0.020890 0.023044 0.793573
v 0.034383 0.051586 0.435217
v 0.011600 0.024179 0.364169
v -0.019586 -0.017558 0.794621
v 0.051089 0.019686 0.533224
v 0.030005 -0.004871 0.502064
v 0.036758 -0.000617 0.356177
v 0.027159 -0.001751 0.417785
v 0.058449 0.001355 0.435192
v -0.019592 -0.059622 0.785261
v 0.086864 0.035033 0.426802
v 0.080669 0.054392 0.393621
v 0.037403 0.049881 0.358079
v 0.062115 0.024809 0.361272
v -0.060114 -0.017795 0.776959
v 0.073418 0.035978 0.374357
v 0.058552 0.005100 0.392952
v 0.086361 0.021209 0.394036
v 0.134305 0.046491 0.328417
v 0.054935 0.004649 0.334306
v 0.054964 0.040510 0.327493
v 0.018880 0.046451 0.405149
v 0.032014 -0.025853 -0.300690
v 0.003652 -0.006036 -0.309247
v 0.014625 0.001613 -0.292834
v -0.141191 -0.087744 -0.656934
v -0.130871 -0.096397 -0.685230
v -0.107591 -0.071218 -0.694133
v -0.132641 -0.047565 -0.689630
v -0.147298 -0.069829 -0.653318
v -0.031337 -0.033101 0.723769
v -0.009870 -0.041191 0.728933
v 0.018271 -0.011521 0.743616
v 0.019925 -0.017337 0.799676
v -0.014746 0.016190 0.756971
v -0.040040 -0.011574 0.725548
v 0.011086 -0.033080 0.736971
v 0.007018 0.007696 0.763934
v -0.036468 0.007684 0.750192
v -0.147419 -0.089730 -0.733072
v -0.154281 -0.073367 -0.732464
v -0.127103 -0.088056 -0.998577
v -0.113495 -0.089130 -0.690291
v -0.115093 -0.075174 -0.998518
v -0.114835 -0.053736 -0.693929
v -0.127970 -0.063166 -0.999102
v -0.148633 -0.056580 -0.733385
v -0.139981 -0.076048 -0.999161
v 0.008347 0.011859 0.802093
v -0.050768 0.011014 0.783169
v 0.132672 0.039085 0.334029
v 0.006165 0.017291 -0.291152
v 0.018671 0.012553 -0.299419
v 0.020051 0.086033 -0.372082
v 0.003790 0.026573 -0.276976
v 0.003589 0.077854 -0.382502
v 0.007986 0.098029 -0.359830
v -0.007204 0.087837 -0.366335
v 0.003320 0.097104 -0.383946
v -0.127282 -0.075805 -1.015827
vn 0.8879 0.0840 -0.4523
vn -0.0842 0.9523 0.2932
vn 0.6312 0.7716 0.0792
vn 0.5161 -0.8565 0.0056
vn 0.1879 0.9641 -0.1875
vn 0.0339 0.9994 0.0060
vn -0.3281 0.9134 0.2409
vn -0.9847 0.1510 0.0872
vn -0.7731 0.6074 0.1827
vn 0.2988 0.9383 0.1741
vn -0.3944 -0.8976 0.1968
vn -0.1116 -0.9914 0.0684
vn 0.9622 -0.2661 -0.0573
vn 0.2262 -0.9739 0.0173
vn -0.4011 -0.9140 -0.0612
vn 0.2862 -0.9576 0.0326
vn -0.6739 0.6443 -0.3615
vn -0.0316 0.9763 -0.2140
vn 0.7808 0.5425 -0.3098
vn 0.9240 -0.0960 0.3700
vn 0.3000 0.8299 -0.4705
vn -0.2588 0.9654 -0.0315
vn -0.9324 -0.3053 0.1932
vn -0.9413 -0.3278 -0.0804
vn -0.6098 0.0205 -0.7923
vn 0.0631 0.6183 -0.7834
vn -0.0213 -0.5082 -0.8610
vn -0.2657 -0.2094 0.9410
vn -0.2741 0.0160 0.9616
vn 0.9701 -0.2089 -0.1235
vn 0.9914 0.0883 -0.0961
vn -0.9264 -0.3755 0.0261
vn -0.9582 0.2854 -0.0198
vn -0.9402 0.2469 0.2347
vn -0.2615 -0.9434 0.2038
vn 0.2693 0.9421 -0.1998
vn 0.3791 -0.9250 -0.0264
vn -0.3624 0.9316 0.0281
vn 0.8738 0.4857 0.0246
vn -0.5297 -0.8457 0.0654
vn -0.1251 -0.1310 0.9835
vn -0.8422 0.3598 -0.4016
vn -0.0003 -0.3328 -0.9430
vn 0.0294 -0.9640 -0.2644
vn 0.7150 0.4585 0.5278
vn 0.3151 0.9243 0.2153
vn 0.9841 0.1229 -0.1283
vn 0.8737 -0.1565 -0.4607
vn -0.8885 0.4122 0.2016
vn -0.6580 -0.6360 -0.4031
vn 0.8392 -0.3090 -0.4476
vn -0.2412 0.8018 0.5468
vn -0.9770 -0.2118 -0.0250
vn 0.9500 -0.2282 -0.2132
vn 0.6453 0.7594 0.0832
vn 0.4981 -0.8475 -0.1835
vn 0.2953 0.9344 0.1991
vn -0.0993 0.9784 0.1813
vn -0.7793 0.5932 0.2021
vn 0.3166 0.9251 0.2099
vn 0.6063 -0.7925 0.0660
vn 0.1493 -0.9862 0.0716
vn 0.1297 -0.9899 -0.0565
vn 0.9734 -0.0414 -0.2253
vn 0.2681 -0.9633 -0.0091
vn -0.3471 -0.9351 -0.0713
vn 0.8818 0.3299 0.3369
vn -0.2512 -0.9675 -0.0273
vn 0.3915 0.6278 -0.6728
vn -0.3466 0.2372 -0.9075
vn 0.9504 0.0350 -0.3091
vn 0.7096 -0.5182 -0.4774
vn 0.8169 0.5023 0.2835
vn -0.0418 0.9989 0.0208
vn 0.8813 -0.4086 0.2373
vn -0.9661 0.2198 0.1357
vn -0.9101 -0.3854 0.1525
vn -0.9726 0.2225 0.0678
vn 0.8357 -0.3569 -0.4173
vn -0.9384 -0.3363 -0.0792
vn -0.9193 0.3875 -0.0691
vn -0.9100 0.4101 -0.0612
vn 0.6538 -0.0483 -0.7552
vn -0.0067 -0.6458 -0.7635
vn -0.3609 -0.1675 0.9175
vn -0.3661 -0.0267 0.9302
vn -0.3555 -0.9322 0.0678
vn 0.9151 -0.3976 -0.0679
vn 0.9565 0.2913 -0.0173
vn -0.9338 0.3566 -0.0279
vn 0.3375 -0.9390 0.0659
vn 0.9475 -0.3195 0.0139
vn 0.9456 0.3235 -0.0338
vn 0.3445 0.9359 -0.0740
vn -0.3833 0.9211 -0.0688
vn -0.4602 0.8741 -0.1553
vn -0.9470 -0.3203 0.0242
vn -0.3101 0.9506 0.0152
vn 0.8433 0.1030 -0.5275
vn 0.0641 0.8864 -0.4584
vn 0.8624 0.3675 -0.3481
vn 0.4090 -0.9118 -0.0371
vn 0.8859 -0.3776 -0.2695
vn -0.8663 -0.3511 0.3553
vn -0.3700 0.9285 0.0317
vn -0.8859 0.3688 0.2815
vn 0.4260 -0.8794 -0.2127
vn -0.2487 -0.9479 0.1991
vn 0.2769 0.9395 -0.2018
vn -0.2590 -0.9039 -0.3404
vn 0.9520 -0.3004 -0.0588
vn -0.8686 -0.3209 -0.3776
vn -0.2971 -0.9334 -0.2011
vn -0.8294 0.4921 -0.2643
vn 0.3975 -0.9143 -0.0778
vn 0.9350 -0.3417 0.0951
vn 0.9174 0.3480 0.1933
vn 0.3483 0.9191 0.1844
vn -0.3314 0.9414 0.0631
vn -0.9284 0.3515 -0.1202
vn -0.9052 -0.3641 -0.2192
vn -0.9276 -0.3622 0.0918
vn -0.4582 0.8887 -0.0156
vn -0.9534 0.2947 0.0647
vn -0.3481 -0.9369 -0.0325
vn 0.3992 -0.9166 -0.0208
vn 0.9324 -0.3608 -0.0212
vn 0.9160 0.4002 -0.0289
vn 0.3613 0.9314 -0.0443
vn -0.3967 0.9164 -0.0536
vn -0.9300 0.3632 -0.0569
vn -0.9135 -0.4041 -0.0463
vn 0.3867 0.9156 -0.1100
vn -0.0383 -0.9257 -0.3763
vn 0.9264 -0.0560 -0.3723
vn 0.0629 0.9161 -0.3959
vn -0.9155 0.0447 -0.3999
vn 0.9250 0.3729 -0.0729
vn -0.1262 -0.0700 0.9895
vn -0.2955 0.9290 -0.2228
vn 0.3845 -0.9222 0.0410
vn -0.1391 0.9654 -0.2204
vn 0.8131 -0.3437 0.4699
vn -0.4570 -0.5324 -0.7125
vn -0.2538 0.9343 -0.2504
vn 0.1946 0.9702 0.1442
vn -0.5830 0.4267 -0.6914
vn -0.0610 -0.3925 -0.9177
vn -0.7490 -0.3434 -0.5666
vn 0.2050 -0.7487 -0.6304
vn 0.6303 -0.4992 -0.5946
vn 0.0039 0.9485 0.3169
vn -0.9790 0.0511 -0.1974
vn 0.5495 0.7561 0.3554
vn -0.5598 -0.6978 -0.4469
vn 0.9233 0.3833 0.0246
vn -0.8665 0.3583 0.3476
vn -0.1977 0.8158 0.5434
vn -0.9637 -0.2576 -0.0704
vn -0.3798 -0.3825 -0.8423
vn 0.8598 0.2444 -0.4484
vn 0.1257 0.9823 0.1392
vn -0.9281 0.3670 -0.0625
s 0
usemtl Bark
f 20//1 38//1 75//1
f 34//2 41//2 40//2
f 42//3 41//3 17//3
f 44//4 22//4 16//4
f 73//5 65//5 14//5
f 33//6 54//6 47//6
f 18//7 48//7 34//7
f 49//8 107//8 21//8
f 34//9 49//9 18//9
f 47//10 39//10 33//10
f 15//11 52//11 51//11
f 44//12 52//12 19//12
f 72//13 66//13 69//13
f 69//14 60//14 59//14
f 13//15 60//15 25//15
f 26//16 58//16 61//16
f 12//17 111//17 37//17
f 11//18 111//18 12//18
f 8//19 71//19 9//19
f 63//20 26//20 31//20
f 14//21 65//21 64//21
f 54//22 65//22 74//22
f 45//23 19//23 52//23
f 25//24 46//24 13//24
f 5//25 112//25 29//25
f 4//26 112//26 5//26
f 30//27 69//27 68//27
f 22//30 38//30 43//30
f 38//31 42//31 43//31
f 50//32 13//32 55//32
f 18//33 50//33 74//33
f 24//34 45//34 21//34
f 44//35 19//35 78//35
f 76//36 23//36 97//36
f 79//37 95//37 44//37
f 81//38 2//38 76//38
f 85//39 90//39 86//39
f 92//40 79//40 78//40
f 67//42 102//42 91//42
f 68//43 14//43 32//43
f 103//44 70//44 30//44
f 33//45 63//45 8//45
f 8//46 9//46 33//46
f 42//47 38//47 106//47
f 35//48 38//48 20//48
f 36//49 107//49 34//49
f 37//50 108//50 104//50
f 10//51 106//51 35//51
f 12//52 40//52 109//52
f 104//53 107//53 110//53
f 22//54 75//54 38//54
f 42//55 40//55 41//55
f 69//56 30//56 70//56 61//56
f 17//57 41//57 48//57
f 34//58 48//58 41//58
f 34//59 107//59 49//59
f 27//60 39//60 47//60
f 61//61 70//61 31//61 26//61
f 52//62 44//62 16//62 51//62
f 60//63 69//63 61//63 58//63
f 73//64 14//64 66//64
f 72//65 69//65 59//65
f 13//66 59//66 60//66
f 57//67 63//67 39//67 27//67
f 25//68 60//68 58//68
f 111//69 11//69 10//69
f 111//70 10//70 37//70
f 71//71 8//71 7//71
f 71//72 7//72 103//72
f 33//73 39//73 63//73
f 54//74 33//74 64//74 65//74
f 63//75 57//75 26//75
f 45//76 50//76 18//76 49//76
f 52//77 15//77 50//77 45//77
f 49//78 21//78 45//78
f 66//79 14//79 68//79 69//79
f 13//80 46//80 55//80
f 46//81 28//81 74//81
f 55//82 46//82 74//82
f 112//83 4//83 3//83
f 112//84 3//84 29//84
f 59//87 13//87 15//87 51//87
f 16//88 22//88 43//88
f 43//89 42//89 17//89
f 74//90 50//90 55//90
f 59//91 51//91 16//91 72//91
f 66//92 72//92 16//92 43//92
f 66//93 43//93 17//93 73//93
f 65//94 73//94 17//94 48//94
f 65//95 48//95 18//95 74//95
f 77//96 76//96 24//96 21//96
f 15//97 13//97 50//97
f 74//98 28//98 47//98 54//98
f 23//99 20//99 75//99
f 77//100 20//100 23//100 76//100
f 23//101 75//101 80//101 97//101
f 44//102 95//102 22//102
f 22//103 95//103 80//103 75//103
f 19//104 45//104 82//104 78//104
f 76//105 2//105 24//105
f 24//106 2//106 82//106 45//106
f 6//107 62//107 84//107 89//107
f 79//108 44//108 78//108
f 81//109 76//109 97//109
f 1//110 83//110 84//110 62//110
f 86//111 6//111 89//111 85//111
f 67//112 88//112 83//112 1//112
f 84//113 83//113 25//113 58//113
f 88//114 67//114 91//114
f 84//115 58//115 26//115 89//115
f 85//116 89//116 26//116 57//116
f 85//117 57//117 27//117 90//117
f 87//118 90//118 27//118 47//118
f 87//119 47//119 28//119 91//119
f 88//120 91//120 28//120 46//120
f 88//121 46//121 25//121 83//121
f 78//122 82//122 93//122 92//122
f 99//123 2//123 81//123
f 2//124 99//124 93//124 82//124
f 79//125 92//125 29//125 94//125
f 79//126 94//126 3//126 95//126
f 80//127 95//127 3//127 96//127
f 80//128 96//128 4//128 97//128
f 81//129 97//129 4//129 98//129
f 81//130 98//130 5//130 99//130
f 93//131 99//131 5//131 100//131
f 93//132 100//132 29//132 92//132
f 53//133 101//133 90//133 87//133
f 29//134 3//134 94//134
f 3//135 4//135 96//135
f 4//136 5//136 98//136
f 5//137 29//137 100//137
f 86//138 90//138 101//138
f 53//140 87//140 91//140 102//140
f 70//141 103//141 7//141 31//141
f 32//142 14//142 64//142
f 63//143 31//143 7//143 8//143
f 68//144 71//144 103//144 30//144
f 9//145 32//145 64//145
f 33//146 9//146 64//146
f 32//147 9//147 71//147 68//147
f 20//148 77//148 105//148 35//148
f 77//149 21//149 104//149 105//149
f 105//150 108//150 10//150 35//150
f 35//151 106//151 38//151
f 36//152 34//152 40//152
f 107//153 104//153 21//153
f 40//154 42//154 11//154 109//154
f 104//155 108//155 105//155
f 11//156 42//156 106//156
f 107//157 36//157 12//157 110//157
f 12//158 36//158 40//158
f 37//159 104//159 110//159
f 37//160 10//160 108//160
f 10//161 11//161 106//161
f 11//162 12//162 109//162
f 12//163 37//163 110//163
usemtl Wood
f 6//28 56//28 62//28
f 56//29 101//29 53//29
f 86//41 101//41 56//41
f 56//85 67//85 1//85 62//85
f 102//86 67//86 56//86 53//86
f 86//139 56//139 6//139
