# Blender 3.6.20
# www.blender.org
mtllib FallenBranch3.mtl
o Cube.003
v -0.108009 -0.080061 0.799208
v 0.083557 -0.020498 -0.510358
v 0.119119 -0.027778 -0.526808
v 0.126831 0.024270 -0.530504
v 0.093210 0.032832 -0.519771
v -0.398178 0.029826 0.102418
v 0.421563 -0.062084 -0.160388
v 0.421597 -0.065483 -0.146070
v 0.426639 -0.048906 -0.145224
v -0.073409 -0.058060 0.240202
v -0.007719 -0.059475 0.278252
v -0.023573 0.013731 0.283571
v -0.084084 0.011977 0.234330
v 0.164550 0.073089 -0.115773
v 0.101250 0.078086 -0.152251
v 0.123915 0.017422 -0.249170
v 0.177807 0.017306 -0.263082
v 0.110779 0.078082 -0.230846
v -0.116842 -0.078355 0.392490
v -0.028115 -0.077391 0.393739
v -0.026352 0.001824 0.391372
v -0.105171 0.002834 0.407426
v -0.166624 -0.055257 0.316492
v -0.127747 -0.054263 0.247944
v -0.133871 0.005532 0.237157
v 0.217443 -0.000610 -0.208021
v 0.206642 0.005209 -0.154330
v 0.221755 0.056725 -0.146821
v 0.191409 0.068687 -0.228021
v 0.138652 0.007883 -0.131827
v 0.087873 0.047591 -0.149347
v 0.168784 0.044454 -0.110638
v 0.143162 0.085031 -0.175041
v -0.384335 0.024386 0.090023
v 0.131309 0.086826 -0.238219
v -0.380521 0.048844 0.094729
v 0.155940 0.014581 -0.116990
v 0.104190 0.048788 -0.243809
v 0.110949 0.017565 -0.157318
v 0.161934 0.009337 -0.254225
v -0.394570 0.043969 0.112156
v 0.225062 0.027037 -0.144072
v -0.049435 0.036890 0.797983
v 0.222815 0.064351 -0.161788
v -0.040078 -0.044496 0.802512
v 0.186470 0.044408 -0.272237
v -0.050189 -0.130853 0.795237
v -0.128201 -0.032900 0.403946
v 0.227882 0.030819 -0.221900
v -0.153080 0.012978 0.299904
v -0.179276 -0.019232 0.308231
v -0.145430 0.018896 0.258726
v -0.139179 -0.022195 0.229433
v -0.147950 -0.066957 0.302649
v -0.075690 -0.080288 0.316548
v -0.013291 -0.038419 0.407200
v -0.054014 0.012684 0.374541
v -0.056748 0.021305 0.257170
v -0.081819 -0.013797 0.221477
v -0.109234 -0.028576 0.230925
v -0.030920 -0.072097 0.290156
v -0.120364 -0.046363 0.801099
v -0.001572 -0.029197 0.292775
v -0.188559 0.062298 -1.167939
v -0.173023 0.058816 -1.170552
v -0.186773 0.048322 -1.172214
v 0.134960 0.001024 -0.531036
v 0.075428 0.002748 -0.509827
v -0.208802 -0.005939 -0.987270
v -0.176183 -0.023054 -0.999207
v -0.159328 0.013786 -1.004630
v -0.191878 0.028592 -0.982449
v 0.012887 -0.109198 0.791904
v 0.005408 -0.003635 0.794960
v -0.099271 0.020063 0.799792
v 0.017633 -0.046284 0.791299
vn -0.1247 -0.9554 -0.2678
vn -0.1067 -0.9538 -0.2809
vn -0.1687 -0.9834 -0.0664
vn -0.4965 -0.8658 0.0621
vn -0.4063 0.9124 -0.0493
vn 0.0746 -0.9386 0.3369
vn 0.4561 0.7795 0.4294
vn 0.6901 0.5991 -0.4060
vn 0.6311 -0.4790 -0.6102
vn -0.8028 -0.5782 -0.1460
vn 0.2011 -0.8796 -0.4310
vn -0.0979 0.2796 -0.9551
vn 0.9554 -0.2870 -0.0704
vn 0.0111 -0.9602 -0.2792
vn 0.1485 -0.9874 -0.0545
vn -0.0037 -0.9942 0.1070
vn -0.6414 0.6335 0.4327
vn -0.8751 -0.2070 0.4374
vn 0.3032 0.9463 0.1123
vn -0.1010 0.9853 0.1380
vn 0.1701 0.9831 0.0682
vn -0.1371 0.8074 -0.5738
vn -0.0962 -0.4033 -0.9100
vn -0.1566 -0.4646 -0.8716
vn 0.1010 0.2490 -0.9632
vn 0.2932 0.9557 -0.0278
vn 0.2324 0.9663 0.1108
vn 0.4541 -0.8891 -0.0577
vn 0.0845 -0.0935 0.9920
vn 0.1044 0.0672 0.9923
vn 0.9286 0.3499 0.1233
vn 0.5137 0.2245 0.8281
vn -0.8180 -0.2973 0.4924
vn -0.4239 0.8984 -0.1149
vn -0.1274 -0.9548 -0.2686
vn -0.3135 -0.9487 0.0398
vn 0.0421 0.0968 0.9944
vn -0.2327 -0.9464 -0.2241
vn 0.4890 0.8543 -0.1759
vn 0.0822 -0.4253 -0.9013
vn 0.5966 -0.7283 -0.3370
vn 0.1898 -0.0299 0.9814
vn 0.6411 -0.4216 -0.6413
vn -0.8495 -0.5139 -0.1191
vn -0.2468 -0.9679 -0.0477
vn -0.1445 -0.9887 -0.0392
vn -0.0462 0.9949 0.0898
vn -0.7890 0.4699 0.3959
vn -0.8339 -0.3215 0.4486
vn -0.0315 0.9380 -0.3453
vn -0.2096 0.2102 -0.9549
vn -0.0086 -0.0763 0.9970
vn -0.0676 -0.5168 -0.8535
vn 0.2602 0.9637 -0.0603
vn -0.1349 0.9894 0.0534
vn -0.7370 0.5007 -0.4540
vn -0.5934 0.2403 -0.7682
vn -0.0027 0.0397 0.9992
vn 0.9418 -0.3230 0.0934
vn 0.8809 0.4674 0.0743
vn 0.3932 -0.4881 0.7792
vn 0.5369 0.1369 0.8325
vn -0.2764 -0.9490 0.1518
vn 0.8148 0.2963 -0.4983
vn 0.7555 -0.4468 -0.4791
vn 0.2524 0.9528 -0.1689
vn -0.7673 0.4485 0.4585
vn 0.4303 -0.9027 0.0053
vn 0.8171 0.3854 0.4287
vn -0.0887 -0.9708 -0.2227
vn -0.2285 0.9724 0.0467
vn 0.8764 -0.3796 0.2963
vn -0.8015 -0.4036 -0.4413
vn 0.0710 0.9814 0.1784
vn -0.8934 0.2432 -0.3778
vn 0.9288 0.2852 -0.2367
vn 0.4688 -0.8821 0.0465
vn -0.1563 -0.9744 0.1613
vn 0.8988 -0.4222 -0.1181
vn -0.8667 -0.4623 0.1873
vn 0.2671 0.9415 -0.2056
vn -0.9253 0.3790 0.0149
vn 0.2854 -0.9520 -0.1111
vn 0.9569 0.2814 -0.0714
vn -0.4902 -0.8710 -0.0324
vn -0.2697 0.9619 -0.0454
vn 0.9795 -0.1756 -0.0990
vn -0.9572 -0.2892 0.0144
vn 0.5333 0.8449 -0.0426
vn -0.9181 0.3962 0.0141
vn 0.5096 0.1141 -0.8528
vn -0.4141 -0.9068 0.0792
vn -0.0062 0.9838 0.1789
vn -0.6948 -0.1460 0.7042
vn 0.4155 -0.3391 -0.8440
vn -0.0949 -0.2225 0.9703
vn 0.3536 0.8681 -0.3484
vn -0.4645 0.5560 0.6893
vn 0.4692 0.4257 -0.7737
vn 0.4095 0.8008 0.4370
vn -0.9324 0.3344 -0.1369
vn -0.5266 -0.7968 -0.2965
vn 0.2436 0.9535 0.1776
vn 0.8819 -0.4314 -0.1899
vn -0.9864 -0.0827 -0.1418
vn 0.5090 0.8404 0.1861
vn -0.8996 0.4322 0.0624
vn 0.1906 -0.0049 0.9817
s 0
usemtl Bark
f 24//1 55//1 54//1
f 10//2 55//2 24//2
f 54//3 55//3 19//3
f 23//4 54//4 19//4
f 35//5 18//5 15//5
f 37//6 30//6 27//6
f 28//7 44//7 14//7
f 46//8 29//8 49//8
f 49//9 26//9 17//9
f 39//10 31//10 38//10
f 40//11 17//11 26//11
f 65//12 66//12 64//12
f 9//13 8//13 7//13
f 61//14 55//14 10//14
f 20//15 55//15 61//15
f 27//16 30//16 26//16
f 50//17 51//17 48//17
f 51//18 23//18 48//18
f 57//19 21//19 12//19
f 57//20 50//20 22//20
f 12//21 58//21 57//21
f 25//22 52//22 13//22
f 60//23 59//23 10//23
f 24//24 60//24 10//24
f 60//25 53//25 25//25
f 29//26 35//26 33//26
f 33//27 14//27 44//27
f 61//28 11//28 20//28
f 21//31 56//31 63//31
f 14//32 32//32 28//32
f 68//33 69//33 2//33
f 35//34 5//34 18//34
f 54//35 34//35 24//35
f 26//36 8//36 27//36
f 42//37 9//37 28//37
f 26//38 7//38 8//38
f 44//39 9//39 29//39
f 49//40 7//40 26//40
f 70//41 66//41 65//41
f 46//43 49//43 17//43
f 16//44 39//44 38//44
f 39//45 16//45 40//45 30//45
f 26//46 30//46 40//46
f 52//47 50//47 57//47 58//47
f 22//48 50//48 48//48
f 48//49 23//49 19//49
f 13//50 52//50 58//50
f 60//51 25//51 13//51 59//51
f 24//53 53//53 60//53
f 29//54 33//54 44//54
f 33//55 35//55 15//55
f 41//56 36//56 6//56
f 36//57 34//57 6//57
f 20//59 11//59 63//59 56//59
f 12//60 21//60 63//60
f 27//61 42//61 32//61 37//61
f 28//62 32//62 42//62
f 70//63 3//63 2//63 69//63
f 4//64 67//64 71//64
f 71//65 67//65 3//65 70//65
f 71//66 72//66 5//66 4//66
f 72//67 69//67 68//67 5//67
f 37//68 11//68 61//68 30//68
f 32//69 14//69 12//69 63//69
f 30//70 61//70 10//70 39//70
f 33//71 15//71 13//71 58//71
f 32//72 63//72 11//72 37//72
f 39//73 10//73 59//73 31//73
f 14//74 33//74 58//74 12//74
f 31//75 59//75 13//75 15//75
f 4//76 29//76 46//76 67//76
f 17//77 40//77 3//77
f 2//78 3//78 40//78 16//78
f 67//79 46//79 17//79 3//79
f 68//80 2//80 16//80 38//80
f 4//81 5//81 35//81 29//81
f 68//82 38//82 18//82 5//82
f 55//83 20//83 73//83 47//83
f 21//84 74//84 76//84 56//84
f 1//85 19//85 55//85 47//85
f 57//86 22//86 75//86 43//86
f 73//87 20//87 56//87 76//87
f 48//88 19//88 1//88 62//88
f 74//89 21//89 57//89 43//89
f 75//90 22//90 48//90 62//90
f 36//91 25//91 53//91 34//91
f 6//92 34//92 54//92 23//92
f 41//93 50//93 52//93 36//93
f 6//94 23//94 51//94 41//94
f 53//95 24//95 34//95
f 8//96 9//96 42//96 27//96
f 52//97 25//97 36//97
f 51//98 50//98 41//98
f 9//99 7//99 49//99 29//99
f 44//100 28//100 9//100
f 15//101 18//101 38//101 31//101
f 70//102 69//102 66//102
f 72//103 65//103 64//103
f 71//104 70//104 65//104
f 69//105 64//105 66//105
f 72//106 71//106 65//106
f 69//107 72//107 64//107
usemtl Wood
f 73//29 45//29 47//29
f 45//30 74//30 43//30
f 76//42 74//42 45//42
f 45//52 62//52 1//52 47//52
f 75//58 62//58 45//58 43//58
f 76//108 45//108 73//108
