# Blender 3.1.0
# www.blender.org
mtllib Ruby.mtl
o Ruby
v -0.118508 0.072859 -0.047447
v -0.147114 0.011576 0.030278
v -0.063723 0.007619 0.119829
v 0.003572 -0.022032 0.129292
v 0.098598 0.094993 -0.038122
v 0.046756 0.109644 -0.083607
v -0.079600 0.109580 -0.047830
v 0.089868 -0.017903 -0.078162
v 0.029506 -0.010505 -0.129706
v -0.062242 0.021357 -0.122037
v 0.064615 -0.114714 0.017908
v 0.035332 -0.125210 0.021467
v -0.044435 -0.122971 -0.013910
v -0.121942 -0.069556 0.005246
v 0.044622 -0.020112 0.113860
v -0.088973 0.092087 0.042832
v -0.013183 0.054492 0.120509
v -0.025173 0.107474 0.063871
v 0.053952 0.066517 0.073213
v 0.056375 0.056181 -0.127925
v -0.045891 -0.023812 -0.112424
v 0.030396 -0.103385 -0.056895
v -0.098534 -0.048725 0.071065
v -0.133130 -0.027498 -0.044014
v 0.123504 0.044177 -0.012549
vn 0.0534 0.1278 0.1083
vn -0.0491 0.1667 0.0271
vn 0.0514 0.1627 0.0424
vn -0.0845 0.0893 0.1257
vn 0.0596 0.0317 0.1624
vn -0.1203 0.1276 0.0122
vn -0.1429 0.0992 0.0256
vn -0.0381 -0.1213 -0.1215
vn -0.0301 -0.0464 -0.1669
vn 0.0519 -0.1610 -0.0481
vn -0.1451 -0.0675 0.0730
vn -0.1344 0.0157 -0.1123
vn 0.1536 -0.0427 0.0741
vn -0.0661 0.1118 0.1186
vn -0.1174 0.0673 0.1123
vn -0.0174 0.0162 0.1742
vn 0.0890 0.0564 0.1407
vn -0.0381 0.1058 -0.1352
vn 0.0007 0.1758 0.0030
vn 0.1520 0.0189 -0.0864
vn 0.1108 0.0984 -0.0946
vn -0.0874 -0.0982 -0.1167
vn 0.1083 -0.0401 -0.1326
vn -0.0114 0.0093 -0.1752
vn -0.0125 -0.1083 -0.1380
vn 0.0904 -0.0925 -0.1191
vn 0.1228 -0.1033 -0.0718
vn 0.0165 -0.1684 -0.0479
vn 0.0533 -0.1133 0.1235
vn -0.0241 -0.1385 0.1057
vn -0.0515 -0.1288 0.1081
vn -0.0581 -0.0866 0.1416
vn -0.1281 -0.0232 0.1182
vn -0.0785 -0.1398 0.0722
vn -0.1687 0.0231 -0.0439
vn -0.0851 0.0889 -0.1256
vn -0.1019 -0.1196 -0.0789
vn -0.1683 -0.0507 -0.0050
vn 0.1245 0.0989 0.0752
vn 0.1382 0.0336 0.1034
vn 0.1621 -0.0644 -0.0222
vt 0.375000 0.125000
vt 0.224223 0.584308
vt 0.375000 0.028568
vt 0.375000 0.955468
vt 0.171251 0.721432
vt 0.478043 0.000000
vt 0.478043 1.000000
vt 0.562500 0.000000
vt 0.558595 0.978601
vt 0.595807 0.310288
vt 0.825489 0.506297
vt 0.500000 0.337894
vt 0.391703 0.266607
vt 0.162284 0.510805
vt 0.609940 0.499696
vt 0.620711 0.510467
vt 0.500000 0.513568
vt 0.401681 0.508403
vt 0.619347 0.781794
vt 0.665557 0.723479
vt 0.553774 0.789398
vt 0.436719 0.766314
vt 0.375000 0.850664
vt 0.274336 0.750000
vt 0.625000 0.010849
vt 0.625000 0.980785
vt 0.855785 0.740809
vt 0.437500 0.102852
vt 0.530471 0.062500
vt 0.500000 0.135117
vt 0.591861 0.133315
vt 0.875000 0.625000
vt 0.517384 0.437500
vt 0.437500 0.571570
vt 0.523419 0.643002
vt 0.437500 0.921179
vt 0.296641 0.687500
vt 0.625000 0.375000
vt 0.772161 0.534645
s 0
usemtl Ruby
f 17/29/1 19/31/1 18/30/1
f 16/28/2 18/30/2 7/13/2
f 6/12/3 18/30/3 19/31/3 5/10/3
f 3/6/4 17/29/4 16/28/4
f 4/8/5 15/25/5 17/29/5
f 16/28/6 7/13/6 1/1/6
f 2/3/7 16/28/7 1/1/7
f 22/35/8 13/22/8 21/34/8
f 9/17/9 21/34/9 10/18/9
f 11/20/10 12/21/10 22/35/10
f 14/23/11 23/36/11 2/4/11
f 10/18/12 24/37/12 1/2/12
f 25/39/13 15/27/13 11/20/13
f 16/28/14 17/29/14 18/30/14
f 2/3/15 3/6/15 16/28/15
f 3/6/16 4/8/16 17/29/16
f 17/29/17 15/25/17 19/31/17
f 20/33/18 10/18/18 7/13/18 6/12/18
f 18/30/19 6/12/19 7/13/19
f 20/33/20 5/10/20 25/38/20 8/15/20
f 6/12/21 5/10/21 20/33/21
f 24/37/22 10/18/22 21/34/22 13/22/22
f 20/33/23 8/16/23 9/17/23
f 20/33/24 9/17/24 10/18/24
f 9/17/25 22/35/25 21/34/25
f 8/16/26 22/35/26 9/17/26
f 8/16/27 11/20/27 22/35/27
f 22/35/28 12/21/28 13/22/28
f 15/26/29 4/9/29 12/21/29 11/19/29
f 23/36/30 13/22/30 4/9/30
f 13/22/31 12/21/31 4/9/31
f 23/36/32 4/9/32 3/7/32
f 23/36/33 3/7/33 2/4/33
f 14/23/34 13/22/34 23/36/34
f 1/2/35 24/37/35 2/5/35
f 7/14/36 10/18/36 1/2/36
f 24/37/37 13/22/37 14/24/37
f 24/37/38 14/24/38 2/5/38
f 25/39/39 5/11/39 19/32/39
f 25/39/40 19/32/40 15/27/40
f 8/16/41 25/39/41 11/20/41
