# Blender 3.1.0
# www.blender.org
mtllib IronArmour.mtl
o IronArmour
v -0.208036 0.242457 -0.302225
v -0.208092 -0.205168 -0.320282
v 0.208036 0.242457 -0.302225
v 0.208092 -0.205168 -0.320282
v -0.148523 0.116098 0.387266
v -0.148770 -0.133908 0.387577
v 0.148523 0.116098 0.387266
v 0.148770 -0.133908 0.387577
v -0.089585 0.070093 -0.519969
v -0.089585 -0.065453 -0.520597
v 0.089585 0.070093 -0.519969
v 0.089585 -0.065453 -0.520597
v -0.188669 -0.195099 -0.118049
v -0.165186 -0.160279 0.098923
v 0.188523 0.227050 -0.100742
v 0.164603 0.165195 0.103536
v 0.165186 -0.160279 0.098923
v 0.188669 -0.195099 -0.118049
v -0.164603 0.165195 0.103536
v -0.188523 0.227050 -0.100742
v -0.000000 0.193953 -0.420884
v -0.000000 -0.114558 0.442076
v 0.000000 -0.080665 0.515856
v 0.000000 0.119558 0.446719
v 0.000000 0.076301 0.515856
v -0.000000 -0.195099 -0.118049
v 0.000000 -0.164481 0.096470
v 0.000000 0.188799 0.100860
v -0.000000 0.246454 -0.100742
v -0.320250 0.200964 -0.371410
v -0.305130 0.183871 -0.399913
v -0.304857 -0.163292 -0.405672
v -0.315875 -0.176555 -0.378627
v 0.305130 0.183871 -0.399913
v 0.320250 0.200964 -0.371410
v 0.315875 -0.176555 -0.378627
v 0.304857 -0.163292 -0.405672
v -0.000000 -0.205168 -0.320282
v 0.000000 0.136726 0.389487
v -0.000000 0.252904 -0.302225
v 0.000000 -0.135402 0.389487
v -0.306834 0.173344 -0.413838
v -0.309247 0.142932 -0.432746
v -0.426186 0.159431 -0.327948
v -0.395671 0.187287 -0.332395
v -0.393422 -0.164769 -0.337234
v -0.425600 -0.139214 -0.332927
v -0.308919 -0.126916 -0.436813
v -0.306241 -0.155939 -0.417000
v 0.395671 0.187287 -0.332395
v 0.426186 0.159431 -0.327948
v 0.309247 0.142932 -0.432746
v 0.306834 0.173344 -0.413838
v 0.306241 -0.155939 -0.417000
v 0.308918 -0.126916 -0.436813
v 0.425600 -0.139214 -0.332927
v 0.393422 -0.164769 -0.337234
v 0.165562 0.115254 -0.501373
v 0.172693 0.087246 -0.519890
v -0.172693 0.087246 -0.519890
v -0.165562 0.115254 -0.501373
v -0.165852 -0.109732 -0.500065
v -0.172693 -0.082864 -0.520678
v 0.172693 -0.082864 -0.520678
v 0.165852 -0.109732 -0.500065
v 0.503402 0.066047 -0.098257
v 0.480970 0.068926 -0.061975
v 0.504521 -0.045967 -0.099019
v 0.482752 -0.048640 -0.063098
v -0.504521 -0.045967 -0.099019
v -0.482752 -0.048640 -0.063098
v -0.503402 0.066047 -0.098257
v -0.480970 0.068926 -0.061975
v -0.321480 0.162717 -0.147127
v -0.326537 0.132147 -0.106392
v -0.235911 0.095338 0.200029
v -0.220890 0.122083 0.180548
v -0.330484 -0.111870 -0.107452
v -0.321581 -0.140901 -0.156624
v -0.223614 -0.098895 0.183266
v -0.235911 -0.069552 0.200029
v 0.220890 0.122083 0.180548
v 0.235911 0.095338 0.200029
v 0.326537 0.132147 -0.106392
v 0.321480 0.162717 -0.147127
v 0.235911 -0.069552 0.200029
v 0.223614 -0.098895 0.183266
v 0.321581 -0.140901 -0.156624
v 0.330484 -0.111870 -0.107452
v -0.183702 0.054036 0.492317
v -0.140041 0.055702 0.515856
v -0.186456 0.099767 0.445625
v -0.208372 0.079482 0.456782
v -0.184347 -0.079440 0.493161
v -0.140040 -0.080665 0.515856
v -0.210579 -0.097743 0.457370
v -0.193002 -0.117875 0.440871
v 0.183702 0.054036 0.492317
v 0.140041 0.055702 0.515856
v 0.208372 0.079482 0.456782
v 0.186456 0.099767 0.445625
v 0.184347 -0.079440 0.493161
v 0.140041 -0.080665 0.515856
v 0.193002 -0.117875 0.440871
v 0.210579 -0.097743 0.457370
v 0.419056 0.063866 -0.043561
v 0.373293 0.057437 -0.055992
v 0.376501 -0.048186 -0.056595
v 0.422548 -0.043771 -0.045206
v -0.373293 0.057437 -0.055992
v -0.419056 0.063866 -0.043561
v -0.422548 -0.043771 -0.045206
v -0.376501 -0.048186 -0.056595
v -0.000000 0.115254 -0.501373
v 0.484628 -0.092590 -0.215973
v 0.483837 0.112739 -0.213103
v -0.484628 -0.092590 -0.215973
v -0.483837 0.112739 -0.213103
vn -0.0000 -0.2371 0.0519
vn -0.2285 -0.1673 0.1886
vn 0.0774 0.2182 0.1734
vn -0.0000 -0.1530 -0.3835
vn 0.3747 0.0010 0.0677
vn -0.2412 -0.0024 0.3851
vn 0.2119 -0.1939 0.0780
vn -0.0000 0.0005 -0.5000
vn -0.0645 0.2082 0.2283
vn -0.0230 0.1606 -0.3684
vn 0.2749 0.0014 0.3434
vn -0.2138 0.1643 0.2267
vn -0.1577 0.1666 0.2907
vn -0.0000 -0.1662 -0.3585
vn -0.1915 0.1941 0.1419
vn 0.1619 0.0011 -0.4518
vn 0.1581 0.1073 -0.3945
vn 0.0035 -0.1689 0.3529
vn -0.2380 0.1790 0.1005
vn 0.1577 -0.1268 -0.3687
vn -0.1516 -0.1710 0.2851
vn 0.2138 0.1643 0.2267
vn 0.2412 -0.0024 0.3851
vn -0.2749 0.0014 0.3434
vn 0.1915 0.1941 0.1419
vn 0.3513 0.0012 0.1852
vn 0.0445 0.2351 0.0598
vn 0.0598 0.1990 0.2638
vn 0.2720 -0.1639 0.0507
vn 0.0106 -0.2337 0.0985
vn 0.0062 -0.2271 0.1520
vn -0.0010 -0.1924 0.2954
vn -0.0000 -0.0000 0.5000
vn 0.0436 0.1375 0.4043
vn 0.0830 -0.0006 0.4878
vn -0.3747 0.0010 0.0677
vn -0.2117 0.0014 -0.4143
vn -0.1250 -0.2141 0.1456
vn 0.2117 0.0014 -0.4143
vn 0.1516 -0.1710 0.2851
vn -0.1619 0.0011 -0.4518
vn 0.1637 0.2026 0.1504
vn 0.0174 0.1165 -0.4356
vn -0.0830 -0.0006 0.4878
vn -0.0436 0.1375 0.4043
vn 0.2285 -0.1673 0.1886
vn 0.1577 0.1666 0.2907
vn 0.3690 0.0012 -0.1098
vn -0.2720 -0.1639 0.0507
vn -0.1577 -0.1268 -0.3687
vn -0.3690 0.0012 -0.1098
vn -0.0000 0.0717 -0.4769
vn -0.0000 -0.0819 -0.4696
vn -0.1885 0.0655 -0.4111
vn -0.1890 -0.0741 -0.4042
vn 0.1885 0.0655 -0.4111
vn 0.1890 -0.0741 -0.4042
vn -0.0905 0.0730 -0.4607
vn -0.0906 -0.0809 -0.4548
vn 0.0905 0.0730 -0.4607
vn 0.0906 -0.0809 -0.4548
vn 0.2940 0.0009 0.3145
vn 0.2183 -0.1734 0.1856
vn 0.2315 0.1681 0.1789
vn -0.2940 0.0009 0.3145
vn -0.2183 -0.1734 0.1856
vn -0.2315 0.1681 0.1789
vn -0.1581 0.1073 -0.3945
vn -0.3082 0.0938 0.2128
vn -0.3035 -0.0989 0.2144
vn 0.3082 0.0938 0.2128
vn 0.3035 -0.0989 0.2144
vn 0.1230 -0.1149 0.4069
vn -0.1230 -0.1149 0.4069
vn -0.1268 0.0959 0.4260
vn 0.1268 0.0959 0.4260
vn -0.1397 0.0005 0.4646
vn 0.1397 0.0005 0.4646
vn -0.3212 0.1157 0.1039
vn -0.3502 -0.0888 0.0308
vn 0.3212 0.1157 0.1039
vn 0.3502 -0.0888 0.0308
vn -0.0722 -0.0021 0.4908
vn 0.0533 -0.1178 0.4290
vn -0.0168 0.0881 0.4641
vn 0.0722 -0.0021 0.4908
vn 0.0168 0.0881 0.4641
vn -0.0533 -0.1178 0.4290
vn -0.3513 0.0012 0.1852
vn 0.0010 -0.1924 0.2954
vn -0.0062 -0.2271 0.1520
vn -0.0106 -0.2337 0.0985
vn -0.0598 0.1990 0.2638
vn -0.0445 0.2351 0.0598
vn -0.0035 -0.1689 0.3529
vn 0.0645 0.2082 0.2283
vn -0.0774 0.2182 0.1734
vn -0.0174 0.1165 -0.4356
vn 0.0230 0.1606 -0.3684
vn -0.3148 0.0010 -0.2770
vn 0.3148 0.0010 -0.2770
vn -0.1637 0.2026 0.1504
vn 0.2380 0.1790 0.1005
vn 0.1250 -0.2141 0.1456
vn -0.2119 -0.1939 0.0780
vt 0.674444 0.553504
vt 0.325556 0.553504
vt 0.674444 0.696496
vt 0.325556 0.696496
vt 0.825556 0.561832
vt 0.174444 0.561832
vt 0.825556 0.688168
vt 0.174444 0.688168
vt 0.528692 0.560623
vt 0.471308 0.560623
vt 0.528692 0.689377
vt 0.471308 0.689377
vt 0.275185 0.556280
vt 0.224815 0.559056
vt 0.724815 0.693720
vt 0.775185 0.690944
vt 0.224815 0.690944
vt 0.275185 0.693720
vt 0.775185 0.559056
vt 0.724815 0.556280
vt 0.612635 0.625000
vt 0.152411 0.625000
vt 0.437545 0.125000
vt 0.461404 0.125000
vt 0.560545 0.125000
vt 0.851200 0.625000
vt 0.538596 0.125000
vt 0.275185 0.625000
vt 0.224815 0.625000
vt 0.775185 0.625000
vt 0.724815 0.625000
vt 0.630669 0.525995
vt 0.585958 0.466396
vt 0.660178 0.525235
vt 0.586458 0.470300
vt 0.612635 0.531873
vt 0.387365 0.531873
vt 0.339320 0.526231
vt 0.367789 0.526965
vt 0.586458 0.779700
vt 0.612635 0.718127
vt 0.585958 0.783604
vt 0.660178 0.724765
vt 0.630669 0.724004
vt 0.367789 0.723035
vt 0.339320 0.723769
vt 0.387365 0.718127
vt 0.325556 0.625000
vt 0.825556 0.625000
vt 0.674444 0.625000
vt 0.174444 0.625000
vt 0.575784 0.486245
vt 0.574890 0.489381
vt 0.581237 0.473667
vt 0.604527 0.526550
vt 0.566810 0.489384
vt 0.576203 0.455473
vt 0.678731 0.512085
vt 0.583318 0.459843
vt 0.584562 0.455483
vt 0.586083 0.457341
vt 0.669792 0.516641
vt 0.329424 0.516790
vt 0.365209 0.518192
vt 0.320478 0.512036
vt 0.368566 0.515871
vt 0.327789 0.512486
vt 0.423678 0.455295
vt 0.433082 0.489432
vt 0.387365 0.530193
vt 0.409735 0.520268
vt 0.387365 0.531267
vt 0.394237 0.527383
vt 0.586061 0.792197
vt 0.669792 0.733359
vt 0.678731 0.737915
vt 0.583318 0.790157
vt 0.584562 0.794517
vt 0.576203 0.794527
vt 0.566810 0.760616
vt 0.581335 0.778368
vt 0.604527 0.723449
vt 0.575784 0.763755
vt 0.574890 0.760619
vt 0.396929 0.717814
vt 0.394237 0.722617
vt 0.433082 0.760568
vt 0.413860 0.717260
vt 0.409735 0.729732
vt 0.380038 0.729602
vt 0.327789 0.737514
vt 0.423678 0.794705
vt 0.370129 0.728801
vt 0.320478 0.737964
vt 0.329424 0.733210
vt 0.553331 0.707182
vt 0.544543 0.720137
vt 0.535954 0.726577
vt 0.535954 0.717846
vt 0.535954 0.523423
vt 0.535954 0.532154
vt 0.544543 0.529863
vt 0.553331 0.542818
vt 0.444944 0.543662
vt 0.463937 0.532154
vt 0.463937 0.523557
vt 0.457174 0.532154
vt 0.463936 0.717846
vt 0.463937 0.726443
vt 0.457174 0.717846
vt 0.444944 0.706338
vt 0.569891 0.794534
vt 0.684524 0.738272
vt 0.582942 0.807178
vt 0.584562 0.794517
vt 0.429774 0.794698
vt 0.327789 0.737514
vt 0.417101 0.807511
vt 0.315148 0.738292
vt 0.429774 0.455302
vt 0.327789 0.512486
vt 0.417101 0.442489
vt 0.315148 0.511708
vt 0.569891 0.455466
vt 0.684524 0.511728
vt 0.582942 0.442822
vt 0.584562 0.455483
vt 0.716965 0.513533
vt 0.724415 0.509272
vt 0.577326 0.398944
vt 0.716366 0.515952
vt 0.564364 0.398944
vt 0.567240 0.399983
vt 0.556753 0.324472
vt 0.796018 0.515780
vt 0.568341 0.328728
vt 0.567796 0.324472
vt 0.269919 0.508923
vt 0.432912 0.398944
vt 0.275836 0.509287
vt 0.283147 0.514113
vt 0.422673 0.398944
vt 0.283759 0.516283
vt 0.203030 0.513802
vt 0.198566 0.504530
vt 0.444113 0.324472
vt 0.796018 0.734219
vt 0.568341 0.921272
vt 0.567796 0.925528
vt 0.556753 0.925528
vt 0.567240 0.850017
vt 0.564364 0.851055
vt 0.716965 0.736467
vt 0.724415 0.740728
vt 0.577327 0.851055
vt 0.716366 0.734048
vt 0.444113 0.925528
vt 0.198566 0.745470
vt 0.203030 0.736198
vt 0.275836 0.740713
vt 0.283147 0.735887
vt 0.422673 0.851055
vt 0.283759 0.733717
vt 0.269919 0.741077
vt 0.432912 0.851055
vt 0.537076 0.239423
vt 0.538596 0.222971
vt 0.538596 0.207298
vt 0.851200 0.527059
vt 0.850235 0.525784
vt 0.560545 0.235063
vt 0.562613 0.262761
vt 0.563408 0.265271
vt 0.552094 0.263910
vt 0.458253 0.227194
vt 0.462896 0.239155
vt 0.461404 0.207298
vt 0.446268 0.263876
vt 0.446328 0.243175
vt 0.143584 0.510275
vt 0.437545 0.238989
vt 0.150804 0.523806
vt 0.152411 0.525593
vt 0.535908 0.016166
vt 0.538596 0.042702
vt 0.548142 0.000000
vt 0.552094 0.986090
vt 0.850235 0.724216
vt 0.560545 0.014937
vt 0.563408 0.984729
vt 0.851200 0.722941
vt 0.464931 0.016336
vt 0.461404 0.042702
vt 0.152411 0.724407
vt 0.150804 0.726194
vt 0.437545 0.011011
vt 0.446268 0.986124
vt 0.452596 0.000000
vt 0.143584 0.739725
vt 0.714534 0.740120
vt 0.579054 0.837558
vt 0.577327 0.851055
vt 0.554381 0.851055
vt 0.435420 0.851055
vt 0.285642 0.740109
vt 0.420923 0.837380
vt 0.422673 0.851055
vt 0.554381 0.398944
vt 0.714534 0.509880
vt 0.579054 0.412442
vt 0.577326 0.398944
vt 0.285642 0.509891
vt 0.420923 0.412620
vt 0.422673 0.398944
vt 0.435420 0.398944
vt 0.553331 0.625000
vt 0.327789 0.737514
vt 0.426726 0.794701
vt 0.573047 0.794531
vt 0.327789 0.512486
vt 0.426726 0.455298
vt 0.573047 0.455469
s 0
usemtl Iron
f 26/28/1 38/48/1 4/4/1 18/18/1
f 13/13/2 14/14/2 80/144/2 79/141/2
f 28/30/3 39/49/3 7/7/3 16/16/3
usemtl IronTrim
f 62/104/4 65/111/4 54/86/4 37/47/4 32/37/4 49/73/4
usemtl Iron
f 86/157/5 83/150/5 100/187/5 105/197/5
usemtl IronTrim
f 84/152/6 89/165/6 108/204/6 107/203/6
usemtl Iron
f 18/18/7 4/4/7 88/163/7
usemtl IronTrim
f 10/10/8 9/9/8 11/11/8 12/12/8
f 39/49/9 5/5/9 92/169/9 24/26/9
f 1/1/10 40/50/10 21/21/10 31/36/10 30/32/10
f 98/184/11 102/192/11 105/198/11 100/186/11
usemtl Iron
f 19/19/12 20/20/12 74/128/12 77/135/12
usemtl IronTrim
f 74/129/13 45/58/13 73/125/13 111/209/13
f 4/4/14 38/48/14 2/2/14 33/39/14 32/37/14 37/47/14 36/45/14
usemtl Iron
f 5/5/15 19/19/15 77/135/15 92/170/15
usemtl IronTrim
f 52/80/16 55/87/16 64/108/16 59/99/16
f 50/74/17 53/81/17 34/40/17 35/42/17
f 23/24/18 95/177/18 97/181/18 22/23/18
usemtl Iron
f 20/20/19 1/1/19 74/131/19
usemtl IronTrim
f 54/85/20 57/93/20 36/45/20 37/47/20
f 46/65/21 79/140/21 112/212/21 71/123/21
usemtl Iron
f 15/15/22 16/16/22 82/147/22 85/153/22
usemtl IronTrim
f 78/139/23 75/132/23 110/208/23 113/215/23
f 94/176/24 90/166/24 93/174/24 96/178/24
usemtl Iron
f 16/16/25 7/7/25 101/188/25 82/147/25
usemtl IronTrim
f 11/11/8 9/9/8 60/100/8 59/98/8
usemtl Iron
f 89/165/26 84/151/26 83/150/26 86/157/26
f 40/50/27 29/31/27 15/15/27 3/3/27
f 29/31/28 28/30/28 16/16/28 15/15/28
f 8/8/29 17/17/29 87/159/29 104/195/29
f 41/51/30 27/29/30 17/17/30 8/8/30
f 27/29/31 26/28/31 18/18/31 17/17/31
usemtl IronTrim
f 41/51/32 8/8/32 104/194/32 22/22/32
f 23/24/33 25/27/33 91/168/33 95/177/33
f 25/27/34 99/185/34 101/189/34 24/25/34
f 69/118/35 67/114/35 106/201/35 109/206/35
usemtl Iron
f 96/178/36 93/174/36 76/134/36 81/146/36
usemtl IronTrim
f 47/68/37 44/57/37 43/56/37 48/69/37
f 2/2/38 79/143/38 46/63/38 33/38/38
f 51/79/39 56/92/39 55/87/39 52/80/39
f 88/160/40 57/94/40 69/119/40 109/205/40
f 60/101/41 63/105/41 48/69/41 43/56/41
f 3/3/42 85/156/42 50/75/42 35/43/42
f 58/96/43 114/216/43 21/21/43 34/41/43 53/82/43
f 12/12/8 11/11/8 59/99/8 64/108/8
f 112/213/44 111/210/44 73/126/44 71/122/44
f 10/10/8 12/12/8 64/109/8 63/106/8
f 9/9/8 10/10/8 63/105/8 60/101/8
f 91/168/45 25/27/45 24/25/45 92/171/45
usemtl Iron
f 17/17/46 18/18/46 88/161/46 87/159/46
usemtl IronTrim
f 50/76/47 85/154/47 106/200/47 67/113/47
f 115/218/48 116/219/48 66/112/48 68/116/48
usemtl Iron
f 14/14/49 6/6/49 97/182/49 80/144/49
usemtl IronTrim
f 46/64/50 49/72/50 32/37/50 33/39/50
f 118/222/51 117/221/51 70/120/51 72/124/51
f 59/98/52 60/100/52 61/103/52 114/216/52 58/96/52
f 63/106/53 64/109/53 65/111/53 62/104/53
f 43/56/54 44/57/54 45/59/54 42/52/54
f 47/66/55 48/70/55 49/72/55 46/64/55
f 51/79/56 52/80/56 53/83/56 50/77/56
f 55/88/57 56/90/57 57/93/57 54/85/57
f 42/53/58 61/102/58 60/101/58 43/56/58
f 62/104/59 49/73/59 48/71/59 63/107/59
f 52/80/60 59/99/60 58/97/60 53/84/60
f 64/110/61 55/89/61 54/86/61 65/111/61
f 67/114/62 69/118/62 68/116/62 66/112/62
f 56/91/63 115/217/63 68/117/63 69/119/63 57/94/63
f 50/78/64 67/115/64 66/112/64 116/219/64 51/79/64
f 71/122/65 73/126/65 72/124/65 70/120/65
f 70/121/66 117/220/66 47/67/66 46/65/66 71/123/66
f 73/127/67 45/60/67 44/57/67 118/222/67 72/124/67
f 42/54/68 45/61/68 30/33/68 31/35/68
usemtl Iron
f 75/133/69 76/134/69 77/136/69 74/130/69
f 79/141/70 80/144/70 81/145/70 78/138/70
f 83/150/71 84/151/71 85/155/71 82/148/71
f 87/159/72 88/161/72 89/164/72 86/158/72
usemtl IronTrim
f 105/198/73 102/192/73 103/193/73 104/196/73
f 94/175/74 96/179/74 97/181/74 95/177/74
f 93/174/75 90/166/75 91/167/75 92/172/75
f 98/184/76 100/186/76 101/189/76 99/185/76
f 95/177/77 91/168/77 90/166/77 94/176/77
f 99/185/78 103/193/78 102/192/78 98/184/78
usemtl Iron
f 76/134/79 93/174/79 92/173/79 77/137/79
f 80/144/80 97/182/80 96/180/80 81/145/80
f 100/187/81 83/150/81 82/149/81 101/190/81
f 104/195/82 87/159/82 86/158/82 105/199/82
usemtl IronTrim
f 107/203/83 108/204/83 109/206/83 106/201/83
f 108/204/84 89/165/84 88/162/84 109/207/84
f 106/202/85 85/155/85 84/152/85 107/203/85
f 111/210/86 112/213/86 113/215/86 110/208/86
f 74/130/87 111/211/87 110/208/87 75/132/87
f 112/214/88 79/142/88 78/139/88 113/215/88
usemtl Iron
f 81/146/89 76/134/89 75/133/89 78/139/89
usemtl IronTrim
f 103/193/33 99/185/33 25/27/33 23/24/33
f 6/6/90 41/51/90 22/22/90 97/183/90
usemtl Iron
f 14/14/91 13/13/91 26/28/91 27/29/91
f 6/6/92 14/14/92 27/29/92 41/51/92
f 20/20/93 19/19/93 28/30/93 29/31/93
f 1/1/94 20/20/94 29/31/94 40/50/94
usemtl IronTrim
f 103/193/95 23/24/95 22/23/95 104/196/95
f 7/7/96 39/49/96 24/26/96 101/191/96
usemtl Iron
f 19/19/97 5/5/97 39/49/97 28/30/97
f 13/13/1 2/2/1 38/48/1 26/28/1
usemtl IronTrim
f 21/21/98 114/216/98 61/103/98 42/55/98 31/36/98
f 21/21/99 40/50/99 3/3/99 35/44/99 34/41/99
f 44/57/100 47/68/100 117/221/100 118/222/100
f 56/92/101 51/79/101 116/219/101 115/218/101
f 74/131/102 1/1/102 30/34/102 45/62/102
usemtl Iron
f 85/156/103 3/3/103 15/15/103
usemtl IronTrim
f 88/163/104 4/4/104 36/46/104 57/95/104
usemtl Iron
f 79/143/105 2/2/105 13/13/105
