# Blender 3.1.0
# www.blender.org
mtllib SunFernSeed.mtl
o Cube
v -0.300000 0.000000 0.300000
v -0.300000 0.600000 0.300000
v -0.300000 0.000000 -0.300000
v -0.300000 0.600000 -0.300000
v 0.300000 0.000000 0.300000
v 0.300000 0.600000 0.300000
v 0.300000 0.000000 -0.300000
v 0.300000 0.600000 -0.300000
vn -0.3000 -0.0000 -0.0000
vn -0.0000 -0.0000 -0.3000
vn 0.3000 -0.0000 -0.0000
vn -0.0000 -0.0000 0.3000
vn -0.0000 -0.3000 -0.0000
vn -0.0000 0.3000 -0.0000
vt 0.974996 0.795480
vt 0.797058 0.795480
vt 0.797058 0.973418
vt 0.974996 0.973418
vt 0.797058 0.973418
vt 0.797058 0.795480
vt 0.974996 0.795480
vt 0.797058 0.795480
vt 0.974996 0.973418
vt 0.797058 0.973418
vt 0.797058 0.795480
vt 0.974996 0.795480
vt 0.974996 0.973418
vt 0.797058 0.973418
vt 0.974996 0.973418
vt 0.974996 0.795480
vt 0.797058 0.795480
vt 0.974996 0.795480
vt 0.797058 0.973418
vt 0.974996 0.973418
s 0
usemtl Text
f 1/1/1 2/4/1 4/10/1 3/8/1
f 3/7/2 4/9/2 8/19/2 7/17/2
f 7/18/3 8/20/3 6/14/3 5/11/3
f 5/12/4 6/15/4 2/5/4 1/2/4
f 3/8/5 7/18/5 5/13/5 1/3/5
f 8/20/6 4/10/6 2/6/6 6/16/6
