# Blender 3.6.20
# www.blender.org
mtllib GroundItem.mtl
o TopazNecklaceChain
v -0.056829 0.014776 -0.069223
v -0.098928 0.014728 0.004866
v -0.053924 0.011268 -0.063810
v -0.093431 0.011191 0.007573
v -0.053004 0.004266 -0.064220
v -0.093431 0.004117 0.007573
v -0.054987 0.000772 -0.070042
v -0.098928 0.000579 0.004866
v -0.057892 0.004281 -0.075455
v -0.104424 0.004117 0.002160
v -0.058813 0.011283 -0.075045
v -0.104424 0.011191 0.002160
v -0.105978 0.009967 0.096660
v -0.112072 0.013504 0.096028
v -0.105978 0.002893 0.096660
v -0.112072 -0.000645 0.096028
v -0.118165 0.002893 0.095397
v -0.118165 0.009967 0.095397
v -0.094576 0.009331 0.254937
v -0.100515 0.012868 0.256438
v -0.094576 0.002257 0.254937
v -0.100515 -0.001281 0.256438
v -0.106455 0.002257 0.257939
v -0.106455 0.009331 0.257939
v -0.053805 0.002369 0.332313
v -0.059162 0.005906 0.335284
v -0.053805 -0.004705 0.332313
v -0.059162 -0.008242 0.335284
v -0.064520 -0.004705 0.338256
v -0.064520 0.002369 0.338256
v -0.013961 0.003537 0.376493
v -0.013961 0.007074 0.382620
v -0.013961 -0.003537 0.376493
v -0.013961 -0.007074 0.382620
v -0.013961 -0.003537 0.388746
v -0.013961 0.003537 0.388746
v -0.018336 0.014384 -0.086969
v -0.018167 0.010876 -0.080829
v -0.017160 0.003874 -0.080782
v -0.016323 0.000380 -0.086876
v -0.016492 0.003889 -0.093017
v -0.017498 0.010891 -0.093063
v 0.057272 0.014776 -0.069223
v 0.099371 0.014728 0.004866
v 0.054368 0.011268 -0.063810
v 0.093874 0.011191 0.007573
v 0.053447 0.004266 -0.064220
v 0.093874 0.004117 0.007573
v 0.055430 0.000772 -0.070042
v 0.099371 0.000579 0.004866
v 0.058335 0.004281 -0.075455
v 0.104867 0.004117 0.002160
v 0.059256 0.011283 -0.075045
v 0.104867 0.011191 0.002160
v 0.106421 0.009967 0.096660
v 0.112515 0.013504 0.096028
v 0.106421 0.002893 0.096660
v 0.112515 -0.000645 0.096028
v 0.118609 0.002893 0.095397
v 0.118609 0.009967 0.095397
v 0.095019 0.009331 0.254937
v 0.100958 0.012868 0.256438
v 0.095019 0.002257 0.254937
v 0.100958 -0.001281 0.256438
v 0.106898 0.002257 0.257939
v 0.106898 0.009331 0.257939
v 0.054248 0.002369 0.332313
v 0.059606 0.005906 0.335284
v 0.054248 -0.004705 0.332313
v 0.059606 -0.008242 0.335284
v 0.064963 -0.004705 0.338256
v 0.064963 0.002369 0.338256
v 0.014404 0.003537 0.376493
v 0.014404 0.007074 0.382620
v 0.014404 -0.003537 0.376493
v 0.014404 -0.007074 0.382620
v 0.014404 -0.003537 0.388746
v 0.014404 0.003537 0.388746
v 0.018779 0.014384 -0.086969
v 0.018610 0.010876 -0.080829
v 0.017604 0.003874 -0.080782
v 0.016766 0.000380 -0.086876
v 0.016935 0.003889 -0.093017
v 0.017941 0.010891 -0.093063
v -0.020789 -0.003695 0.381927
v -0.020789 0.003379 0.381927
v -0.019342 -0.003695 0.370526
v -0.020066 -0.007232 0.376227
v -0.020066 0.006916 0.376227
v -0.019342 0.003379 0.370526
v -0.056440 0.002526 -0.072749
v -0.101676 0.002348 0.003513
v -0.115119 0.001124 0.095713
v -0.103485 0.000488 0.257189
v -0.061841 -0.006474 0.336770
v -0.013961 -0.005306 0.385683
v -0.016407 0.002135 -0.089947
v 0.056883 0.002526 -0.072749
v 0.102119 0.002348 0.003513
v 0.115562 0.001124 0.095713
v 0.103928 0.000488 0.257189
v 0.062284 -0.006474 0.336770
v 0.014404 -0.005306 0.385683
v 0.016850 0.002135 -0.089946
v -0.020428 -0.005463 0.379077
v 0.021990 -0.003712 0.381171
v 0.021990 0.003362 0.381171
v 0.020382 -0.003712 0.369864
v 0.021186 -0.007250 0.375518
v 0.021186 0.006899 0.375518
v 0.020382 0.003362 0.369864
v 0.021588 -0.005481 0.378344
v -0.027081 0.002239 0.401235
v -0.027081 -0.002295 0.401235
v -0.033090 -0.002396 0.399771
v -0.033090 0.002137 0.399771
v -0.029295 0.002239 0.415074
v -0.029295 -0.002295 0.415074
v -0.035479 -0.002396 0.414956
v -0.035479 0.002137 0.414956
v -0.013384 0.002239 0.435598
v -0.013384 -0.002295 0.435598
v -0.017947 -0.002396 0.439772
v -0.017947 0.002137 0.439772
v -0.000613 0.002017 0.437882
v -0.000613 -0.002517 0.437882
v -0.000673 -0.002618 0.444066
v -0.000673 0.001916 0.444066
v 0.014637 0.002510 0.431468
v 0.014637 -0.002024 0.431468
v 0.018844 -0.002125 0.436002
v 0.018844 0.002409 0.436002
v 0.025336 0.001875 0.413290
v 0.025336 -0.002658 0.413290
v 0.031512 -0.002760 0.412948
v 0.031512 0.001774 0.412948
v 0.024914 0.002363 0.401763
v 0.024914 -0.002171 0.401763
v 0.029521 -0.002272 0.397637
v 0.029521 0.002262 0.397637
v -0.014120 -0.020429 0.417868
v 0.008409 0.020806 0.433452
v -0.003064 0.019409 0.435655
v -0.019803 0.019463 0.423019
v -0.029262 0.003041 0.404165
v -0.025268 0.019494 0.399927
v -0.015484 0.028589 0.408096
v -0.005775 0.016662 0.387631
v -0.003075 -0.002284 0.384030
v -0.005159 -0.017925 0.394876
v 0.005067 0.024679 0.396351
v 0.022903 0.015629 0.396475
v 0.024041 0.000313 0.400210
v 0.008722 -0.022402 0.406487
v 0.021068 0.019026 0.417286
v 0.004000 0.003503 0.437116
v -0.018445 0.003460 0.428616
v 0.013863 -0.016389 0.420909
v 0.021542 0.004953 0.424568
v -0.001831 -0.026718 0.412034
v 0.008240 0.028875 0.412129
vn 0.4610 0.8486 0.2594
vn 0.8723 0.0429 0.4871
vn 0.4761 -0.8363 0.2719
vn -0.4512 -0.8503 -0.2710
vn 0.5073 -0.8597 0.0606
vn -0.8586 -0.0413 -0.5111
vn -0.4740 0.8368 -0.2740
vn 0.2062 -0.8526 0.4801
vn 0.9974 -0.0000 -0.0719
vn -0.5068 0.8598 -0.0625
vn -0.5014 -0.8611 -0.0842
vn 0.9902 -0.0000 0.1395
vn -0.9893 -0.0000 -0.1458
vn 0.5016 0.8611 0.0832
vn 0.4731 0.8641 -0.1717
vn -0.9974 -0.0000 0.0719
vn 0.5042 -0.8626 -0.0398
vn 0.5047 0.8626 -0.0329
vn -0.5043 0.8626 0.0397
vn -0.5047 -0.8626 0.0330
vn -0.0219 -0.9976 0.0652
vn -0.4204 0.8580 0.2951
vn -0.4731 -0.8641 0.1719
vn 0.8847 -0.0000 -0.4662
vn -0.8864 -0.0000 0.4628
vn 0.4195 -0.8578 -0.2970
vn 0.4816 -0.7648 -0.4280
vn 0.4499 0.7783 -0.4380
vn -0.4624 0.7731 0.4342
vn -0.4372 -0.7834 0.4418
vn 0.7426 -0.0000 -0.6697
vn -0.2067 0.8526 -0.4800
vn -0.2076 -0.8596 -0.4669
vn 0.4247 0.0350 0.9047
vn -0.3952 -0.0306 -0.9181
vn 0.2251 0.8582 0.4613
vn -0.4610 0.8486 0.2594
vn -0.8723 0.0429 0.4871
vn -0.4761 -0.8363 0.2719
vn 0.4512 -0.8503 -0.2710
vn -0.5073 -0.8597 0.0606
vn 0.8586 -0.0413 -0.5111
vn 0.4740 0.8368 -0.2740
vn -0.2062 -0.8526 0.4801
vn -0.9974 -0.0000 -0.0719
vn 0.5068 0.8598 -0.0625
vn 0.5014 -0.8611 -0.0842
vn -0.9902 -0.0000 0.1395
vn 0.9893 -0.0000 -0.1458
vn -0.5016 0.8611 0.0832
vn -0.4731 0.8641 -0.1717
vn 0.9974 -0.0000 0.0719
vn -0.5042 -0.8626 -0.0398
vn -0.5047 0.8626 -0.0329
vn 0.5043 0.8626 0.0397
vn 0.5047 -0.8626 0.0330
vn -0.7780 -0.0000 0.6282
vn 0.4204 0.8580 0.2951
vn 0.4730 -0.8641 0.1719
vn -0.8847 -0.0000 -0.4662
vn 0.8864 -0.0000 0.4628
vn -0.4195 -0.8578 -0.2970
vn -0.4807 -0.7658 -0.4271
vn -0.4491 0.7792 -0.4373
vn 0.4616 0.7740 0.4334
vn 0.4365 -0.7842 0.4411
vn -0.7426 -0.0000 -0.6697
vn 0.2067 0.8526 -0.4800
vn 0.2076 -0.8596 -0.4669
vn -0.4247 0.0350 0.9047
vn 0.3952 -0.0306 -0.9181
vn -0.2251 0.8582 0.4613
vn -0.0000 0.8660 0.5000
vn -0.0000 0.8660 -0.5000
vn -0.0000 -0.0000 -1.0000
vn -0.0000 -0.0000 1.0000
vn -0.0000 -0.8660 -0.5000
vn -0.0000 -0.8660 0.5000
vn -0.0000 -0.8683 -0.4961
vn -0.0000 -0.0066 -1.0000
vn -0.0000 0.8676 -0.4973
vn -0.0000 -0.8676 0.4973
vn -0.0000 0.0066 1.0000
vn -0.0000 0.8683 0.4961
vn -0.3928 -0.8280 0.4000
vn -0.4127 0.8258 0.3843
vn 0.4009 0.8272 -0.3937
vn 0.4252 -0.8241 -0.3741
vn -0.7066 -0.0000 0.7076
vn -0.3880 -0.8285 0.4037
vn 0.2101 -0.8594 -0.4661
vn 0.4290 -0.7870 0.4434
vn 0.4730 -0.8641 0.1720
vn 0.5012 -0.8612 -0.0848
vn 0.4528 -0.8500 -0.2692
vn -0.2101 -0.8594 -0.4661
vn -0.4297 -0.7863 0.4440
vn -0.4730 -0.8641 0.1720
vn -0.5012 -0.8612 -0.0848
vn -0.4528 -0.8500 -0.2692
vn 0.3875 -0.8290 0.4032
vn 0.3922 -0.8286 0.3994
vn 0.4120 0.8265 0.3836
vn -0.4002 0.8278 -0.3931
vn -0.4244 -0.8249 -0.3734
vn 0.7066 -0.0000 0.7076
vn -0.9878 -0.0000 -0.1554
vn 0.6895 -0.0000 0.7243
vn -0.8233 -0.0000 -0.5676
vn -0.0481 0.9979 0.0433
vn -0.0147 0.9998 0.0109
vn 0.0162 -0.9999 0.0026
vn -0.0162 0.9999 -0.0026
vn 0.9874 -0.0000 0.1580
vn -0.2412 -0.0000 0.9705
vn 0.7903 -0.0000 -0.6127
vn -0.8167 -0.0000 0.5770
vn 0.0147 -0.9998 -0.0109
vn 0.0177 -0.9995 -0.0257
vn -0.0095 -0.9997 -0.0238
vn 0.0095 0.9997 0.0238
vn 0.1760 -0.0000 -0.9844
vn 0.0260 0.9995 -0.0161
vn -0.0177 0.9995 0.0257
vn -0.3877 -0.0000 -0.9218
vn 0.3819 -0.0000 0.9242
vn 0.9917 -0.0000 -0.1289
vn -0.8618 -0.0000 -0.5072
vn 0.8764 -0.0000 0.4816
vn -0.0260 -0.9995 0.0161
vn 0.0431 -0.9967 0.0685
vn -0.0326 -0.9989 -0.0334
vn 0.0326 0.9989 0.0334
vn -0.9993 -0.0000 0.0366
vn 0.0608 0.9974 0.0398
vn 0.9094 -0.0000 -0.4159
vn -0.9131 0.0634 0.4028
vn -0.6090 -0.3956 -0.6874
vn -0.6155 -0.0532 -0.7864
vn -0.6884 -0.6416 -0.3382
vn 0.5170 -0.1663 -0.8397
vn 0.2689 0.5189 -0.8115
vn 0.4217 -0.5540 -0.7178
vn 0.5803 0.0245 0.8141
vn 0.4583 -0.8665 0.1979
vn 0.0147 -0.6644 0.7472
vn -0.1603 0.8178 -0.5527
vn -0.7454 0.6427 0.1773
vn -0.0500 0.9406 0.3358
vn 0.5008 0.8108 0.3029
vn -0.3179 -0.4363 0.8418
vn 0.9932 0.0845 0.0803
vn 0.0065 -0.6297 0.7768
vn 0.1669 0.1634 0.9724
vn -0.8612 -0.3299 0.3866
vn -0.9331 0.2835 0.2212
vn -0.2478 0.7813 -0.5729
vn -0.5224 0.0868 -0.8482
vn 0.2948 0.2188 -0.9302
vn 0.4746 -0.5169 -0.7124
vn 0.7634 0.3169 0.5629
vn 0.8206 -0.5687 -0.0554
vn 0.9192 -0.3586 0.1626
vn 0.5666 -0.3331 0.7537
vn 0.1109 -0.8756 -0.4702
vn -0.4736 0.0692 0.8780
vn -0.5430 -0.7854 -0.2972
vn 0.0331 0.9642 -0.2630
vn -0.0714 0.9327 0.3535
vn -0.3186 0.8469 0.4257
vn 0.6254 0.7770 -0.0717
vn 0.4317 0.8464 -0.3119
vt 1.000000 0.500000
vt 1.000000 1.000000
vt 0.833333 1.000000
vt 0.833333 0.500000
vt 0.666667 1.000000
vt 0.666667 0.500000
vt 0.500000 1.000000
vt 0.500000 0.500000
vt 0.416667 0.500000
vt 0.416667 1.000000
vt 0.333333 1.000000
vt 0.333333 0.500000
vt 0.166667 1.000000
vt 0.166667 0.500000
vt -0.000000 1.000000
vt -0.000000 0.500000
vt 0.416667 1.000000
vt 0.416667 1.000000
vt 0.333333 1.000000
vt 0.416667 1.000000
vt 0.833333 1.000000
vt 0.416667 0.500000
vt 0.416667 0.500000
vt 0.500000 1.000000
vt 0.166667 1.000000
vt 0.500000 0.165644
vt 0.591212 0.200565
vt 0.498606 0.323259
vt 0.495624 0.532607
vt 0.378685 0.496709
vt 0.577621 0.355116
vt 0.397821 0.193937
vt 0.580446 0.694878
vt 0.492498 0.724810
vt 0.597295 0.514598
vt 0.655308 0.604634
vt 0.361077 0.514318
vt 0.334564 0.680408
vt 0.500000 0.880867
vt 0.599876 0.978369
vt 0.501538 1.000000
vt 0.223835 0.611158
vt 0.214826 0.745527
vt 0.131923 0.565296
vt 0.774007 0.546322
vt 0.875000 0.524578
vt 0.812500 0.500000
vt 0.875000 0.665159
vt 0.836047 0.724835
vt 0.730539 0.665180
vt 0.719526 0.750000
vt 0.501104 0.017605
vt 0.592462 0.840106
vt 0.375000 0.030019
vt 0.599876 0.000000
vt 0.594132 0.073807
vt 0.625000 0.375000
vt 0.625000 0.464346
vt 0.398785 0.897124
s 0
usemtl SilverGoldMix
f 1/1/1 2/2/1 4/3/1 3/4/1
f 3/4/2 4/3/2 6/5/2 5/6/2
f 5/6/3 6/5/3 8/7/3 7/8/3
f 91/9/4 92/10/4 10/11/4 9/12/4
f 8/7/5 6/5/5 15/5/5 16/7/5
f 9/12/6 10/11/6 12/13/6 11/14/6
f 11/14/7 12/13/7 2/15/7 1/16/7
f 5/6/8 7/8/8 40/8/8 39/6/8
f 15/5/9 13/3/9 19/3/9 21/5/9
f 2/15/10 12/13/10 18/13/10 14/15/10
f 92/10/11 8/7/11 16/7/11 93/17/11
f 6/5/12 4/3/12 13/3/12 15/5/12
f 12/13/13 10/11/13 17/11/13 18/13/13
f 4/3/14 2/2/14 14/2/14 13/3/14
f 19/3/15 20/2/15 26/2/15 25/3/15
f 18/13/16 17/11/16 23/11/16 24/13/16
f 16/7/17 15/5/17 21/5/17 22/7/17
f 13/3/18 14/2/18 20/2/18 19/3/18
f 14/15/19 18/13/19 24/13/19 20/15/19
f 93/17/20 16/7/20 22/7/20 94/18/20
f 85/19/21 35/11/21 114/11/21 115/19/21
f 20/15/22 24/13/22 30/13/22 26/15/22
f 94/18/23 22/7/23 28/7/23 95/20/23
f 21/5/24 19/3/24 25/3/24 27/5/24
f 24/13/25 23/11/25 29/11/25 30/13/25
f 22/7/26 21/5/26 27/5/26 28/7/26
f 88/7/27 87/5/27 33/5/27 34/7/27
f 90/21/28 89/2/28 32/2/28 31/3/28
f 89/15/29 86/13/29 36/13/29 32/15/29
f 105/18/30 88/7/30 34/7/30 96/18/30
f 87/5/31 90/21/31 31/3/31 33/5/31
f 11/14/32 1/16/32 37/16/32 42/14/32
f 91/9/33 9/12/33 41/12/33 97/22/33
f 3/4/34 5/6/34 39/6/34 38/4/34
f 9/12/35 11/14/35 42/14/35 41/12/35
f 1/1/36 3/4/36 38/4/36 37/1/36
f 43/1/37 45/4/37 46/3/37 44/2/37
f 45/4/38 47/6/38 48/5/38 46/3/38
f 47/6/39 49/8/39 50/7/39 48/5/39
f 98/23/40 51/12/40 52/11/40 99/18/40
f 50/7/41 58/7/41 57/5/41 48/5/41
f 51/12/42 53/14/42 54/13/42 52/11/42
f 53/14/43 43/16/43 44/15/43 54/13/43
f 47/6/44 81/6/44 82/8/44 49/8/44
f 57/5/45 63/5/45 61/3/45 55/3/45
f 44/15/46 56/15/46 60/13/46 54/13/46
f 99/18/47 100/18/47 58/7/47 50/7/47
f 48/5/48 57/5/48 55/3/48 46/3/48
f 54/13/49 60/13/49 59/11/49 52/11/49
f 46/3/50 55/3/50 56/2/50 44/2/50
f 61/3/51 67/3/51 68/2/51 62/2/51
f 60/13/52 66/13/52 65/11/52 59/11/52
f 58/7/53 64/7/53 63/5/53 57/5/53
f 55/3/54 61/3/54 62/2/54 56/2/54
f 56/15/55 62/15/55 66/13/55 60/13/55
f 100/18/56 101/10/56 64/7/56 58/7/56
f 77/11/57 138/11/57 137/13/57 78/13/57
f 62/15/58 68/15/58 72/13/58 66/13/58
f 101/10/59 102/18/59 70/7/59 64/7/59
f 63/5/60 69/5/60 67/3/60 61/3/60
f 66/13/61 72/13/61 71/11/61 65/11/61
f 64/7/62 70/7/62 69/5/62 63/5/62
f 109/24/63 76/7/63 75/5/63 108/5/63
f 111/3/64 73/3/64 74/2/64 110/2/64
f 110/15/65 74/15/65 78/13/65 107/25/65
f 112/10/66 103/10/66 76/7/66 109/24/66
f 108/5/67 75/5/67 73/3/67 111/3/67
f 53/14/68 84/14/68 79/16/68 43/16/68
f 98/23/69 104/9/69 83/12/69 51/12/69
f 45/4/70 80/4/70 81/6/70 47/6/70
f 51/12/71 83/12/71 84/14/71 53/14/71
f 43/1/72 79/1/72 80/4/72 45/4/72
f 36/13/73 78/13/73 74/15/73 32/15/73
f 32/15/74 74/15/74 73/3/74 31/3/74
f 31/3/75 73/3/75 75/5/75 33/5/75
f 35/11/76 77/11/76 78/13/76 36/13/76
f 33/5/77 75/5/77 76/7/77 34/7/77
f 96/18/78 103/10/78 77/11/78 35/11/78
f 97/22/79 104/9/79 82/8/79 40/8/79
f 42/14/80 84/14/80 83/12/80 41/12/80
f 37/16/81 79/16/81 84/14/81 42/14/81
f 40/8/82 82/8/82 81/6/82 39/6/82
f 39/6/83 81/6/83 80/4/83 38/4/83
f 38/4/84 80/4/84 79/1/84 37/16/84
f 27/5/31 25/3/31 90/21/31 87/5/31
f 95/20/85 28/7/85 88/7/85 105/18/85
f 26/15/86 30/13/86 86/13/86 89/15/86
f 25/3/87 26/2/87 89/2/87 90/21/87
f 28/7/88 27/5/88 87/5/88 88/7/88
f 30/13/89 29/11/89 85/19/89 86/13/89
f 29/11/90 95/20/90 105/18/90 85/19/90
f 41/12/79 83/12/79 104/9/79 97/22/79
f 34/7/78 76/7/78 103/10/78 96/18/78
f 49/8/91 82/8/91 104/9/91 98/23/91
f 106/11/92 77/11/92 103/10/92 112/10/92
f 65/11/93 71/11/93 102/18/93 101/10/93
f 59/11/56 65/11/56 101/10/56 100/18/56
f 52/11/94 59/11/94 100/18/94 99/18/94
f 49/8/95 98/23/95 99/18/95 50/7/95
f 7/8/96 91/9/96 97/22/96 40/8/96
f 85/19/97 105/18/97 96/18/97 35/11/97
f 23/11/98 94/18/98 95/20/98 29/11/98
f 17/11/20 93/17/20 94/18/20 23/11/20
f 10/11/99 92/10/99 93/17/99 17/11/99
f 7/8/100 8/7/100 92/10/100 91/9/100
f 71/11/101 106/11/101 112/10/101 102/18/101
f 69/5/67 108/5/67 111/3/67 67/3/67
f 102/18/102 112/10/102 109/24/102 70/7/102
f 68/15/103 110/15/103 107/25/103 72/13/103
f 67/3/104 111/3/104 110/2/104 68/2/104
f 70/7/105 109/24/105 108/5/105 69/5/105
f 72/13/106 107/25/106 106/11/106 71/11/106
f 116/13/107 115/19/107 119/19/107 120/13/107
f 35/11/108 36/13/108 113/13/108 114/11/108
f 86/13/109 85/19/109 115/19/109 116/13/109
f 36/13/110 86/13/110 116/13/110 113/13/110
f 117/13/111 120/13/111 124/13/111 121/13/111
f 115/19/112 114/11/112 118/11/112 119/19/112
f 113/13/113 116/13/113 120/13/113 117/13/113
f 114/11/114 113/13/114 117/13/114 118/11/114
f 124/13/115 123/19/115 127/19/115 128/13/115
f 118/11/116 117/13/116 121/13/116 122/11/116
f 120/13/117 119/19/117 123/19/117 124/13/117
f 119/19/118 118/11/118 122/11/118 123/19/118
f 127/19/119 126/11/119 130/11/119 131/19/119
f 123/19/120 122/11/120 126/11/120 127/19/120
f 121/13/121 124/13/121 128/13/121 125/13/121
f 122/11/122 121/13/122 125/13/122 126/11/122
f 129/13/123 132/13/123 136/13/123 133/13/123
f 125/13/124 128/13/124 132/13/124 129/13/124
f 126/11/125 125/13/125 129/13/125 130/11/125
f 128/13/126 127/19/126 131/19/126 132/13/126
f 136/13/127 135/19/127 139/19/127 140/13/127
f 130/11/128 129/13/128 133/13/128 134/11/128
f 132/13/129 131/19/129 135/19/129 136/13/129
f 131/19/130 130/11/130 134/11/130 135/19/130
f 77/11/131 106/11/131 139/19/131 138/11/131
f 135/19/132 134/11/132 138/11/132 139/19/132
f 133/13/133 136/13/133 140/13/133 137/13/133
f 134/11/134 133/13/134 137/13/134 138/11/134
f 107/25/135 78/13/135 137/13/135 140/13/135
f 107/25/136 140/13/136 139/19/136 106/11/136
usemtl Topaz
f 157/26/137 144/27/137 145/28/137
f 145/28/138 149/29/138 150/30/138
f 145/28/139 146/31/139 149/29/139
f 141/32/140 145/28/140 150/30/140
f 152/33/141 153/34/141 149/29/141
f 148/35/142 151/36/142 152/33/142
f 150/37/143 149/29/143 154/38/143
f 159/39/144 142/40/144 156/41/144
f 160/42/145 154/38/145 158/43/145
f 141/44/146 160/42/146 158/43/146
f 148/35/147 147/45/147 151/36/147
f 144/46/148 147/45/148 146/47/148
f 143/48/149 142/49/149 147/45/149
f 161/50/150 142/49/150 155/51/150
f 156/52/151 157/26/151 141/32/151
f 159/39/152 153/34/152 152/33/152 155/53/152
f 158/54/153 156/52/153 141/32/153
f 156/52/154 142/55/154 143/56/154
f 157/26/155 145/28/155 141/32/155
f 145/28/156 144/27/156 146/31/156
f 147/57/157 148/58/157 146/31/157
f 149/29/158 146/31/158 148/35/158
f 149/29/159 148/35/159 152/33/159
f 149/29/160 153/34/160 154/38/160
f 159/39/161 155/53/161 142/40/161
f 154/38/162 153/34/162 158/59/162
f 153/34/163 159/39/163 158/59/163
f 158/59/164 159/39/164 156/41/164
f 160/42/165 150/37/165 154/38/165
f 157/26/166 156/52/166 143/56/166 144/27/166
f 141/44/167 150/37/167 160/42/167
f 151/36/168 147/45/168 161/50/168
f 161/50/169 147/45/169 142/49/169
f 144/46/170 143/48/170 147/45/170
f 161/50/171 155/51/171 152/33/171
f 151/36/172 161/50/172 152/33/172
