# Blender 3.1.0
# www.blender.org
mtllib FireWand.mtl
o Cube
v -0.010639 -0.001639 0.016546
v -0.018036 -0.001253 -0.008710
v 0.007219 -0.000661 -0.016097
v 0.014615 -0.001047 0.009159
v 0.015056 0.550211 0.036422
v 0.007804 0.550615 0.038073
v 0.006516 0.554025 0.031577
v 0.013768 0.553621 0.029927
v 0.027193 0.667841 -0.028501
v 0.031906 0.667825 -0.018175
v 0.021965 0.670890 -0.013634
v 0.017252 0.670906 -0.023960
v -0.023841 0.143420 0.018575
v -0.030143 0.144536 -0.002674
v -0.008867 0.144595 -0.008981
v -0.002565 0.143479 0.012267
v -0.010452 0.575488 -0.016343
v 0.004832 0.574699 -0.023126
v 0.011639 0.575144 -0.007839
v -0.003645 0.575932 -0.001057
v 0.032885 0.668301 0.058093
v 0.029053 0.668762 0.059057
v 0.028207 0.669640 0.055271
v 0.032038 0.669179 0.054307
v -0.040280 0.712882 -0.023123
v -0.039523 0.712443 -0.027271
v -0.035609 0.713973 -0.026719
v -0.036366 0.714413 -0.022571
v 0.046476 0.835651 -0.033155
v 0.048471 0.835637 -0.028779
v 0.044136 0.836282 -0.026800
v 0.042140 0.836297 -0.031176
v 0.004908 0.343317 0.042036
v -0.000060 0.343317 0.041847
v 0.000109 0.345535 0.037401
v 0.005077 0.345535 0.037590
v -0.027421 0.444252 -0.028212
v -0.024366 0.444252 -0.031924
v -0.021613 0.447476 -0.029658
v -0.024668 0.447476 -0.025947
v -0.021680 0.654999 -0.011345
v -0.020327 0.654559 -0.019903
v -0.012638 0.658448 -0.018887
v -0.013992 0.658887 -0.010329
v -0.010636 0.410128 -0.008711
v -0.001931 0.410128 -0.019286
v 0.005986 0.416383 -0.014101
v -0.004044 0.416383 -0.002241
v 0.009998 0.302102 0.029731
v -0.004395 0.302102 0.029184
v -0.005362 0.308488 0.017154
v 0.010755 0.308488 0.019380
v -0.006512 0.607233 -0.016177
v 0.007720 0.605759 -0.022497
v 0.014012 0.605159 -0.008190
v -0.000220 0.606633 -0.001870
v 0.014181 0.516124 0.011000
v -0.000754 0.516124 0.013817
v -0.002509 0.526023 0.003450
v 0.013334 0.526023 -0.001703
v 0.019190 0.414299 -0.004030
v 0.007835 0.414299 0.009116
v -0.009113 0.488943 -0.004801
v 0.002875 0.488943 -0.018678
v 0.016735 0.489841 -0.006705
v 0.004747 0.489841 0.007172
v 0.012931 0.629781 -0.023551
v 0.018834 0.629781 -0.010635
v 0.004663 0.635872 -0.005648
v 0.002540 0.635872 -0.018532
v -0.002959 0.305672 0.000371
v 0.014882 0.305672 0.004276
v 0.000222 0.382995 -0.010532
v 0.017262 0.382995 -0.006803
v 0.013576 0.385646 0.010039
v -0.003464 0.385646 0.006309
v -0.005377 0.270829 0.025031
v -0.010788 0.272769 0.006603
v 0.007555 0.270607 0.000991
v 0.012965 0.268668 0.019419
v -0.009621 0.524116 -0.012460
v 0.007130 0.524116 -0.019949
v -0.008559 0.629384 -0.007474
v -0.006901 0.629384 -0.020325
v 0.002592 0.232522 -0.002023
v -0.004361 0.143797 0.006210
v -0.005427 0.143986 0.002616
v 0.002938 0.271151 0.002403
v 0.002853 0.097902 0.011287
v 0.001396 0.110158 0.011550
v 0.000211 0.214255 -0.003469
v 0.000622 0.252633 0.000910
v 0.001333 0.214355 0.000209
v -0.004264 0.163100 -0.000265
v -0.007453 0.044746 0.015002
v -0.005097 0.050578 0.014236
v -0.001897 0.331491 -0.003270
v -0.009222 0.283074 0.009647
v -0.009926 0.278439 0.008278
v 0.007705 0.382995 -0.008895
v -0.009775 0.272406 0.010052
v -0.008944 0.272108 0.012881
v -0.003381 0.306167 0.003321
v -0.011838 0.226244 0.022772
v -0.010675 0.234271 0.023179
v -0.004691 0.299557 0.005105
v -0.005385 0.213316 0.019661
v -0.008414 0.217588 0.020953
v 0.005107 0.359117 -0.005881
v -0.000053 0.321405 -0.001353
v -0.009841 0.256892 0.016340
v -0.010871 0.252276 0.014921
v 0.000972 0.385646 0.007280
v 0.003258 0.385646 0.007781
v -0.001345 0.500821 -0.016578
v -0.000442 0.498278 -0.017028
v 0.012269 0.349913 0.014365
v 0.011991 0.342306 0.015286
v -0.000010 0.394406 0.007167
v 0.001984 0.399461 0.007662
v -0.006397 0.450065 -0.003430
v -0.007331 0.463432 -0.003901
v -0.003428 0.488943 -0.011383
v -0.001579 0.488943 -0.013522
v -0.000017 0.415676 0.001609
v 0.002720 0.415196 0.004226
v 0.002268 0.510123 -0.018027
v 0.002735 0.394209 0.007766
v 0.012626 0.313626 0.012338
v 0.012036 0.343162 0.013831
v 0.012387 0.324470 0.012160
v -0.002046 0.496941 -0.014858
v -0.003893 0.436735 -0.001655
v -0.003160 0.443270 -0.000808
v 0.004326 0.367253 0.010699
v 0.006882 0.367350 0.011244
v -0.002681 0.480432 -0.010791
v -0.005024 0.481716 -0.008720
v 0.013688 0.489841 -0.003178
v 0.012077 0.489842 -0.001313
v 0.008448 0.524521 -0.016073
v -0.003177 0.606887 -0.017658
v -0.001071 0.606669 -0.018593
v 0.002451 0.574822 -0.022069
v 0.000102 0.574943 -0.021026
v 0.016317 0.494141 -0.003809
v 0.016055 0.496843 -0.001988
v 0.005578 0.558274 -0.022094
v 0.000214 0.617887 -0.021382
v -0.000428 0.618924 -0.021287
v 0.010336 0.462977 0.002664
v 0.011706 0.467081 0.000779
v 0.011947 0.510665 -0.008687
v -0.001103 0.594797 -0.019303
v -0.002836 0.592881 -0.018657
v 0.001919 0.625412 -0.021724
v 0.002377 0.564491 -0.021177
v -0.000261 0.613684 -0.020340
v -0.008464 0.639246 -0.008091
v -0.011708 0.649158 -0.009284
v -0.012699 0.643012 -0.009051
v -0.029591 0.682494 -0.023459
v -0.028867 0.680309 -0.023181
v -0.027488 0.684083 -0.023217
v -0.027595 0.675359 -0.019963
v -0.029117 0.680190 -0.021166
v -0.013110 0.658601 -0.015901
v -0.014639 0.663284 -0.019569
v -0.013687 0.660983 -0.019245
v -0.014834 0.663031 -0.017330
v -0.018020 0.662765 -0.020101
v -0.028169 0.694070 -0.018086
v -0.026773 0.690607 -0.017322
v -0.027481 0.693358 -0.020864
v -0.028307 0.685631 -0.016928
v 0.000978 0.544832 -0.000006
v 0.007798 0.561215 -0.004693
v -0.000220 0.556853 -0.000676
v -0.007205 0.575700 -0.009053
v -0.006053 0.575775 -0.006464
v -0.002622 0.585103 -0.001299
v -0.002948 0.582176 -0.001222
v 0.001022 0.586651 -0.002874
v -0.007510 0.572466 -0.009610
v -0.006020 0.583852 -0.008645
v 0.014837 0.541682 0.030061
v 0.014062 0.539109 0.023482
v 0.013861 0.548554 0.027617
v 0.012581 0.577172 0.042789
v 0.011047 0.568643 0.041275
v 0.013442 0.566138 0.040211
v 0.010914 0.572626 0.038779
v 0.021232 0.600833 0.039887
v 0.020264 0.594710 0.038596
v 0.021790 0.600425 0.042292
v 0.017983 0.600112 0.040419
v 0.024021 0.640783 0.054087
v 0.023504 0.637910 0.053577
v 0.026732 0.643737 0.054136
v 0.025442 0.638361 0.053257
v 0.022647 0.636594 0.051010
v 0.017319 0.629781 -0.013948
v 0.015971 0.629781 -0.016898
v 0.021446 0.637384 -0.012142
v 0.020542 0.634751 -0.011620
v 0.015767 0.626114 -0.015409
v 0.016947 0.633086 -0.017903
v 0.018535 0.638926 -0.011137
v 0.030357 0.695380 -0.029265
v 0.031471 0.705073 -0.029534
v 0.025091 0.700875 -0.026766
v 0.031135 0.690098 -0.026085
v 0.033263 0.708330 -0.026519
v 0.040709 0.757001 -0.023810
v 0.033850 0.745558 -0.020445
v 0.035735 0.753548 -0.021457
v 0.036763 0.800561 -0.029617
v 0.035980 0.795362 -0.029390
v 0.036153 0.793858 -0.027575
v 0.037885 0.803052 -0.028087
v 0.039248 0.797040 -0.030829
vn -1.0570 -0.5409 1.2641
vn 0.3146 -0.3559 1.6680
vn 0.9485 0.0029 -1.4520
vn 1.0569 0.0566 -1.3739
vn 1.6841 -0.1383 0.3904
vn -1.2973 -0.2627 -1.1207
vn 1.2322 -0.5973 1.0644
vn 1.2933 0.2951 1.1172
vn -0.8983 1.2862 -0.7394
vn -0.0294 1.5521 0.7733
vn -0.0653 -0.2261 1.7183
vn -0.7078 0.0284 -1.5831
vn 1.1342 -0.1842 -1.2991
vn 0.2138 1.7186 -0.0919
vn 0.6564 0.0670 1.6039
vn 1.6436 0.4094 0.3728
vn -1.3257 0.2764 1.0835
vn -1.1463 0.3287 1.2593
vn -0.3708 -0.0197 1.6941
vn -0.5892 1.6073 -0.2779
vn 0.4397 -0.4587 1.6137
vn 0.3554 -0.4956 -1.6236
vn -1.2940 -0.4463 -1.0651
vn -1.5989 -0.6229 -0.2519
vn 0.2840 1.6796 0.3260
vn 0.3704 0.0812 -1.6924
vn 0.0303 -1.7337 -0.0353
vn -1.6690 0.3297 -0.3373
vn -0.5246 -0.1863 -1.6426
vn -0.2626 0.8011 -1.5157
vn -0.2781 -0.0147 -1.7118
vn -1.6932 0.0776 0.3675
vn -1.6216 0.1565 0.5948
vn -1.5500 -0.4044 0.6647
vn 1.6724 0.3571 -0.2889
vn 1.7309 -0.1035 -0.0337
vn -0.7192 -0.3027 -1.5489
vn -1.7186 -0.0718 -0.2217
vn -1.0749 -1.0343 -0.8847
vn 0.9374 0.0895 -1.4564
vn 0.9390 1.2263 0.7890
vn -1.2340 0.0970 1.2148
vn -0.0631 -0.5030 1.6586
vn -1.7205 0.1481 0.1606
vn 0.1754 0.7953 -1.5312
vn 1.7155 0.1583 0.1994
vn -1.5583 0.2652 0.7136
vn -0.7122 0.0381 -1.5809
vn 0.7258 0.0280 1.5749
vn -1.6225 -0.5678 -0.2301
vn 1.5793 0.6837 0.2150
vn 1.5810 -0.1330 -0.7005
vn 0.7012 -0.0365 1.5858
vn -1.5756 0.1929 0.6988
vn 1.5436 -0.3686 -0.6995
vn -0.3670 0.2774 1.6722
vn 1.6733 -0.1756 -0.4208
vn 0.2575 -1.0293 1.3719
vn -1.6807 0.1316 0.4072
vn -0.3122 1.2734 -1.1353
vn 1.7288 0.0729 -0.1178
vn -1.3221 -0.1261 -1.1153
vn 1.0945 -0.0247 -1.3451
vn 1.3109 0.0827 1.1325
vn -1.1661 -0.0283 1.2835
vn 1.4671 -0.6370 -0.6705
vn 0.6592 0.0664 1.6028
vn -1.4923 0.7663 0.4401
vn -0.7156 0.0595 -1.5787
vn 0.3669 -0.2515 -1.6763
vn 1.6818 -0.0029 0.4236
vn -0.2953 0.2316 1.6932
vn -1.7156 0.0351 -0.2516
vn -1.6581 -0.1577 0.4834
vn -0.4900 0.0277 -1.6634
vn 1.6536 0.2068 -0.4805
vn -1.6464 0.2127 0.5021
vn -0.4874 0.1937 -1.6531
vn 1.6509 -0.1759 -0.5016
vn 0.4901 -0.1552 1.6564
vn -0.7064 -0.1309 -1.5785
vn 1.6146 0.0033 -0.6333
vn 0.5809 0.2052 1.6212
vn -1.5844 0.0276 0.7048
vn -0.6979 0.0951 -1.5849
vn 0.2056 0.1256 -1.7175
vn 1.3953 1.0276 -0.0712
vn -1.5215 -0.8087 -0.1974
vn 0.4895 0.0218 1.6637
vn -0.4833 0.1939 -1.6543
vn 1.6538 0.2069 -0.4797
vn 1.6516 -0.1757 -0.4991
vn 0.4864 0.0220 1.6646
vn -1.7059 0.0116 -0.3128
vn -1.6823 0.3700 -0.2026
vn -1.6741 0.3420 -0.2971
vn 0.4887 -0.1548 1.6568
vn -1.6458 0.2124 0.5041
vn -1.6457 0.2125 0.5043
vn -1.6580 0.1048 0.4978
vn 1.7340 0.0203 0.0287
vn -1.2973 -0.2628 -1.1207
vn -1.1792 -0.0303 1.2714
vn -1.1636 -0.0243 1.2858
vn -0.3482 0.2228 1.6843
vn -0.3235 0.2295 1.6884
vn -1.2443 -0.1569 -1.1979
vn -1.3110 -0.1302 -1.1279
vn 1.6702 0.2939 -0.3634
vn 1.6959 0.1481 -0.3314
vn 1.6403 0.0392 -0.5619
vn -0.6968 0.0957 -1.5853
vn -0.6949 0.0965 -1.5861
vn 1.2321 -0.5973 1.0644
vn -0.7071 -0.1312 -1.5782
vn 0.3630 -0.3593 1.6574
vn -1.6634 0.2219 0.4379
vn -0.3572 0.4045 -1.6482
vn 1.5672 -0.1999 -0.7155
vn -0.3375 0.2349 1.6849
vn -0.2894 0.1096 1.7065
vn 0.2874 -0.1218 -1.7060
vn -0.2864 0.1138 1.7067
vn -0.2882 0.1110 1.7066
vn 0.2880 -0.1216 -1.7059
vn -1.6215 -0.5687 -0.2352
vn 1.5793 0.6837 0.2147
vn 1.5794 0.6837 0.2146
vn 0.2872 -0.1218 -1.7060
vn 1.5791 0.6839 0.2156
vn -0.3345 0.2368 1.6852
vn 0.7060 0.1594 1.5761
vn 0.7041 0.1581 1.5771
vn 0.7006 -0.0361 1.5861
vn -1.5845 0.0277 0.7047
vn -1.5765 0.1943 0.6963
vn 1.7264 0.0952 -0.1357
vn 1.7081 0.1501 -0.2600
vn 0.3603 -0.3593 1.6580
vn -1.6628 0.2208 0.4407
vn 1.6738 -0.1764 -0.4184
vn -0.3591 0.4044 -1.6478
vn 0.3591 -0.3580 1.6586
vn -1.6625 0.2205 0.4421
vn 1.5408 -0.3717 -0.7042
vn 1.4671 -0.6370 -0.6706
vn 0.6161 0.1090 1.6176
vn -0.7109 0.0378 -1.5815
vn 1.5671 -0.1999 -0.7156
vn 0.7271 0.0278 1.5743
vn 0.7254 0.0284 1.5751
vn -1.6199 0.3105 0.5361
vn -0.7153 0.0387 -1.5795
s 0
usemtl Wood
f 63//1 66//1 58//1
f 66//2 57//2 58//2
f 74//3 46//3 47//3
f 74//4 47//4 61//4
f 75//5 74//5 61//5
f 81//6 115//6 132//6 123//6 63//6
f 65//7 146//7 139//7
f 62//8 75//8 61//8
f 40//9 39//9 38//9 37//9
f 36//10 35//10 34//10 33//10
f 50//11 77//11 49//11
f 82//12 64//12 116//12 127//12 115//12 81//12
f 82//13 65//13 64//13
f 32//14 31//14 30//14 29//14
f 69//15 56//15 55//15 68//15
f 72//16 52//16 49//16
f 45//17 76//17 48//17
f 76//18 119//18 125//18 48//18
f 76//19 113//19 119//19
f 28//20 27//20 26//20 25//20
f 77//21 80//21 49//21
f 73//22 46//22 74//22 100//22
f 73//23 45//23 46//23
f 73//24 76//24 45//24
f 24//25 23//25 22//25 21//25
f 79//26 71//26 72//26
f 1//27 2//27 3//27 4//27
f 51//28 103//28 106//28 98//28
f 71//29 79//29 88//29 78//29
f 84//30 70//30 67//30
f 54//31 149//31 156//31 150//31 84//31 67//31
f 51//32 98//32 102//32 77//32 50//32
f 81//33 63//33 58//33 59//33
f 83//34 53//34 56//34
f 82//35 146//35 65//35
f 79//36 72//36 49//36 80//36
f 53//37 84//37 150//37 142//37
f 53//38 83//38 84//38
f 46//39 45//39 37//39 38//39
f 47//40 46//40 38//40 39//40
f 48//41 47//41 39//41 40//41
f 45//42 48//42 40//42 37//42
f 50//43 49//43 33//43 34//43
f 51//44 50//44 34//44 35//44
f 52//45 51//45 35//45 36//45
f 49//46 52//46 36//46 33//46
f 32//47 217//47 220//47 219//47 218//47 12//47 11//47 31//47
f 12//48 218//48 221//48 217//48 32//48 29//48 210//48 211//48 209//48 9//48
f 31//49 11//49 215//49 216//49 214//49 30//49
f 42//50 41//50 25//50 26//50 162//50 166//50 165//50 163//50
f 28//51 172//51 174//51 173//51 44//51 167//51 170//51 168//51 27//51
f 54//52 55//52 19//52 18//52
f 55//53 56//53 181//53 183//53 182//53 20//53 19//53
f 56//54 53//54 17//54 179//54 185//54 181//54
f 55//55 54//55 67//55 203//55 206//55 202//55 68//55
f 69//56 83//56 56//56
f 21//57 5//57 8//57 194//57 195//57 193//57 24//57
f 58//58 57//58 186//58 5//58 6//58
f 59//59 58//59 6//59 7//59
f 60//60 59//60 7//60 8//60
f 57//61 60//61 187//61 186//61
f 47//62 48//62 121//62 137//62 124//62 64//62
f 61//63 47//63 64//63 65//63
f 62//64 61//64 65//64 139//64 152//64 151//64 140//64 66//64
f 48//65 125//65 133//65 121//65
f 68//66 202//66 205//66
f 69//67 68//67 205//67 208//67 204//67 10//67 11//67
f 70//68 69//68 11//68 12//68
f 67//69 70//69 12//69 9//69
f 72//70 71//70 110//70 109//70 100//70 74//70
f 52//71 72//71 74//71 75//71 117//71 130//71 131//71 129//71 118//71
f 51//72 52//72 118//72 135//72 113//72 76//72
usemtl Emission
f 71//73 103//73 97//73
usemtl Wood
f 2//74 1//74 13//74 14//74
f 3//75 2//75 14//75 15//75
f 4//76 3//76 15//76 87//76 89//76
f 14//77 13//77 104//77 112//77 101//77 78//77
f 15//78 14//78 78//78 88//78 92//78 91//78
f 16//79 86//79 93//79 85//79 79//79 80//79
f 13//80 16//80 80//80 77//80 105//80 107//80 108//80 104//80
f 82//81 81//81 17//81 145//81 157//81
f 60//82 141//82 148//82 18//82 19//82
f 59//83 60//83 19//83 177//83 176//83 178//83 20//83
f 81//84 59//84 20//84 180//84 184//84 179//84 17//84
f 53//85 142//85 155//85 145//85 17//85
f 70//86 84//86 42//86 43//86
f 69//87 70//87 43//87 167//87 44//87
f 41//88 42//88 84//88 83//88
f 1//89 4//89 89//89 96//89 95//89 90//89 16//89 13//89
usemtl Emission
f 91//90 92//90 88//90 85//90
usemtl Wood
f 85//90 88//90 79//90
usemtl Emission
f 89//91 87//91 86//91 90//91
usemtl Wood
f 90//91 86//91 16//91
usemtl Emission
f 85//92 93//92 86//92 87//92 94//92 91//92
usemtl Wood
f 91//92 94//92 87//92 15//92
usemtl Emission
f 90//93 95//93 96//93 89//93
usemtl Wood
f 97//94 103//94 51//94 76//94 73//94
usemtl Emission
f 98//95 106//95 103//95 71//95 99//95
usemtl Wood
f 99//96 71//96 78//96
usemtl Emission
f 104//97 108//97 107//97 105//97
f 100//70 109//70 110//70 71//70 97//70
usemtl Wood
f 97//70 73//70 100//70
usemtl Emission
f 101//98 112//98 104//98 105//98 111//98 102//98
usemtl Wood
f 102//99 111//99 105//99 77//99
usemtl Emission
f 102//100 98//100 99//100 101//100
usemtl Wood
f 101//100 99//100 78//100
usemtl Emission
f 115//12 127//12 116//12
f 119//19 113//19 114//19 128//19 120//19
usemtl Wood
f 120//19 128//19 114//19 75//19 62//19
usemtl Emission
f 118//101 129//101 131//101 130//101 117//101
f 123//102 132//102 115//102 116//102 124//102
usemtl Wood
f 124//102 116//102 64//102
usemtl Emission
f 121//103 133//103 125//103 126//103 134//103 122//103
usemtl Wood
f 122//104 134//104 126//104 62//104 66//104 63//104
usemtl Emission
f 113//105 135//105 118//105 117//105 136//105 114//105
usemtl Wood
f 114//106 136//106 117//106 75//106
usemtl Emission
f 124//107 137//107 121//107 122//107 138//107 123//107
usemtl Wood
f 123//108 138//108 122//108 63//108
usemtl Emission
f 125//18 119//18 120//18 126//18
usemtl Wood
f 126//18 120//18 62//18
usemtl Emission
f 140//64 151//64 152//64 139//64
f 146//109 82//109 141//109 153//109 147//109
usemtl Wood
f 147//110 153//110 141//110 60//110 57//110
usemtl Emission
f 148//111 141//111 82//111
f 145//112 155//112 142//112 143//112 154//112 144//112
usemtl Wood
f 144//113 154//113 143//113 54//113 18//113
usemtl Emission
f 139//114 146//114 147//114 140//114
usemtl Wood
f 140//114 147//114 57//114 66//114
usemtl Emission
f 150//31 156//31 149//31
f 157//115 145//115 144//115 148//115 82//115
usemtl Wood
f 148//115 144//115 18//115
usemtl Emission
f 142//37 150//37 149//37 158//37 143//37
usemtl Wood
f 143//37 158//37 149//37 54//37
f 21//116 22//116 197//116 199//116 200//116 198//116 189//116 191//116 190//116 6//116 5//116
f 6//117 190//117 192//117 189//117 198//117 201//117 197//117 22//117 23//117 7//117
f 23//118 24//118 193//118 196//118 194//118 8//118 7//118
f 10//119 9//119 209//119 212//119 213//119 210//119 29//119 30//119 214//119
f 44//120 173//120 175//120 172//120 28//120 25//120 41//120
f 69//121 159//121 161//121 41//121 83//121
f 42//122 163//122 164//122 162//122 26//122 27//122 168//122 171//122 169//122 43//122
f 41//123 161//123 160//123 159//123 69//123 44//123
usemtl Emission
f 160//124 161//124 159//124
f 162//125 164//125 163//125
f 163//126 165//126 166//126 162//126
f 168//127 170//127 167//127 169//127
usemtl Wood
f 169//128 167//128 43//128
usemtl Emission
f 169//129 171//129 168//129
f 173//130 174//130 172//130
f 172//131 175//131 173//131
usemtl Wood
f 20//132 178//132 177//132 19//132
usemtl Emission
f 178//133 176//133 177//133
f 182//134 183//134 181//134
f 179//135 184//135 180//135
f 181//136 185//136 179//136 180//136 182//136
usemtl Wood
f 182//136 180//136 20//136
f 186//137 188//137 187//137 60//137 8//137 5//137
usemtl Emission
f 188//138 186//138 187//138
f 190//139 191//139 189//139
f 189//140 192//140 190//140
f 193//141 195//141 194//141
f 194//142 196//142 193//142
f 198//143 200//143 199//143 197//143
f 197//144 201//144 198//144
f 202//145 206//145 203//145
f 205//66 202//66 203//66 207//66 204//66
usemtl Wood
f 204//146 207//146 203//146 67//146 9//146 10//146
usemtl Emission
f 204//147 208//147 205//147
f 209//148 211//148 210//148
f 210//149 213//149 212//149 209//149
usemtl Wood
f 214//150 215//150 11//150 10//150
usemtl Emission
f 214//151 216//151 215//151
f 218//152 219//152 220//152 217//152
f 217//153 221//153 218//153
