# Blender 3.1.0
# www.blender.org
mtllib LightningStaff.mtl
o Cube.002
v 0.010615 -0.000695 0.031615
v -0.031620 -0.000695 0.010601
v -0.010615 0.000695 -0.031615
v 0.031620 0.000695 -0.010601
v 0.005912 0.357761 0.041073
v -0.036324 0.358068 0.020064
v -0.015315 0.357930 -0.022173
v 0.026921 0.357624 -0.001164
v 0.015936 0.724248 0.031612
v -0.026309 0.723752 0.010624
v -0.005316 0.722857 -0.031612
v 0.036929 0.723353 -0.010624
v 0.004282 1.041494 0.019071
v -0.028646 1.041296 0.002724
v -0.012300 1.041473 -0.030204
v 0.020628 1.041671 -0.013857
v 0.016021 1.453297 0.024747
v -0.009903 1.461371 0.024710
v -0.010220 1.470763 0.007629
v 0.006799 1.473159 0.006866
v -0.002922 1.649318 0.106949
v -0.019216 1.649243 0.106985
v -0.019261 1.651230 0.090812
v -0.002967 1.651305 0.090776
v 0.005488 1.864572 0.063113
v -0.001126 1.864882 0.063119
v -0.001186 1.863714 0.056602
v 0.005428 1.863404 0.056596
v -0.003593 1.651002 -0.085578
v 0.011199 1.651968 -0.085105
v 0.010664 1.652907 -0.070313
v -0.004128 1.651941 -0.070787
v -0.023079 1.825415 -0.043382
v -0.018423 1.826032 -0.043210
v -0.018463 1.825046 -0.038615
v -0.023119 1.824430 -0.038788
v -0.087166 1.552056 -0.004688
v -0.086142 1.551660 -0.013432
v -0.077449 1.552734 -0.012462
v -0.078473 1.553130 -0.003719
v -0.043940 1.760549 -0.020878
v -0.043367 1.760090 -0.025837
v -0.038482 1.759168 -0.025187
v -0.039055 1.759627 -0.020228
v 0.069019 1.484890 0.024555
v 0.061621 1.485704 0.039928
v 0.046347 1.487448 0.032485
v 0.053745 1.486634 0.017112
v 0.045490 1.711778 -0.006174
v 0.041962 1.712565 0.001142
v 0.034631 1.711495 -0.002278
v 0.038158 1.710708 -0.009594
v 0.008692 1.479706 0.032771
v -0.010777 1.478650 0.032545
v -0.011004 1.486633 0.014756
v 0.008465 1.487688 0.014982
v -0.037559 1.351326 0.014193
v -0.027454 1.349257 -0.027454
v -0.046367 1.421944 0.014958
v -0.042288 1.421944 -0.024194
v -0.006701 1.438357 -0.020487
v -0.015008 1.430591 0.024501
v -0.055908 1.452334 0.010335
v -0.023517 1.465737 -0.018610
v -0.026848 1.465737 0.013362
v 0.011071 1.247213 0.034217
v -0.036211 1.248441 0.010759
v -0.014511 1.249040 -0.032949
v 0.034548 1.247861 -0.013068
v 0.046715 1.352297 -0.001744
v 0.026976 1.352297 0.038178
v 0.052389 1.386132 0.005016
v 0.035792 1.386132 0.038584
v 0.057106 1.414258 0.010635
v 0.043121 1.414258 0.038920
v 0.029388 1.450565 -0.004444
v 0.036644 1.438829 -0.001112
v 0.061293 1.439219 0.015621
v 0.049625 1.439219 0.039219
v 0.027351 1.447912 0.028206
v 0.039018 1.447912 0.004609
v -0.008667 1.464469 -0.022553
v 0.010673 1.464469 -0.021676
v 0.009846 1.470911 -0.003438
v -0.009494 1.470911 -0.004315
v 0.016573 1.432030 -0.014666
v 0.015968 1.424355 0.034585
v -0.034871 1.385601 -0.025824
v -0.019253 0.357944 0.028555
v -0.029776 0.358020 0.023321
v 0.007501 0.236657 0.037878
v 0.007030 0.272501 0.038824
v -0.031705 0.526731 0.015710
v -0.029852 0.594390 0.013963
v 0.023769 0.043396 0.005178
v 0.010680 0.236298 0.030522
v 0.022403 0.092185 0.007924
v -0.024581 0.459419 0.021906
v -0.020147 0.523441 0.021525
v -0.011782 0.457064 0.028097
v -0.024434 0.597730 0.003169
v -0.017086 0.678652 0.000767
v -0.020480 1.041345 0.006778
v -0.028425 1.011263 0.003472
v 0.035616 0.675357 -0.009383
v 0.036076 0.692163 -0.009818
v -0.007006 0.799935 -0.031271
v -0.007352 0.815744 -0.031201
v 0.025451 0.723219 -0.016327
v 0.030685 0.723280 -0.013727
v 0.021701 0.761788 -0.017599
v 0.016707 0.758349 -0.020132
v -0.005506 1.165837 0.021333
v -0.007307 1.115718 0.017572
v 0.027197 0.629921 0.006218
v 0.031832 0.649242 -0.002538
v -0.016977 0.842112 -0.012868
v -0.018822 0.971773 -0.014302
v -0.023246 0.972140 -0.005406
v -0.021753 0.836051 -0.003011
v 0.046508 1.352297 -0.001325
v 0.026441 1.127779 -0.013528
v 0.029203 1.168689 -0.013371
v 0.001964 1.041559 -0.023123
v 0.008269 1.041597 -0.019993
v 0.007444 1.385858 -0.010869
v -0.004023 1.385788 -0.014922
v 0.044544 1.333662 -0.003764
v 0.046824 1.352949 -0.001613
v 0.016052 1.247350 0.024186
v 0.020598 1.247476 0.015029
v 0.035625 1.351842 -0.005588
v 0.022767 1.226604 0.007729
v 0.020016 1.225695 0.018367
v 0.035410 1.309150 0.006573
v 0.032015 1.314677 0.015053
v 0.012075 1.379377 -0.011255
v 0.020307 1.378070 -0.009859
v 0.002369 0.991154 -0.023692
v 0.007146 1.010309 -0.021028
v 0.001908 1.094347 -0.023570
v 0.010976 1.088681 -0.019022
vn 0.1382 0.0353 -0.4027
vn 0.1412 -0.0607 -0.3986
vn -0.0330 0.4215 -0.0612
vn 0.0196 0.4200 -0.0755
vn -0.1194 -0.0193 0.4097
vn 0.0828 0.4181 -0.0291
vn -0.0581 0.4139 0.0882
vn -0.4159 -0.0666 -0.0713
vn 0.1475 0.0335 -0.3995
vn -0.3999 -0.0216 -0.1487
vn -0.0255 -0.1497 0.3993
vn -0.4267 -0.0199 -0.0033
vn -0.0237 0.1917 -0.3810
vn 0.4171 0.0774 -0.0500
vn 0.0033 -0.1708 0.3915
vn -0.4267 -0.0201 -0.0025
vn -0.0036 0.1792 -0.3878
vn 0.4263 0.0274 0.0046
vn 0.0016 0.0851 0.4186
vn -0.4256 0.0366 0.0033
vn -0.0015 -0.0678 -0.4218
vn 0.4268 -0.0173 -0.0026
vn 0.0056 0.1009 -0.4151
vn 0.4214 0.0688 0.0127
vn -0.0076 -0.0787 0.4198
vn -0.4247 -0.0444 -0.0127
vn 0.3777 -0.0637 0.1892
vn 0.0265 0.0450 -0.4240
vn -0.1896 -0.0219 0.3822
vn -0.2305 0.0358 0.3579
vn -0.1080 0.0630 0.4085
vn 0.1734 -0.0073 -0.3904
vn 0.3779 -0.0293 0.1971
vn 0.3631 0.2221 0.0367
vn -0.0617 0.0448 0.4203
vn -0.4158 0.0821 -0.0536
vn 0.0508 -0.0356 -0.4227
vn 0.4171 -0.0754 0.0533
vn -0.0508 0.0434 0.4219
vn -0.1755 0.0411 0.3873
vn 0.2287 0.0396 -0.3586
vn 0.2365 0.0645 -0.3499
vn 0.3725 -0.0992 0.1842
vn -0.3442 0.1853 -0.1723
vn 0.1971 0.0432 -0.3765
vn 0.3823 0.0639 0.1796
vn -0.1826 0.0498 0.3830
vn -0.3838 -0.0483 -0.1814
vn 0.1837 -0.0330 -0.3843
vn -0.1781 0.0418 0.3860
vn 0.0056 -0.4270 -0.0113
vn -0.3824 0.0049 -0.1904
vn 0.1901 -0.0151 -0.3823
vn 0.3825 -0.0055 0.1902
vn -0.1907 0.0150 0.3820
vn 0.3822 0.0215 0.1897
vn -0.1900 0.0081 0.3826
vn -0.3826 -0.0075 -0.1900
vn 0.1900 0.0058 -0.3826
vn -0.3826 -0.0066 -0.1900
vn 0.0199 -0.1369 -0.4042
vn 0.4269 0.0043 0.0166
vn -0.0200 0.1474 0.4005
vn -0.4267 0.0055 -0.0188
vn -0.4038 -0.1330 -0.0421
vn -0.1669 -0.0023 0.3933
vn 0.0325 0.0257 -0.4252
vn 0.1006 -0.0117 -0.4150
vn 0.2390 0.0304 -0.3528
vn 0.0830 -0.0740 -0.4125
vn 0.0193 -0.0322 -0.4255
vn -0.1124 -0.0409 -0.4101
vn -0.0595 0.4230 0.0016
vn 0.0041 0.4176 -0.0899
vn -0.1244 0.4087 -0.0025
vn -0.0417 0.3722 0.2054
vn -0.0034 0.4027 -0.1424
vn -0.1351 0.4050 -0.0141
vn 0.2991 0.2917 -0.0895
vn 0.2987 0.1030 -0.2876
vn 0.2818 -0.0180 -0.3206
vn 0.3002 0.2829 0.1110
vn 0.3611 0.2205 0.0587
vn 0.1602 0.3880 0.0792
vn 0.1052 0.4139 0.0094
vn -0.0205 0.1207 0.4093
vn -0.0576 0.1363 0.4008
vn 0.0420 0.1367 0.4025
vn -0.1287 0.0186 0.4069
vn -0.0632 0.0114 0.4223
vn 0.2321 0.0278 -0.3576
vn -0.1275 -0.0167 0.4074
vn -0.1372 -0.0289 0.4035
vn -0.1488 0.0340 0.3990
vn -0.3825 -0.0000 -0.1903
vn 0.3820 -0.0002 0.1912
vn 0.3879 0.0024 0.1789
vn -0.1903 -0.0126 0.3823
vn -0.1866 0.0152 0.3840
vn -0.1901 0.0151 0.3823
vn -0.3837 0.0185 -0.1869
vn 0.1900 0.0059 -0.3826
vn -0.1899 -0.0218 0.3820
vn -0.1900 0.0081 0.3825
vn 0.1386 0.0276 -0.4031
vn 0.4013 -0.0112 0.1462
vn 0.3820 -0.0265 0.1893
vn 0.3725 -0.0993 0.1842
vn 0.3792 -0.0649 0.1857
vn 0.3786 -0.0644 0.1872
vn 0.1141 0.0002 -0.4117
vn 0.1593 0.0816 -0.3879
vn 0.1899 0.0058 -0.3826
vn 0.1815 -0.0092 -0.3866
vn 0.1710 -0.0063 -0.3914
vn 0.1178 0.0636 -0.4057
vn 0.1412 0.0468 -0.4005
vn 0.1360 0.1201 -0.3868
vn 0.0829 0.0837 -0.4106
vn 0.1902 0.0126 -0.3823
vn -0.1902 -0.0126 0.3823
s 0
usemtl Wood
f 58//1 137//1 132//1
f 126//2 127//2 88//2 86//2 72//2
f 52//3 51//3 50//3 49//3
f 28//4 27//4 26//4 25//4
f 62//5 59//5 57//5
f 44//6 43//6 42//6 41//6
f 36//7 35//7 34//7 33//7
f 57//8 59//8 60//8 88//8 58//8
f 69//9 68//9 58//9 132//9 128//9
f 57//10 58//10 68//10 67//10
f 53//11 54//11 18//11 17//11
f 54//12 55//12 19//12 18//12
f 55//13 56//13 20//13 19//13
f 56//14 53//14 17//14 20//14
f 54//15 53//15 21//15 22//15
f 55//16 54//16 22//16 23//16
f 56//17 55//17 23//17 24//17
f 53//18 56//18 24//18 21//18
f 22//19 21//19 25//19 26//19
f 23//20 22//20 26//20 27//20
f 24//21 23//21 27//21 28//21
f 21//22 24//22 28//22 25//22
f 30//23 29//23 33//23 34//23
f 31//24 30//24 34//24 35//24
f 32//25 31//25 35//25 36//25
f 29//26 32//26 36//26 33//26
usemtl Emission
f 70//27 121//27 136//27 130//27 131//27 135//27 128//27
usemtl Wood
f 60//28 38//28 39//28 64//28 61//28
usemtl Emission
f 14//29 103//29 114//29 113//29
f 65//30 62//30 18//30
usemtl Wood
f 65//31 63//31 59//31 62//31
f 16//32 125//32 142//32 122//32
f 66//33 13//33 16//33 122//33 134//33 130//33
f 65//34 64//34 39//34 40//34
f 63//35 65//35 40//35 37//35
f 38//36 37//36 41//36 42//36
f 39//37 38//37 42//37 43//37
f 40//38 39//38 43//38 44//38
f 37//39 40//39 44//39 41//39
f 75//40 79//40 80//40
usemtl Emission
f 76//41 77//41 86//41
usemtl Wood
f 81//42 78//42 74//42 77//42
f 72//43 74//43 78//43 45//43 46//43 79//43 75//43 73//43 71//43 121//43 129//43
f 47//44 48//44 81//44 80//44
f 48//45 45//45 78//45 81//45
f 46//46 45//46 49//46 50//46
f 47//47 46//47 50//47 51//47
f 48//48 47//48 51//48 52//48
f 45//49 48//49 52//49 49//49
f 46//50 47//50 80//50 79//50
f 3//51 4//51 1//51 2//51
f 7//52 6//52 93//52 101//52 102//52 94//52 10//52 11//52
f 12//53 106//53 110//53
f 12//54 9//54 5//54 8//54 105//54 116//54 115//54 106//54
f 9//55 10//55 94//55 99//55 100//55 89//55 5//55
f 9//56 12//56 16//56 13//56
usemtl Emission
f 14//57 104//57 103//57
usemtl Wood
f 15//58 108//58 117//58 118//58 14//58
f 12//59 110//59 111//59 108//59 15//59 124//59 139//59 140//59 125//59 16//59
f 68//60 15//60 14//60 67//60
f 30//61 83//61 82//61 29//61
f 31//62 84//62 83//62 30//62
f 32//63 85//63 84//63 31//63
f 29//64 82//64 85//64 32//64
f 63//65 37//65 38//65 60//65 59//65
f 57//66 67//66 66//66 71//66
f 88//67 60//67 61//67
f 86//68 88//68 61//68
f 77//69 74//69 72//69
usemtl Emission
f 86//70 61//70 83//70
f 83//71 61//71 82//71
f 64//72 82//72 61//72
f 20//73 85//73 19//73
f 85//74 20//74 84//74
f 65//75 19//75 85//75
f 19//76 65//76 18//76
f 82//77 64//77 85//77
f 64//78 65//78 85//78
f 84//79 76//79 83//79
f 77//80 76//80 81//80
f 86//81 83//81 76//81
f 17//82 76//82 84//82
f 20//83 17//83 84//83
f 80//84 81//84 17//84
f 81//85 76//85 17//85
usemtl Wood
f 80//86 87//86 75//86
usemtl Emission
f 80//87 17//87 87//87
f 18//88 87//88 17//88
f 18//89 62//89 87//89
usemtl Wood
f 75//90 87//90 73//90
f 72//91 86//91 77//91
f 57//92 73//92 62//92
f 87//93 62//93 73//93
f 71//94 73//94 57//94
f 3//95 2//95 6//95 7//95
f 5//96 92//96 96//96 97//96 95//96 91//96 1//96 4//96 8//96
usemtl Emission
f 92//97 91//97 95//97 97//97 96//97
f 91//98 92//98 89//98 90//98
usemtl Wood
f 92//98 5//98 89//98
usemtl Emission
f 89//99 100//99 99//99 94//99 93//99 98//99 90//99
usemtl Wood
f 90//100 98//100 93//100 6//100
usemtl Emission
f 94//101 102//101 101//101 93//101
f 108//102 111//102 110//102 109//102 112//102 107//102
usemtl Wood
f 107//102 112//102 109//102 11//102
f 113//103 114//103 103//103 13//103 66//103 67//103 14//103
usemtl Emission
f 110//53 106//53 105//53 109//53
usemtl Wood
f 8//53 7//53 11//53 109//53 105//53
f 103//104 104//104 10//104 9//104 13//104
usemtl Emission
f 106//54 115//54 116//54 105//54
f 14//58 118//58 117//58 108//58 107//58 120//58 119//58 104//58
usemtl Wood
f 104//58 119//58 120//58 107//58 11//58 10//58
usemtl Emission
f 128//105 132//105 70//105
f 130//106 134//106 122//106 123//106 133//106 131//106
usemtl Wood
f 131//107 133//107 123//107 69//107
f 129//108 121//108 70//108
f 128//109 135//109 131//109 69//109
f 130//110 136//110 121//110 71//110 66//110
usemtl Emission
f 132//111 137//111 138//111 129//111 70//111
usemtl Wood
f 129//112 138//112 126//112 72//112
usemtl Emission
f 125//113 140//113 139//113 124//113
f 122//114 142//114 125//114 124//114 141//114 123//114
usemtl Wood
f 123//115 141//115 124//115 15//115 68//115 69//115
f 137//116 58//116 127//116
f 127//117 58//117 88//117
f 126//118 137//118 127//118
f 138//119 137//119 126//119
f 7//120 8//120 4//120 3//120
f 2//121 1//121 91//121 90//121 6//121
l 70 74
