# Blender 3.1.0
# www.blender.org
mtllib Topaz.mtl
o Topaz
v -0.071277 -0.120850 -0.045274
v -0.080495 0.082081 0.089226
v -0.118687 0.075206 0.046243
v -0.107364 0.075472 -0.056346
v -0.051423 -0.005348 -0.143796
v -0.023446 0.075628 -0.137571
v -0.033377 0.120384 -0.075634
v 0.077610 0.061687 -0.086066
v 0.099633 -0.031554 -0.083710
v 0.048516 -0.108527 -0.065231
v 0.068011 0.101146 -0.018269
v 0.112367 0.056606 0.057483
v 0.099436 -0.018771 0.071692
v 0.034339 -0.130563 0.022695
v 0.019733 0.073320 0.102088
v -0.107087 -0.003074 0.079797
v -0.127619 -0.003283 -0.036523
v -0.013723 -0.100969 0.080731
v -0.009877 0.004062 0.122415
v -0.015681 -0.151801 -0.007980
v 0.009263 0.121793 0.034856
vn -0.1457 0.0101 -0.1037
vn 0.0505 -0.0638 -0.1581
vn 0.0647 -0.0085 -0.1668
vn -0.0112 -0.1049 -0.1401
vn 0.1769 -0.0266 0.0027
vn 0.1518 0.0841 -0.0334
vn 0.1517 -0.0900 -0.0008
vn -0.0722 0.0039 0.1639
vn 0.0120 -0.1444 0.0925
vn -0.1165 -0.1088 0.0725
vn 0.0731 0.1357 -0.0782
vn -0.0978 0.1051 -0.1008
vn -0.0592 0.1580 0.0242
vn -0.0008 0.1344 0.1088
vn -0.1604 -0.0704 0.0284
vn 0.0786 0.0135 0.1603
vn -0.1216 -0.1028 0.0737
vn -0.1346 0.0261 0.1149
vn -0.1392 -0.0530 -0.0977
vn -0.1200 0.0455 -0.1239
vn 0.0678 0.1292 -0.0938
vn 0.0828 0.0139 -0.1582
vn 0.1706 0.0351 -0.0399
vn 0.1554 -0.0838 0.0079
vn -0.0168 0.0509 0.1700
vn 0.0852 -0.0925 0.1234
vn 0.0596 -0.0577 0.1575
vn -0.0645 -0.0535 0.1572
vn 0.0862 -0.1461 -0.0271
vn -0.1786 0.0111 0.0075
vn -0.0041 -0.1299 -0.1147
vn 0.0459 0.1624 -0.0200
vn -0.0640 0.1566 0.0225
vn -0.0986 0.1409 -0.0105
vn 0.0707 0.1284 0.0928
vn 0.0911 0.1408 0.0394
vt 0.397821 0.193937
vt 0.131923 0.565296
vt 0.599876 0.000000
vt 0.599876 0.978369
vt 0.836047 0.724835
vt 0.594132 0.073807
vt 0.875000 0.665159
vt 0.591212 0.200565
vt 0.875000 0.524578
vt 0.498606 0.323259
vt 0.812500 0.500000
vt 0.577621 0.355116
vt 0.625000 0.375000
vt 0.774007 0.546322
vt 0.625000 0.464346
vt 0.597295 0.514598
vt 0.495624 0.532607
vt 0.378685 0.496709
vt 0.361077 0.514318
vt 0.655308 0.604634
vt 0.580446 0.694878
vt 0.492498 0.724810
vt 0.334564 0.680408
vt 0.592462 0.840106
vt 0.719526 0.750000
vt 0.501538 1.000000
vt 0.501104 0.017605
vt 0.500000 0.165644
vt 0.214826 0.745527
vt 0.375000 0.030019
vt 0.398785 0.897124
vt 0.500000 0.880867
vt 0.223835 0.611158
vt 0.730539 0.665180
s 0
usemtl Topaz
f 17/28/1 4/8/1 5/10/1
f 5/10/2 9/17/2 10/18/2
f 5/10/3 6/12/3 9/17/3
f 1/1/4 5/10/4 10/18/4
f 12/21/5 13/22/5 9/17/5
f 8/16/6 11/20/6 12/21/6
f 10/19/7 9/17/7 14/23/7
f 19/32/8 2/4/8 16/26/8
f 20/33/9 14/23/9 18/29/9
f 1/2/10 20/33/10 18/29/10
f 8/16/11 7/14/11 11/20/11
f 4/9/12 7/14/12 6/11/12
f 3/7/13 2/5/13 7/14/13
f 21/34/14 2/5/14 15/25/14
f 16/27/15 17/28/15 1/1/15
f 19/32/16 13/22/16 12/21/16 15/24/16
f 18/30/17 16/27/17 1/1/17
f 16/27/18 2/3/18 3/6/18
f 17/28/19 5/10/19 1/1/19
f 5/10/20 4/8/20 6/12/20
f 7/13/21 8/15/21 6/12/21
f 9/17/22 6/12/22 8/16/22
f 9/17/23 8/16/23 12/21/23
f 9/17/24 13/22/24 14/23/24
f 19/32/25 15/24/25 2/4/25
f 14/23/26 13/22/26 18/31/26
f 13/22/27 19/32/27 18/31/27
f 18/31/28 19/32/28 16/26/28
f 20/33/29 10/19/29 14/23/29
f 17/28/30 16/27/30 3/6/30 4/8/30
f 1/2/31 10/19/31 20/33/31
f 11/20/32 7/14/32 21/34/32
f 21/34/33 7/14/33 2/5/33
f 4/9/34 3/7/34 7/14/34
f 21/34/35 15/25/35 12/21/35
f 11/20/36 21/34/36 12/21/36
