# Blender 3.6.20
# www.blender.org
mtllib GroundItem.mtl
o RubyRingBand
v 0.065875 0.000000 0.000000
v 0.057232 0.014969 0.000000
v 0.039947 0.014969 0.000000
v 0.031305 0.000000 0.000000
v 0.039947 -0.014969 0.000000
v 0.057232 -0.014969 0.000000
v 0.053294 0.000000 -0.038720
v 0.046302 0.014969 -0.033640
v 0.032318 0.014969 -0.023480
v 0.025326 0.000000 -0.018401
v 0.032318 -0.014969 -0.023480
v 0.046302 -0.014969 -0.033640
v 0.020356 0.000000 -0.055886
v 0.017686 0.014969 -0.058557
v 0.012344 0.014969 -0.037869
v 0.009674 0.000000 -0.029569
v 0.012344 -0.014969 -0.037869
v 0.017686 -0.014969 -0.058557
v -0.020356 0.000000 -0.055886
v -0.017686 0.014969 -0.058557
v -0.012344 0.014969 -0.037869
v -0.009674 0.000000 -0.029569
v -0.012344 -0.014969 -0.037869
v -0.017686 -0.014969 -0.058557
v -0.053294 -0.000000 -0.038720
v -0.046302 0.014969 -0.033640
v -0.032318 0.014969 -0.023480
v -0.025326 -0.000000 -0.018401
v -0.032318 -0.014969 -0.023480
v -0.046302 -0.014969 -0.033640
v -0.065875 0.000000 -0.000000
v -0.057232 0.014969 -0.000000
v -0.039947 0.014969 -0.000000
v -0.031305 0.000000 -0.000000
v -0.039947 -0.014969 -0.000000
v -0.057232 -0.014969 -0.000000
v -0.053294 0.000000 0.038720
v -0.046302 0.014969 0.033640
v -0.032318 0.014969 0.023480
v -0.025326 0.000000 0.018401
v -0.032318 -0.014969 0.023480
v -0.046302 -0.014969 0.033640
v -0.020356 0.000000 0.062651
v -0.017686 0.014969 0.054431
v -0.012344 0.014969 0.037992
v -0.009674 0.000000 0.029773
v -0.012344 -0.014969 0.037992
v -0.017686 -0.014969 0.054431
v 0.020356 0.000000 0.062651
v 0.017686 0.014969 0.054431
v 0.012344 0.014969 0.037992
v 0.009674 0.000000 0.029773
v 0.012344 -0.014969 0.037992
v 0.017686 -0.014969 0.054431
v 0.053294 0.000000 0.038720
v 0.046302 0.014969 0.033640
v 0.032318 0.014969 0.023481
v 0.025326 0.000000 0.018401
v 0.032318 -0.014969 0.023481
v 0.046302 -0.014969 0.033640
v 0.010178 0.000000 -0.051144
v 0.000000 0.000000 -0.046953
v -0.010178 0.000000 -0.051144
v 0.009497 0.016077 -0.055612
v 0.000000 0.017278 -0.054497
v -0.009497 0.016077 -0.055612
v 0.006172 0.014969 -0.037412
v 0.000000 0.014969 -0.037240
v -0.006172 0.014969 -0.037412
v 0.004837 0.000000 -0.029366
v 0.000000 0.000000 -0.029282
v -0.004837 0.000000 -0.029366
v 0.006172 -0.014969 -0.037412
v 0.000000 -0.014969 -0.037240
v -0.006172 -0.014969 -0.037412
v 0.009497 -0.016077 -0.055612
v 0.000000 -0.017278 -0.054497
v -0.009497 -0.016077 -0.055612
v -0.019626 -0.013602 -0.087466
v -0.029010 0.001335 -0.074413
v -0.015576 0.023668 -0.073571
v -0.001969 0.028603 -0.067255
v 0.025204 -0.002099 -0.092180
v 0.016404 -0.013860 -0.095301
v -0.011502 -0.011968 -0.095287
v 0.025148 -0.010827 -0.068135
v 0.014839 -0.024226 -0.069711
v -0.004617 -0.026668 -0.076497
v 0.015656 0.008080 -0.047516
v 0.009397 0.007533 -0.045280
v -0.005667 -0.003352 -0.045757
v -0.022662 -0.002773 -0.057133
v 0.007265 0.027195 -0.067664
v -0.017447 0.006511 -0.091561
v -0.005074 0.026035 -0.083554
v -0.005079 0.013705 -0.094838
v 0.010999 0.019136 -0.086115
v 0.020360 -0.022672 -0.083914
v -0.001633 -0.023945 -0.066876
v 0.011819 -0.009014 -0.049928
v -0.020683 0.011974 -0.061570
v -0.022825 -0.013530 -0.066091
v 0.029268 0.004327 -0.081357
vn 0.8336 0.4813 -0.2709
vn -0.0000 1.0000 -0.0000
vn -0.8337 0.4813 0.2709
vn -0.8337 -0.4813 0.2709
vn -0.0000 -1.0000 -0.0000
vn 0.8336 -0.4813 -0.2709
vn 0.5477 0.2412 -0.8011
vn -0.5105 0.4828 0.7116
vn -0.5105 -0.4828 0.7116
vn 0.5477 -0.2412 -0.8011
vn 0.3868 -0.2461 -0.8887
vn -0.0881 0.9950 0.0480
vn -0.0528 0.4731 0.8794
vn -0.0528 -0.4731 0.8794
vn -0.0881 -0.9950 0.0480
vn 0.3868 0.2461 -0.8887
vn -0.5477 0.2412 -0.8011
vn 0.5105 0.4828 0.7116
vn 0.5105 -0.4828 0.7116
vn -0.5477 -0.2412 -0.8011
vn -0.8337 0.4813 -0.2709
vn 0.8337 0.4813 0.2709
vn 0.8337 -0.4813 0.2709
vn -0.8337 -0.4813 -0.2709
vn 0.8337 0.4813 -0.2709
vn 0.8337 -0.4813 -0.2709
vn -0.5152 0.4813 0.7091
vn 0.5152 0.4813 -0.7091
vn 0.5152 -0.4813 -0.7091
vn -0.5152 -0.4813 0.7091
vn -0.0000 0.4813 0.8766
vn -0.0000 0.4813 -0.8766
vn -0.0000 -0.4813 -0.8766
vn -0.0000 -0.4813 0.8766
vn 0.5152 0.4813 0.7091
vn -0.5152 0.4813 -0.7091
vn -0.5152 -0.4813 -0.7091
vn 0.5152 -0.4813 0.7091
vn 0.8336 0.4813 0.2709
vn 0.8336 -0.4813 0.2709
vn -0.3868 0.2461 -0.8887
vn -0.2644 0.3315 -0.9056
vn 0.2644 0.3315 -0.9056
vn 0.0881 -0.9950 0.0480
vn 0.0844 -0.9910 0.1034
vn -0.0844 -0.9910 0.1034
vn 0.0528 -0.4731 0.8794
vn 0.0206 -0.4706 0.8821
vn -0.0206 -0.4706 0.8821
vn 0.0528 0.4731 0.8794
vn 0.0206 0.4706 0.8821
vn -0.0206 0.4706 0.8821
vn 0.0881 0.9950 0.0480
vn 0.0844 0.9910 0.1034
vn -0.0844 0.9910 0.1034
vn -0.3868 -0.2461 -0.8887
vn -0.2644 -0.3315 -0.9056
vn 0.2644 -0.3315 -0.9056
vn 0.1697 0.6653 -0.7270
vn -0.3052 0.0929 -0.9478
vn 0.2359 0.2963 -0.9255
vn -0.6181 0.6000 -0.5079
vn 0.1405 0.9736 -0.1802
vn -0.6839 -0.0737 -0.7258
vn -0.8253 -0.0254 -0.5642
vn -0.0689 -0.7208 0.6897
vn 0.0289 -0.9641 0.2639
vn 0.3451 -0.2067 0.9155
vn -0.8928 0.2354 0.3839
vn -0.6159 -0.7827 -0.0895
vn 0.7676 0.5931 0.2430
vn -0.5070 0.5820 -0.6358
vn -0.7853 0.4868 -0.3826
vn -0.3015 0.9490 -0.0921
vn 0.3299 0.8877 -0.3210
vn -0.0529 -0.7969 -0.6018
vn 0.0007 0.0173 -0.9999
vn 0.9471 -0.3023 -0.1075
vn 0.7279 -0.3962 -0.5595
vn -0.3490 -0.7523 0.5587
vn 0.7585 -0.6104 0.2280
vn 0.1424 -0.9884 -0.0528
vn 0.0926 -0.7824 0.6158
vn 0.6430 -0.5566 0.5261
vn 0.7678 -0.2553 0.5876
vn 0.1484 -0.2473 0.9575
vn 0.1516 0.7497 0.6441
vn -0.2581 0.5597 0.7875
vn -0.4138 0.5407 0.7324
vn -0.4896 0.7194 0.4927
vn -0.8516 0.5073 0.1320
vn -0.5217 0.3093 0.7951
vn -0.8871 -0.4426 -0.1312
vn -0.3260 -0.7989 -0.5055
vn -0.4743 -0.5591 0.6800
vn -0.9306 -0.2259 0.2881
vn 0.6042 0.5647 -0.5622
vn 0.6476 0.7376 -0.1911
vn 0.9282 0.0669 0.3660
vt 0.600000 0.500000
vt 0.700000 0.500000
vt 0.700000 0.666667
vt 0.600000 0.666667
vt 0.700000 0.833333
vt 0.600000 0.833333
vt 0.700000 1.000000
vt 0.600000 1.000000
vt 0.600000 -0.000000
vt 0.700000 -0.000000
vt 0.700000 0.166667
vt 0.600000 0.166667
vt 0.700000 0.333333
vt 0.600000 0.333333
vt 0.800000 0.500000
vt 0.800000 0.666667
vt 0.800000 0.833333
vt 0.800000 1.000000
vt 0.800000 -0.000000
vt 0.800000 0.166667
vt 0.800000 0.333333
vt 0.875000 0.500000
vt 0.900000 0.500000
vt 0.900000 0.666667
vt 0.875000 0.666667
vt 0.900000 0.833333
vt 0.875000 0.833333
vt 0.900000 1.000000
vt 0.875000 1.000000
vt 0.875000 -0.000000
vt 0.900000 -0.000000
vt 0.900000 0.166667
vt 0.875000 0.166667
vt 0.900000 0.333333
vt 0.875000 0.333333
vt 1.000000 0.500000
vt 1.000000 0.666667
vt 1.000000 0.833333
vt 1.000000 1.000000
vt 1.000000 -0.000000
vt 1.000000 0.166667
vt 1.000000 0.333333
vt -0.000000 0.500000
vt 0.100000 0.500000
vt 0.100000 0.666667
vt -0.000000 0.666667
vt 0.100000 0.833333
vt -0.000000 0.833333
vt 0.100000 1.000000
vt -0.000000 1.000000
vt -0.000000 -0.000000
vt 0.100000 -0.000000
vt 0.100000 0.166667
vt -0.000000 0.166667
vt 0.100000 0.333333
vt -0.000000 0.333333
vt 0.200000 0.500000
vt 0.200000 0.666667
vt 0.200000 0.833333
vt 0.200000 1.000000
vt 0.200000 -0.000000
vt 0.200000 0.166667
vt 0.200000 0.333333
vt 0.300000 0.500000
vt 0.300000 0.666667
vt 0.300000 0.833333
vt 0.300000 1.000000
vt 0.300000 -0.000000
vt 0.300000 0.166667
vt 0.300000 0.333333
vt 0.400000 0.500000
vt 0.400000 0.666667
vt 0.400000 0.833333
vt 0.400000 1.000000
vt 0.400000 -0.000000
vt 0.400000 0.166667
vt 0.400000 0.333333
vt 0.500000 0.500000
vt 0.500000 0.666667
vt 0.500000 0.833333
vt 0.500000 1.000000
vt 0.500000 -0.000000
vt 0.500000 0.166667
vt 0.500000 0.333333
vt 0.825000 0.333333
vt 0.825000 0.500000
vt 0.850000 0.333333
vt 0.850000 0.500000
vt 0.825000 0.166667
vt 0.850000 0.166667
vt 0.825000 -0.000000
vt 0.850000 -0.000000
vt 0.825000 0.833333
vt 0.825000 1.000000
vt 0.850000 0.833333
vt 0.850000 1.000000
vt 0.825000 0.666667
vt 0.850000 0.666667
vt 0.530471 0.062500
vt 0.591861 0.133315
vt 0.500000 0.135117
vt 0.437500 0.102852
vt 0.391703 0.266607
vt 0.500000 0.337894
vt 0.595807 0.310288
vt 0.478043 0.000000
vt 0.562500 0.000000
vt 0.625000 0.010849
vt 0.375000 0.125000
vt 0.375000 0.028568
vt 0.523419 0.643002
vt 0.436719 0.766314
vt 0.437500 0.571570
vt 0.500000 0.513568
vt 0.401681 0.508403
vt 0.665557 0.723479
vt 0.553774 0.789398
vt 0.375000 0.850664
vt 0.437500 0.921179
vt 0.375000 0.955468
vt 0.296641 0.687500
vt 0.224223 0.584308
vt 0.772161 0.534645
vt 0.855785 0.740809
vt 0.517384 0.437500
vt 0.625000 0.375000
vt 0.609940 0.499696
vt 0.620711 0.510467
vt 0.625000 0.980785
vt 0.558595 0.978601
vt 0.619347 0.781794
vt 0.478043 1.000000
vt 0.171251 0.721432
vt 0.162284 0.510805
vt 0.274336 0.750000
vt 0.825489 0.506297
vt 0.875000 0.625000
s 0
usemtl Gold
f 1/1/1 7/2/1 8/3/1 2/4/1
f 2/4/2 8/3/2 9/5/2 3/6/2
f 3/6/3 9/5/3 10/7/3 4/8/3
f 4/9/4 10/10/4 11/11/4 5/12/4
f 5/12/5 11/11/5 12/13/5 6/14/5
f 6/14/6 12/13/6 7/2/6 1/1/6
f 7/2/7 13/15/7 14/16/7 8/3/7
f 8/3/2 14/16/2 15/17/2 9/5/2
f 9/5/8 15/17/8 16/18/8 10/7/8
f 10/10/9 16/19/9 17/20/9 11/11/9
f 11/11/5 17/20/5 18/21/5 12/13/5
f 12/13/10 18/21/10 13/15/10 7/2/10
f 63/22/11 19/23/11 20/24/11 66/25/11
f 66/25/12 20/24/12 21/26/12 69/27/12
f 69/27/13 21/26/13 22/28/13 72/29/13
f 72/30/14 22/31/14 23/32/14 75/33/14
f 75/33/15 23/32/15 24/34/15 78/35/15
f 78/35/16 24/34/16 19/23/16 63/22/16
f 19/23/17 25/36/17 26/37/17 20/24/17
f 20/24/2 26/37/2 27/38/2 21/26/2
f 21/26/18 27/38/18 28/39/18 22/28/18
f 22/31/19 28/40/19 29/41/19 23/32/19
f 23/32/5 29/41/5 30/42/5 24/34/5
f 24/34/20 30/42/20 25/36/20 19/23/20
f 25/43/21 31/44/21 32/45/21 26/46/21
f 26/46/2 32/45/2 33/47/2 27/48/2
f 27/48/22 33/47/22 34/49/22 28/50/22
f 28/51/23 34/52/23 35/53/23 29/54/23
f 29/54/5 35/53/5 36/55/5 30/56/5
f 30/56/24 36/55/24 31/44/24 25/43/24
f 31/44/3 37/57/3 38/58/3 32/45/3
f 32/45/2 38/58/2 39/59/2 33/47/2
f 33/47/25 39/59/25 40/60/25 34/49/25
f 34/52/26 40/61/26 41/62/26 35/53/26
f 35/53/5 41/62/5 42/63/5 36/55/5
f 36/55/4 42/63/4 37/57/4 31/44/4
f 37/57/27 43/64/27 44/65/27 38/58/27
f 38/58/2 44/65/2 45/66/2 39/59/2
f 39/59/28 45/66/28 46/67/28 40/60/28
f 40/61/29 46/68/29 47/69/29 41/62/29
f 41/62/5 47/69/5 48/70/5 42/63/5
f 42/63/30 48/70/30 43/64/30 37/57/30
f 43/64/31 49/71/31 50/72/31 44/65/31
f 44/65/2 50/72/2 51/73/2 45/66/2
f 45/66/32 51/73/32 52/74/32 46/67/32
f 46/68/33 52/75/33 53/76/33 47/69/33
f 47/69/5 53/76/5 54/77/5 48/70/5
f 48/70/34 54/77/34 49/71/34 43/64/34
f 49/71/35 55/78/35 56/79/35 50/72/35
f 50/72/2 56/79/2 57/80/2 51/73/2
f 51/73/36 57/80/36 58/81/36 52/74/36
f 52/75/37 58/82/37 59/83/37 53/76/37
f 53/76/5 59/83/5 60/84/5 54/77/5
f 54/77/38 60/84/38 55/78/38 49/71/38
f 55/78/39 1/1/39 2/4/39 56/79/39
f 56/79/2 2/4/2 3/6/2 57/80/2
f 57/80/21 3/6/21 4/8/21 58/81/21
f 58/82/24 4/9/24 5/12/24 59/83/24
f 59/83/5 5/12/5 6/14/5 60/84/5
f 60/84/40 6/14/40 1/1/40 55/78/40
f 18/21/41 76/85/41 61/86/41 13/15/41
f 76/85/42 77/87/42 62/88/42 61/86/42
f 77/87/43 78/35/43 63/22/43 62/88/43
f 17/20/44 73/89/44 76/85/44 18/21/44
f 73/89/45 74/90/45 77/87/45 76/85/45
f 74/90/46 75/33/46 78/35/46 77/87/46
f 16/19/47 70/91/47 73/89/47 17/20/47
f 70/91/48 71/92/48 74/90/48 73/89/48
f 71/92/49 72/30/49 75/33/49 74/90/49
f 15/17/50 67/93/50 70/94/50 16/18/50
f 67/93/51 68/95/51 71/96/51 70/94/51
f 68/95/52 69/27/52 72/29/52 71/96/52
f 14/16/53 64/97/53 67/93/53 15/17/53
f 64/97/54 65/98/54 68/95/54 67/93/54
f 65/98/55 66/25/55 69/27/55 68/95/55
f 13/15/56 61/86/56 64/97/56 14/16/56
f 61/86/57 62/88/57 65/98/57 64/97/57
f 62/88/58 63/22/58 66/25/58 65/98/58
usemtl Ruby
f 95/99/59 97/100/59 96/101/59
f 94/102/60 96/101/60 85/103/60
f 84/104/61 96/101/61 97/100/61 83/105/61
f 81/106/62 95/99/62 94/102/62
f 82/107/63 93/108/63 95/99/63
f 94/102/64 85/103/64 79/109/64
f 80/110/65 94/102/65 79/109/65
f 100/111/66 91/112/66 99/113/66
f 87/114/67 99/113/67 88/115/67
f 89/116/68 90/117/68 100/111/68
f 92/118/69 101/119/69 80/120/69
f 88/115/70 102/121/70 79/122/70
f 103/123/71 93/124/71 89/116/71
f 94/102/72 95/99/72 96/101/72
f 80/110/73 81/106/73 94/102/73
f 81/106/74 82/107/74 95/99/74
f 95/99/75 93/108/75 97/100/75
f 98/125/76 88/115/76 85/103/76 84/104/76
f 96/101/77 84/104/77 85/103/77
f 98/125/78 83/105/78 103/126/78 86/127/78
f 84/104/79 83/105/79 98/125/79
f 102/121/80 88/115/80 99/113/80 91/112/80
f 98/125/81 86/128/81 87/114/81
f 98/125/82 87/114/82 88/115/82
f 87/114/83 100/111/83 99/113/83
f 86/128/84 100/111/84 87/114/84
f 86/128/85 89/116/85 100/111/85
f 100/111/86 90/117/86 91/112/86
f 93/129/87 82/130/87 90/117/87 89/131/87
f 101/119/88 91/112/88 82/130/88
f 91/112/89 90/117/89 82/130/89
f 101/119/90 82/130/90 81/132/90
f 101/119/91 81/132/91 80/120/91
f 92/118/92 91/112/92 101/119/92
f 79/122/93 102/121/93 80/133/93
f 85/134/94 88/115/94 79/122/94
f 102/121/95 91/112/95 92/135/95
f 102/121/96 92/135/96 80/133/96
f 103/123/97 83/136/97 97/137/97
f 103/123/98 97/137/98 93/124/98
f 86/128/99 103/123/99 89/116/99
