# Blender 3.6.20
# www.blender.org
mtllib MoonstoneDust.mtl
o IronDustPile
v 0.008230 -0.007596 -0.127498
v 0.061005 -0.013538 -0.116149
v 0.118402 -0.014330 -0.052349
v -0.007542 0.060993 -0.003536
v 0.128763 -0.014576 -0.002123
v -0.000317 0.046015 0.004851
v 0.103964 -0.014473 0.045469
v 0.089962 -0.012876 0.102782
v -0.002268 0.030431 0.022409
v 0.040857 -0.013114 0.122945
v -0.004052 0.051121 0.031082
v -0.019233 -0.015328 0.136931
v -0.010463 0.062852 0.030837
v -0.060538 -0.015565 0.104768
v -0.111775 -0.014217 0.086095
v -0.123813 -0.012384 0.040085
v -0.026611 0.061598 0.016101
v -0.096794 -0.014423 -0.039303
v -0.023194 0.054931 0.009460
v -0.088439 -0.014230 -0.088153
v -0.064420 -0.012440 -0.120026
v -0.027311 -0.005567 -0.138011
v -0.018948 0.058450 0.000240
v 0.002681 0.025913 -0.131364
v 0.001807 0.064127 -0.092255
v 0.004075 0.078282 -0.023803
v 0.029569 0.052178 -0.088921
v 0.019685 0.078103 -0.065819
v 0.041070 0.016897 -0.109739
v 0.029293 0.049030 -0.011768
v 0.042698 0.070006 -0.046098
v 0.063206 0.038412 -0.061840
v 0.075057 0.011291 -0.062568
v 0.061141 0.062662 -0.027255
v 0.109569 0.011932 -0.026289
v 0.107393 0.048857 -0.006688
v 0.018752 0.027059 0.017696
v 0.075926 0.069170 0.005567
v 0.102401 0.053795 0.023456
v 0.010078 0.034092 0.033860
v 0.055812 0.073141 0.053435
v 0.100303 0.034022 0.045166
v 0.092123 -0.004476 0.089714
v 0.034540 0.064380 0.083901
v 0.046108 0.031954 0.122041
v 0.055307 0.019256 0.124486
v 0.013977 0.058208 0.088408
v 0.028758 0.020633 0.130361
v -0.013609 0.052307 0.079253
v -0.003416 0.003646 0.123281
v -0.012732 -0.011649 0.135065
v -0.022161 0.069761 0.025345
v -0.039993 0.019158 0.116204
v -0.052530 0.050794 0.063325
v -0.077562 0.013868 0.110342
v -0.077987 0.045101 0.099708
v -0.088078 0.055734 0.038908
v -0.105796 0.031576 0.074075
v -0.113813 0.007648 0.078672
v -0.042850 0.071207 0.020051
v -0.118419 0.037639 0.044707
v -0.042439 0.065601 0.003920
v -0.119404 0.033513 0.023249
v -0.071231 0.066771 -0.002006
v -0.126105 -0.012933 -0.008493
v -0.053453 0.065558 -0.024595
v -0.080802 0.013190 -0.036928
v -0.028973 0.074378 -0.051648
v -0.050593 0.046418 -0.070275
v -0.016791 0.062623 -0.022642
v -0.015732 0.076039 -0.076142
v -0.049539 0.027088 -0.111317
v -0.026848 0.030900 -0.128055
vn -0.5540 0.7629 0.3332
vn 0.3552 0.6008 0.7161
vn 0.2842 0.7171 0.6364
vn 0.0663 0.9275 -0.3680
vn 0.2271 0.6731 -0.7038
vn 0.6667 0.7197 0.1937
vn -0.4934 0.7059 -0.5082
vn 0.3221 0.9168 0.2363
vn -0.6753 0.5622 -0.4774
vn -0.6243 0.7058 -0.3348
vn -0.0166 0.9549 0.2963
vn -0.8510 0.5052 -0.1436
vn -0.6657 0.5032 -0.5510
vn 0.0444 0.9988 -0.0187
vn -0.6458 0.4921 -0.5838
vn -0.9927 0.1121 0.0456
vn -0.0133 0.9668 0.2554
vn -0.5266 0.8390 -0.1372
vn -0.8279 0.3600 0.4302
vn -0.4277 0.8311 0.3554
vn -0.1216 0.9235 0.3639
vn 0.3904 0.8279 0.4027
vn -0.1947 0.3811 0.9038
vn -0.1703 0.9292 0.3279
vn 0.1498 0.6804 0.7173
vn -0.4848 0.6996 0.5248
vn -0.2649 0.9456 0.1888
vn 0.3723 -0.2092 0.9042
vn -0.5905 0.7851 -0.1865
vn 0.5939 0.5516 0.5857
vn 0.9692 0.0746 0.2347
vn 0.5274 0.8481 -0.0516
vn 0.8667 0.4666 -0.1765
vn 0.4435 0.7461 -0.4966
vn 0.6844 0.3167 -0.6567
vn -0.1403 0.8683 0.4758
vn 0.5034 0.5549 -0.6623
vn -0.4412 0.8816 -0.1677
vn 0.3659 0.6697 -0.6462
vn 0.3526 0.5809 0.7337
vn 0.2608 0.7075 0.6569
vn 0.5758 0.3578 -0.7352
vn 0.3237 0.8247 0.4638
vn 0.7240 0.3836 -0.5733
vn -0.1634 0.9732 0.1621
vn 0.1196 0.0947 -0.9883
vn -0.0006 -0.9999 -0.0143
vn -0.0133 0.7382 -0.6745
vn -0.5185 0.3012 -0.8003
vn -0.6433 0.6923 -0.3270
vn -0.9005 0.3840 -0.2040
vn -0.9731 0.0542 0.2241
vn 0.3896 0.8989 0.2007
vn -0.8104 0.5582 -0.1780
vn -0.8298 0.4943 -0.2591
vn 0.2741 0.9557 -0.1073
vn -0.6445 0.4278 -0.6338
vn -0.6479 0.4780 -0.5931
vn -0.5734 0.8191 -0.0151
vn -0.9942 0.1048 0.0255
vn -0.4203 0.8538 -0.3074
vn -0.4868 -0.1499 0.8605
vn -0.0738 0.8505 0.5208
vn -0.6866 0.2798 0.6711
vn -0.2936 0.9322 0.2118
vn -0.5031 -0.2524 0.8265
vn -0.1894 0.3142 0.9303
vn 0.2163 -0.1115 0.9699
vn -0.2523 0.8029 0.5401
vn 0.0862 0.5746 0.8139
vn 0.4178 0.8817 0.2192
vn -0.4129 0.5803 0.7020
vn -0.1089 0.7304 0.6742
vn 0.2071 -0.1386 0.9685
vn 0.2201 0.3358 0.9159
vn 0.1723 0.9695 -0.1740
vn 0.6655 0.5946 0.4511
vn 0.6623 0.4521 -0.5974
vn 0.7427 0.5007 0.4447
vn 0.7213 0.5918 0.3598
vn 0.5412 0.7660 0.3468
vn -0.9904 0.0815 -0.1114
vn -0.5565 0.7402 -0.3774
vn 0.9071 0.1478 0.3940
vn -0.4594 0.8542 0.2434
vn 0.9404 0.3242 0.1026
vn 0.4760 0.8051 -0.3539
vn 0.8754 0.2659 -0.4037
vn 0.4076 0.8431 -0.3508
vn 0.6041 0.6507 -0.4600
vn 0.6892 0.3710 -0.6224
vn 0.5236 0.6823 -0.5102
vn 0.6629 0.6310 -0.4029
vn 0.7151 0.4518 -0.5334
vn 0.6222 0.6365 -0.4558
vn 0.3977 0.8357 0.3788
vn 0.3606 0.1801 -0.9152
vn 0.3723 0.6925 -0.6179
vn -0.5991 0.7878 -0.1430
vn 0.5831 0.4489 -0.6771
vn 0.4218 0.7392 -0.5251
vn 0.7376 0.3141 -0.5977
vn 0.3881 0.6674 0.6355
vn 0.3728 0.5837 0.7213
vn -0.1077 0.9443 0.3108
vt 1.000000 0.900000
vt 0.950691 1.000000
vt 0.929294 0.900000
vt 0.823270 0.900000
vt 0.820811 1.000000
vt 0.715664 0.900000
vt 0.670309 1.000000
vt 0.623188 0.900000
vt 0.315276 1.000000
vt 0.338105 0.900000
vt 0.440672 0.986790
vt 0.041204 0.769330
vt 0.061518 0.900000
vt 0.000000 0.730265
vt 0.062500 0.609375
vt 0.031250 0.605489
vt 0.109942 0.800000
vt 0.130264 0.695744
vt 0.083660 0.500000
vt 0.133829 0.500000
vt 0.185979 0.798123
vt 0.114163 0.997182
vt 0.201727 0.500000
vt 0.182072 0.600000
vt 0.234032 0.800000
vt 0.247512 0.510701
vt 0.244278 0.900000
vt 0.271021 0.659259
vt 0.285945 0.500000
vt 0.316602 0.777455
vt 0.312500 0.683843
vt 0.358648 0.700000
vt 0.352944 0.600000
vt 0.414491 0.800000
vt 0.406250 0.700000
vt 0.455685 0.700000
vt 0.408110 0.600000
vt 0.489033 0.600000
vt 0.486680 0.800000
vt 0.500000 0.700000
vt 0.531250 0.654872
vt 0.511639 0.985152
vt 0.531250 0.800000
vt 0.566893 0.600000
vt 0.550935 0.500000
vt 0.617083 0.500000
vt 0.633346 0.800000
vt 0.566661 0.800000
vt 0.691244 0.594849
vt 0.625000 0.578819
vt 0.687500 0.500000
vt 0.732462 0.800000
vt 0.711316 0.699888
vt 0.754059 0.698043
vt 0.785206 0.600000
vt 0.748416 0.500000
vt 0.814643 0.500000
vt 0.862718 0.700000
vt 0.808694 0.800000
vt 0.859757 0.600000
vt 0.861249 0.800000
vt 0.929367 0.700000
vt 0.931721 0.600000
vt 0.991967 0.598410
vt 0.934025 0.800000
vt 0.996417 0.730455
vt 0.566941 1.000493
vt 0.226455 1.000000
vt 0.015420 0.285094
vt 0.267439 0.011718
vt 0.347711 0.031405
vt 0.000000 1.000000
vt 0.000000 0.597860
vt 0.009290 0.500000
vt 0.031250 0.500000
vt 0.865335 0.459175
vt 0.965302 0.342508
vt 0.989766 0.247626
vt 0.971731 0.158156
vt 0.908998 0.074228
vt 0.825183 0.023215
vt 0.718740 0.013079
vt 0.642403 0.036689
vt 0.562707 0.101725
vt 0.516663 0.196415
vt 0.510000 0.250000
vt 0.522051 0.321348
vt 0.571862 0.409430
vt 0.630061 0.456714
vt 0.703178 0.485388
vt 0.762731 0.486004
vt 0.356586 0.500000
vt 0.425636 0.500000
vt 0.479136 0.500000
vt 0.560980 0.700000
vt 0.919808 0.500000
vt 0.991016 0.506858
vt 0.046437 0.159939
vt 0.169030 0.026510
vt 0.458374 0.136012
vt 0.461477 0.351355
vt 0.321197 0.472423
vt 0.095473 0.429195
s 0
usemtl IronMineral
f 70/1/1 4/2/1 26/3/1
f 4/2/2 30/4/2 26/3/2
f 30/4/3 6/5/3 37/6/3
f 9/7/4 40/8/4 37/6/4
f 17/9/5 60/10/5 52/11/5
f 71/12/6 70/13/6 25/14/6
f 72/15/7 71/12/7 73/16/7
f 68/17/8 70/13/8 71/12/8
f 69/18/9 21/19/9 20/20/9
f 66/21/10 68/17/10 69/18/10
f 66/21/11 23/22/11 68/17/11
f 18/23/12 67/24/12 20/20/12
f 64/25/13 66/21/13 65/26/13
f 62/27/14 66/21/14 64/25/14
f 64/25/15 65/26/15 63/28/15
f 16/29/16 63/28/16 65/26/16
f 62/27/17 64/25/17 57/30/17
f 57/30/18 63/28/18 61/31/18
f 58/32/19 61/31/19 59/33/19
f 57/30/20 61/31/20 58/32/20
f 52/11/21 57/30/21 54/34/21
f 54/34/22 56/35/22 53/36/22
f 53/36/23 55/37/23 51/38/23
f 52/11/24 54/34/24 49/39/24
f 49/39/25 53/36/25 50/40/25
f 48/41/26 50/40/26 51/38/26
f 13/42/27 49/39/27 47/43/27
f 46/44/28 10/45/28 8/46/28
f 41/47/29 40/8/29 44/48/29
f 42/49/30 41/47/30 43/50/30
f 7/51/31 42/49/31 8/46/31
f 38/52/32 39/53/32 36/54/32
f 35/55/33 5/56/33 3/57/33
f 32/58/34 34/59/34 36/54/34
f 33/60/35 32/58/35 35/55/35
f 30/4/36 34/59/36 31/61/36
f 27/62/37 29/63/37 24/64/37
f 26/3/38 28/65/38 25/66/38
f 25/66/39 27/62/39 24/64/39
f 4/2/40 6/5/40 30/4/40
f 37/6/41 6/5/41 9/7/41
f 9/7/42 11/67/42 40/8/42
f 62/27/43 19/68/43 23/22/43
f 19/69/44 13/70/44 11/71/44
f 70/13/45 23/22/45 4/72/45
f 24/73/46 1/74/46 22/75/46 73/16/46
f 2/76/47 3/77/47 5/78/47 7/79/47 8/80/47 10/81/47 12/82/47 14/83/47 15/84/47 16/85/47 65/86/47 18/87/47 20/88/47 21/89/47 22/90/47 1/91/47
f 24/73/48 73/16/48 71/12/48 25/14/48
f 22/75/49 21/19/49 72/15/49 73/16/49
f 71/12/50 72/15/50 69/18/50 68/17/50
f 69/18/51 72/15/51 21/19/51
f 16/29/52 15/92/52 59/33/52 61/31/52
f 68/17/53 23/22/53 70/13/53
f 67/24/54 69/18/54 20/20/54
f 67/24/55 66/21/55 69/18/55
f 66/21/56 62/27/56 23/22/56
f 18/23/57 65/26/57 67/24/57
f 65/26/58 66/21/58 67/24/58
f 57/30/59 64/25/59 63/28/59
f 61/31/60 63/28/60 16/29/60
f 60/10/61 62/27/61 57/30/61
f 15/92/62 14/93/62 55/37/62 59/33/62
f 52/11/63 60/10/63 57/30/63
f 58/32/64 59/33/64 55/37/64 56/35/64
f 58/32/65 56/35/65 54/34/65 57/30/65
f 14/93/66 12/94/66 51/38/66 55/37/66
f 53/36/67 56/35/67 55/37/67
f 51/38/68 12/94/68 10/45/68 48/41/68
f 49/39/69 54/34/69 53/36/69
f 50/40/70 53/36/70 51/38/70
f 13/42/71 52/11/71 49/39/71
f 49/39/72 50/40/72 48/41/72 47/43/72
f 47/43/73 48/41/73 45/95/73 44/48/73
f 10/45/74 46/44/74 48/41/74
f 46/44/75 45/95/75 48/41/75
f 47/43/76 44/48/76 11/67/76 13/42/76
f 44/48/77 45/95/77 43/50/77 41/47/77
f 40/8/78 11/67/78 44/48/78
f 43/50/79 46/44/79 8/46/79
f 43/50/80 45/95/80 46/44/80
f 41/47/81 42/49/81 39/53/81 38/52/81
f 42/49/82 43/50/82 8/46/82
f 41/47/83 38/52/83 37/6/83 40/8/83
f 7/51/84 5/56/84 39/53/84 42/49/84
f 38/52/85 34/59/85 30/4/85 37/6/85
f 5/56/86 36/54/86 39/53/86
f 62/27/87 60/10/87 17/9/87 19/68/87
f 35/55/88 36/54/88 5/56/88
f 36/54/89 34/59/89 38/52/89
f 33/60/90 3/57/90 2/96/90 29/63/90
f 32/58/91 36/54/91 35/55/91
f 3/57/92 33/60/92 35/55/92
f 32/58/93 31/61/93 34/59/93
f 32/58/94 33/60/94 29/63/94 27/62/94
f 32/58/95 27/62/95 28/65/95 31/61/95
f 31/61/96 28/65/96 26/3/96 30/4/96
f 29/63/97 2/96/97 1/97/97 24/64/97
f 25/66/98 28/65/98 27/62/98
f 25/66/99 70/1/99 26/3/99
f 13/70/100 17/98/100 52/99/100
f 13/70/101 19/69/101 17/98/101
f 11/71/102 9/100/102 19/69/102
f 19/69/103 9/100/103 6/101/103
f 6/101/104 4/102/104 19/69/104
f 19/69/105 4/102/105 23/103/105
